<?xml version="1.0" encoding="utf-8" standalone="no"?>
<!DOCTYPE svg PUBLIC "-//W3C//DTD SVG 1.1//EN"
  "http://www.w3.org/Graphics/SVG/1.1/DTD/svg11.dtd">
<!-- Created with matplotlib (https://matplotlib.org/) -->
<svg height="593.759688pt" version="1.1" viewBox="0 0 1176.51 593.759688" width="1176.51pt" xmlns="http://www.w3.org/2000/svg" xmlns:xlink="http://www.w3.org/1999/xlink">
 <metadata>
  <rdf:RDF xmlns:cc="http://creativecommons.org/ns#" xmlns:dc="http://purl.org/dc/elements/1.1/" xmlns:rdf="http://www.w3.org/1999/02/22-rdf-syntax-ns#">
   <cc:Work>
    <dc:type rdf:resource="http://purl.org/dc/dcmitype/StillImage"/>
    <dc:date>2020-11-23T18:08:25.245205</dc:date>
    <dc:format>image/svg+xml</dc:format>
    <dc:creator>
     <cc:Agent>
      <dc:title>Matplotlib v3.3.3, https://matplotlib.org/</dc:title>
     </cc:Agent>
    </dc:creator>
   </cc:Work>
  </rdf:RDF>
 </metadata>
 <defs>
  <style type="text/css">*{stroke-linecap:butt;stroke-linejoin:round;}</style>
 </defs>
 <g id="figure_1">
  <g id="patch_1">
   <path d="M -0 593.759688 
L 1176.51 593.759688 
L 1176.51 0 
L -0 0 
z
" style="fill:#ffffff;"/>
  </g>
  <g id="axes_1">
   <g id="patch_2">
    <path d="M 53.31 550.8 
L 1169.31 550.8 
L 1169.31 7.2 
L 53.31 7.2 
z
" style="fill:#eaeaf2;"/>
   </g>
   <g id="matplotlib.axis_1">
    <g id="xtick_1">
     <g id="text_1">
      <!-- M -->
      <g style="fill:#262626;" transform="translate(188.064531 568.658281)scale(0.11 -0.11)">
       <defs>
        <path d="M 9.8125 72.90625 
L 24.515625 72.90625 
L 43.109375 23.296875 
L 61.8125 72.90625 
L 76.515625 72.90625 
L 76.515625 0 
L 66.890625 0 
L 66.890625 64.015625 
L 48.09375 14.015625 
L 38.1875 14.015625 
L 19.390625 64.015625 
L 19.390625 0 
L 9.8125 0 
z
" id="DejaVuSans-77"/>
       </defs>
       <use xlink:href="#DejaVuSans-77"/>
      </g>
     </g>
    </g>
    <g id="xtick_2">
     <g id="text_2">
      <!-- F -->
      <g style="fill:#262626;" transform="translate(468.646641 568.658281)scale(0.11 -0.11)">
       <defs>
        <path d="M 9.8125 72.90625 
L 51.703125 72.90625 
L 51.703125 64.59375 
L 19.671875 64.59375 
L 19.671875 43.109375 
L 48.578125 43.109375 
L 48.578125 34.8125 
L 19.671875 34.8125 
L 19.671875 0 
L 9.8125 0 
z
" id="DejaVuSans-70"/>
       </defs>
       <use xlink:href="#DejaVuSans-70"/>
      </g>
     </g>
    </g>
    <g id="xtick_3">
     <g id="text_3">
      <!-- D -->
      <g style="fill:#262626;" transform="translate(746.575 568.658281)scale(0.11 -0.11)">
       <defs>
        <path d="M 19.671875 64.796875 
L 19.671875 8.109375 
L 31.59375 8.109375 
Q 46.6875 8.109375 53.6875 14.9375 
Q 60.6875 21.78125 60.6875 36.53125 
Q 60.6875 51.171875 53.6875 57.984375 
Q 46.6875 64.796875 31.59375 64.796875 
z
M 9.8125 72.90625 
L 30.078125 72.90625 
Q 51.265625 72.90625 61.171875 64.09375 
Q 71.09375 55.28125 71.09375 36.53125 
Q 71.09375 17.671875 61.125 8.828125 
Q 51.171875 0 30.078125 0 
L 9.8125 0 
z
" id="DejaVuSans-68"/>
       </defs>
       <use xlink:href="#DejaVuSans-68"/>
      </g>
     </g>
    </g>
    <g id="xtick_4">
     <g id="text_4">
      <!-- GK -->
      <g style="fill:#262626;" transform="translate(1021.941562 568.658281)scale(0.11 -0.11)">
       <defs>
        <path d="M 59.515625 10.40625 
L 59.515625 29.984375 
L 43.40625 29.984375 
L 43.40625 38.09375 
L 69.28125 38.09375 
L 69.28125 6.78125 
Q 63.578125 2.734375 56.6875 0.65625 
Q 49.8125 -1.421875 42 -1.421875 
Q 24.90625 -1.421875 15.25 8.5625 
Q 5.609375 18.5625 5.609375 36.375 
Q 5.609375 54.25 15.25 64.234375 
Q 24.90625 74.21875 42 74.21875 
Q 49.125 74.21875 55.546875 72.453125 
Q 61.96875 70.703125 67.390625 67.28125 
L 67.390625 56.78125 
Q 61.921875 61.421875 55.765625 63.765625 
Q 49.609375 66.109375 42.828125 66.109375 
Q 29.4375 66.109375 22.71875 58.640625 
Q 16.015625 51.171875 16.015625 36.375 
Q 16.015625 21.625 22.71875 14.15625 
Q 29.4375 6.6875 42.828125 6.6875 
Q 48.046875 6.6875 52.140625 7.59375 
Q 56.25 8.5 59.515625 10.40625 
z
" id="DejaVuSans-71"/>
        <path d="M 9.8125 72.90625 
L 19.671875 72.90625 
L 19.671875 42.09375 
L 52.390625 72.90625 
L 65.09375 72.90625 
L 28.90625 38.921875 
L 67.671875 0 
L 54.6875 0 
L 19.671875 35.109375 
L 19.671875 0 
L 9.8125 0 
z
" id="DejaVuSans-75"/>
       </defs>
       <use xlink:href="#DejaVuSans-71"/>
       <use x="77.490234" xlink:href="#DejaVuSans-75"/>
      </g>
     </g>
    </g>
    <g id="text_5">
     <!-- Pos_Type -->
     <g style="fill:#262626;" transform="translate(584.333438 583.730313)scale(0.12 -0.12)">
      <defs>
       <path d="M 19.671875 64.796875 
L 19.671875 37.40625 
L 32.078125 37.40625 
Q 38.96875 37.40625 42.71875 40.96875 
Q 46.484375 44.53125 46.484375 51.125 
Q 46.484375 57.671875 42.71875 61.234375 
Q 38.96875 64.796875 32.078125 64.796875 
z
M 9.8125 72.90625 
L 32.078125 72.90625 
Q 44.34375 72.90625 50.609375 67.359375 
Q 56.890625 61.8125 56.890625 51.125 
Q 56.890625 40.328125 50.609375 34.8125 
Q 44.34375 29.296875 32.078125 29.296875 
L 19.671875 29.296875 
L 19.671875 0 
L 9.8125 0 
z
" id="DejaVuSans-80"/>
       <path d="M 30.609375 48.390625 
Q 23.390625 48.390625 19.1875 42.75 
Q 14.984375 37.109375 14.984375 27.296875 
Q 14.984375 17.484375 19.15625 11.84375 
Q 23.34375 6.203125 30.609375 6.203125 
Q 37.796875 6.203125 41.984375 11.859375 
Q 46.1875 17.53125 46.1875 27.296875 
Q 46.1875 37.015625 41.984375 42.703125 
Q 37.796875 48.390625 30.609375 48.390625 
z
M 30.609375 56 
Q 42.328125 56 49.015625 48.375 
Q 55.71875 40.765625 55.71875 27.296875 
Q 55.71875 13.875 49.015625 6.21875 
Q 42.328125 -1.421875 30.609375 -1.421875 
Q 18.84375 -1.421875 12.171875 6.21875 
Q 5.515625 13.875 5.515625 27.296875 
Q 5.515625 40.765625 12.171875 48.375 
Q 18.84375 56 30.609375 56 
z
" id="DejaVuSans-111"/>
       <path d="M 44.28125 53.078125 
L 44.28125 44.578125 
Q 40.484375 46.53125 36.375 47.5 
Q 32.28125 48.484375 27.875 48.484375 
Q 21.1875 48.484375 17.84375 46.4375 
Q 14.5 44.390625 14.5 40.28125 
Q 14.5 37.15625 16.890625 35.375 
Q 19.28125 33.59375 26.515625 31.984375 
L 29.59375 31.296875 
Q 39.15625 29.25 43.1875 25.515625 
Q 47.21875 21.78125 47.21875 15.09375 
Q 47.21875 7.46875 41.1875 3.015625 
Q 35.15625 -1.421875 24.609375 -1.421875 
Q 20.21875 -1.421875 15.453125 -0.5625 
Q 10.6875 0.296875 5.421875 2 
L 5.421875 11.28125 
Q 10.40625 8.6875 15.234375 7.390625 
Q 20.0625 6.109375 24.8125 6.109375 
Q 31.15625 6.109375 34.5625 8.28125 
Q 37.984375 10.453125 37.984375 14.40625 
Q 37.984375 18.0625 35.515625 20.015625 
Q 33.0625 21.96875 24.703125 23.78125 
L 21.578125 24.515625 
Q 13.234375 26.265625 9.515625 29.90625 
Q 5.8125 33.546875 5.8125 39.890625 
Q 5.8125 47.609375 11.28125 51.796875 
Q 16.75 56 26.8125 56 
Q 31.78125 56 36.171875 55.265625 
Q 40.578125 54.546875 44.28125 53.078125 
z
" id="DejaVuSans-115"/>
       <path d="M 50.984375 -16.609375 
L 50.984375 -23.578125 
L -0.984375 -23.578125 
L -0.984375 -16.609375 
z
" id="DejaVuSans-95"/>
       <path d="M -0.296875 72.90625 
L 61.375 72.90625 
L 61.375 64.59375 
L 35.5 64.59375 
L 35.5 0 
L 25.59375 0 
L 25.59375 64.59375 
L -0.296875 64.59375 
z
" id="DejaVuSans-84"/>
       <path d="M 32.171875 -5.078125 
Q 28.375 -14.84375 24.75 -17.8125 
Q 21.140625 -20.796875 15.09375 -20.796875 
L 7.90625 -20.796875 
L 7.90625 -13.28125 
L 13.1875 -13.28125 
Q 16.890625 -13.28125 18.9375 -11.515625 
Q 21 -9.765625 23.484375 -3.21875 
L 25.09375 0.875 
L 2.984375 54.6875 
L 12.5 54.6875 
L 29.59375 11.921875 
L 46.6875 54.6875 
L 56.203125 54.6875 
z
" id="DejaVuSans-121"/>
       <path d="M 18.109375 8.203125 
L 18.109375 -20.796875 
L 9.078125 -20.796875 
L 9.078125 54.6875 
L 18.109375 54.6875 
L 18.109375 46.390625 
Q 20.953125 51.265625 25.265625 53.625 
Q 29.59375 56 35.59375 56 
Q 45.5625 56 51.78125 48.09375 
Q 58.015625 40.1875 58.015625 27.296875 
Q 58.015625 14.40625 51.78125 6.484375 
Q 45.5625 -1.421875 35.59375 -1.421875 
Q 29.59375 -1.421875 25.265625 0.953125 
Q 20.953125 3.328125 18.109375 8.203125 
z
M 48.6875 27.296875 
Q 48.6875 37.203125 44.609375 42.84375 
Q 40.53125 48.484375 33.40625 48.484375 
Q 26.265625 48.484375 22.1875 42.84375 
Q 18.109375 37.203125 18.109375 27.296875 
Q 18.109375 17.390625 22.1875 11.75 
Q 26.265625 6.109375 33.40625 6.109375 
Q 40.53125 6.109375 44.609375 11.75 
Q 48.6875 17.390625 48.6875 27.296875 
z
" id="DejaVuSans-112"/>
       <path d="M 56.203125 29.59375 
L 56.203125 25.203125 
L 14.890625 25.203125 
Q 15.484375 15.921875 20.484375 11.0625 
Q 25.484375 6.203125 34.421875 6.203125 
Q 39.59375 6.203125 44.453125 7.46875 
Q 49.3125 8.734375 54.109375 11.28125 
L 54.109375 2.78125 
Q 49.265625 0.734375 44.1875 -0.34375 
Q 39.109375 -1.421875 33.890625 -1.421875 
Q 20.796875 -1.421875 13.15625 6.1875 
Q 5.515625 13.8125 5.515625 26.8125 
Q 5.515625 40.234375 12.765625 48.109375 
Q 20.015625 56 32.328125 56 
Q 43.359375 56 49.78125 48.890625 
Q 56.203125 41.796875 56.203125 29.59375 
z
M 47.21875 32.234375 
Q 47.125 39.59375 43.09375 43.984375 
Q 39.0625 48.390625 32.421875 48.390625 
Q 24.90625 48.390625 20.390625 44.140625 
Q 15.875 39.890625 15.1875 32.171875 
z
" id="DejaVuSans-101"/>
      </defs>
      <use xlink:href="#DejaVuSans-80"/>
      <use x="56.677734" xlink:href="#DejaVuSans-111"/>
      <use x="117.859375" xlink:href="#DejaVuSans-115"/>
      <use x="169.958984" xlink:href="#DejaVuSans-95"/>
      <use x="219.958984" xlink:href="#DejaVuSans-84"/>
      <use x="265.417969" xlink:href="#DejaVuSans-121"/>
      <use x="324.597656" xlink:href="#DejaVuSans-112"/>
      <use x="388.074219" xlink:href="#DejaVuSans-101"/>
     </g>
    </g>
   </g>
   <g id="matplotlib.axis_2">
    <g id="ytick_1">
     <g id="line2d_1">
      <path clip-path="url(#p8bd97cffd5)" d="M 53.31 542.733903 
L 1169.31 542.733903 
" style="fill:none;stroke:#ffffff;stroke-linecap:round;"/>
     </g>
     <g id="text_6">
      <!-- 0 -->
      <g style="fill:#262626;" transform="translate(36.81125 546.913043)scale(0.11 -0.11)">
       <defs>
        <path d="M 31.78125 66.40625 
Q 24.171875 66.40625 20.328125 58.90625 
Q 16.5 51.421875 16.5 36.375 
Q 16.5 21.390625 20.328125 13.890625 
Q 24.171875 6.390625 31.78125 6.390625 
Q 39.453125 6.390625 43.28125 13.890625 
Q 47.125 21.390625 47.125 36.375 
Q 47.125 51.421875 43.28125 58.90625 
Q 39.453125 66.40625 31.78125 66.40625 
z
M 31.78125 74.21875 
Q 44.046875 74.21875 50.515625 64.515625 
Q 56.984375 54.828125 56.984375 36.375 
Q 56.984375 17.96875 50.515625 8.265625 
Q 44.046875 -1.421875 31.78125 -1.421875 
Q 19.53125 -1.421875 13.0625 8.265625 
Q 6.59375 17.96875 6.59375 36.375 
Q 6.59375 54.828125 13.0625 64.515625 
Q 19.53125 74.21875 31.78125 74.21875 
z
" id="DejaVuSans-48"/>
       </defs>
       <use xlink:href="#DejaVuSans-48"/>
      </g>
     </g>
    </g>
    <g id="ytick_2">
     <g id="line2d_2">
      <path clip-path="url(#p8bd97cffd5)" d="M 53.31 437.952286 
L 1169.31 437.952286 
" style="fill:none;stroke:#ffffff;stroke-linecap:round;"/>
     </g>
     <g id="text_7">
      <!-- 20 -->
      <g style="fill:#262626;" transform="translate(29.8125 442.131427)scale(0.11 -0.11)">
       <defs>
        <path d="M 19.1875 8.296875 
L 53.609375 8.296875 
L 53.609375 0 
L 7.328125 0 
L 7.328125 8.296875 
Q 12.9375 14.109375 22.625 23.890625 
Q 32.328125 33.6875 34.8125 36.53125 
Q 39.546875 41.84375 41.421875 45.53125 
Q 43.3125 49.21875 43.3125 52.78125 
Q 43.3125 58.59375 39.234375 62.25 
Q 35.15625 65.921875 28.609375 65.921875 
Q 23.96875 65.921875 18.8125 64.3125 
Q 13.671875 62.703125 7.8125 59.421875 
L 7.8125 69.390625 
Q 13.765625 71.78125 18.9375 73 
Q 24.125 74.21875 28.421875 74.21875 
Q 39.75 74.21875 46.484375 68.546875 
Q 53.21875 62.890625 53.21875 53.421875 
Q 53.21875 48.921875 51.53125 44.890625 
Q 49.859375 40.875 45.40625 35.40625 
Q 44.1875 33.984375 37.640625 27.21875 
Q 31.109375 20.453125 19.1875 8.296875 
z
" id="DejaVuSans-50"/>
       </defs>
       <use xlink:href="#DejaVuSans-50"/>
       <use x="63.623047" xlink:href="#DejaVuSans-48"/>
      </g>
     </g>
    </g>
    <g id="ytick_3">
     <g id="line2d_3">
      <path clip-path="url(#p8bd97cffd5)" d="M 53.31 333.17067 
L 1169.31 333.17067 
" style="fill:none;stroke:#ffffff;stroke-linecap:round;"/>
     </g>
     <g id="text_8">
      <!-- 40 -->
      <g style="fill:#262626;" transform="translate(29.8125 337.34981)scale(0.11 -0.11)">
       <defs>
        <path d="M 37.796875 64.3125 
L 12.890625 25.390625 
L 37.796875 25.390625 
z
M 35.203125 72.90625 
L 47.609375 72.90625 
L 47.609375 25.390625 
L 58.015625 25.390625 
L 58.015625 17.1875 
L 47.609375 17.1875 
L 47.609375 0 
L 37.796875 0 
L 37.796875 17.1875 
L 4.890625 17.1875 
L 4.890625 26.703125 
z
" id="DejaVuSans-52"/>
       </defs>
       <use xlink:href="#DejaVuSans-52"/>
       <use x="63.623047" xlink:href="#DejaVuSans-48"/>
      </g>
     </g>
    </g>
    <g id="ytick_4">
     <g id="line2d_4">
      <path clip-path="url(#p8bd97cffd5)" d="M 53.31 228.389053 
L 1169.31 228.389053 
" style="fill:none;stroke:#ffffff;stroke-linecap:round;"/>
     </g>
     <g id="text_9">
      <!-- 60 -->
      <g style="fill:#262626;" transform="translate(29.8125 232.568194)scale(0.11 -0.11)">
       <defs>
        <path d="M 33.015625 40.375 
Q 26.375 40.375 22.484375 35.828125 
Q 18.609375 31.296875 18.609375 23.390625 
Q 18.609375 15.53125 22.484375 10.953125 
Q 26.375 6.390625 33.015625 6.390625 
Q 39.65625 6.390625 43.53125 10.953125 
Q 47.40625 15.53125 47.40625 23.390625 
Q 47.40625 31.296875 43.53125 35.828125 
Q 39.65625 40.375 33.015625 40.375 
z
M 52.59375 71.296875 
L 52.59375 62.3125 
Q 48.875 64.0625 45.09375 64.984375 
Q 41.3125 65.921875 37.59375 65.921875 
Q 27.828125 65.921875 22.671875 59.328125 
Q 17.53125 52.734375 16.796875 39.40625 
Q 19.671875 43.65625 24.015625 45.921875 
Q 28.375 48.1875 33.59375 48.1875 
Q 44.578125 48.1875 50.953125 41.515625 
Q 57.328125 34.859375 57.328125 23.390625 
Q 57.328125 12.15625 50.6875 5.359375 
Q 44.046875 -1.421875 33.015625 -1.421875 
Q 20.359375 -1.421875 13.671875 8.265625 
Q 6.984375 17.96875 6.984375 36.375 
Q 6.984375 53.65625 15.1875 63.9375 
Q 23.390625 74.21875 37.203125 74.21875 
Q 40.921875 74.21875 44.703125 73.484375 
Q 48.484375 72.75 52.59375 71.296875 
z
" id="DejaVuSans-54"/>
       </defs>
       <use xlink:href="#DejaVuSans-54"/>
       <use x="63.623047" xlink:href="#DejaVuSans-48"/>
      </g>
     </g>
    </g>
    <g id="ytick_5">
     <g id="line2d_5">
      <path clip-path="url(#p8bd97cffd5)" d="M 53.31 123.607437 
L 1169.31 123.607437 
" style="fill:none;stroke:#ffffff;stroke-linecap:round;"/>
     </g>
     <g id="text_10">
      <!-- 80 -->
      <g style="fill:#262626;" transform="translate(29.8125 127.786577)scale(0.11 -0.11)">
       <defs>
        <path d="M 31.78125 34.625 
Q 24.75 34.625 20.71875 30.859375 
Q 16.703125 27.09375 16.703125 20.515625 
Q 16.703125 13.921875 20.71875 10.15625 
Q 24.75 6.390625 31.78125 6.390625 
Q 38.8125 6.390625 42.859375 10.171875 
Q 46.921875 13.96875 46.921875 20.515625 
Q 46.921875 27.09375 42.890625 30.859375 
Q 38.875 34.625 31.78125 34.625 
z
M 21.921875 38.8125 
Q 15.578125 40.375 12.03125 44.71875 
Q 8.5 49.078125 8.5 55.328125 
Q 8.5 64.0625 14.71875 69.140625 
Q 20.953125 74.21875 31.78125 74.21875 
Q 42.671875 74.21875 48.875 69.140625 
Q 55.078125 64.0625 55.078125 55.328125 
Q 55.078125 49.078125 51.53125 44.71875 
Q 48 40.375 41.703125 38.8125 
Q 48.828125 37.15625 52.796875 32.3125 
Q 56.78125 27.484375 56.78125 20.515625 
Q 56.78125 9.90625 50.3125 4.234375 
Q 43.84375 -1.421875 31.78125 -1.421875 
Q 19.734375 -1.421875 13.25 4.234375 
Q 6.78125 9.90625 6.78125 20.515625 
Q 6.78125 27.484375 10.78125 32.3125 
Q 14.796875 37.15625 21.921875 38.8125 
z
M 18.3125 54.390625 
Q 18.3125 48.734375 21.84375 45.5625 
Q 25.390625 42.390625 31.78125 42.390625 
Q 38.140625 42.390625 41.71875 45.5625 
Q 45.3125 48.734375 45.3125 54.390625 
Q 45.3125 60.0625 41.71875 63.234375 
Q 38.140625 66.40625 31.78125 66.40625 
Q 25.390625 66.40625 21.84375 63.234375 
Q 18.3125 60.0625 18.3125 54.390625 
z
" id="DejaVuSans-56"/>
       </defs>
       <use xlink:href="#DejaVuSans-56"/>
       <use x="63.623047" xlink:href="#DejaVuSans-48"/>
      </g>
     </g>
    </g>
    <g id="ytick_6">
     <g id="line2d_6">
      <path clip-path="url(#p8bd97cffd5)" d="M 53.31 18.82582 
L 1169.31 18.82582 
" style="fill:none;stroke:#ffffff;stroke-linecap:round;"/>
     </g>
     <g id="text_11">
      <!-- 100 -->
      <g style="fill:#262626;" transform="translate(22.81375 23.004961)scale(0.11 -0.11)">
       <defs>
        <path d="M 12.40625 8.296875 
L 28.515625 8.296875 
L 28.515625 63.921875 
L 10.984375 60.40625 
L 10.984375 69.390625 
L 28.421875 72.90625 
L 38.28125 72.90625 
L 38.28125 8.296875 
L 54.390625 8.296875 
L 54.390625 0 
L 12.40625 0 
z
" id="DejaVuSans-49"/>
       </defs>
       <use xlink:href="#DejaVuSans-49"/>
       <use x="63.623047" xlink:href="#DejaVuSans-48"/>
       <use x="127.246094" xlink:href="#DejaVuSans-48"/>
      </g>
     </g>
    </g>
    <g id="text_12">
     <!-- Heading Accuracy -->
     <g style="fill:#262626;" transform="translate(16.318125 333.269063)rotate(-90)scale(0.12 -0.12)">
      <defs>
       <path d="M 9.8125 72.90625 
L 19.671875 72.90625 
L 19.671875 43.015625 
L 55.515625 43.015625 
L 55.515625 72.90625 
L 65.375 72.90625 
L 65.375 0 
L 55.515625 0 
L 55.515625 34.71875 
L 19.671875 34.71875 
L 19.671875 0 
L 9.8125 0 
z
" id="DejaVuSans-72"/>
       <path d="M 34.28125 27.484375 
Q 23.390625 27.484375 19.1875 25 
Q 14.984375 22.515625 14.984375 16.5 
Q 14.984375 11.71875 18.140625 8.90625 
Q 21.296875 6.109375 26.703125 6.109375 
Q 34.1875 6.109375 38.703125 11.40625 
Q 43.21875 16.703125 43.21875 25.484375 
L 43.21875 27.484375 
z
M 52.203125 31.203125 
L 52.203125 0 
L 43.21875 0 
L 43.21875 8.296875 
Q 40.140625 3.328125 35.546875 0.953125 
Q 30.953125 -1.421875 24.3125 -1.421875 
Q 15.921875 -1.421875 10.953125 3.296875 
Q 6 8.015625 6 15.921875 
Q 6 25.140625 12.171875 29.828125 
Q 18.359375 34.515625 30.609375 34.515625 
L 43.21875 34.515625 
L 43.21875 35.40625 
Q 43.21875 41.609375 39.140625 45 
Q 35.0625 48.390625 27.6875 48.390625 
Q 23 48.390625 18.546875 47.265625 
Q 14.109375 46.140625 10.015625 43.890625 
L 10.015625 52.203125 
Q 14.9375 54.109375 19.578125 55.046875 
Q 24.21875 56 28.609375 56 
Q 40.484375 56 46.34375 49.84375 
Q 52.203125 43.703125 52.203125 31.203125 
z
" id="DejaVuSans-97"/>
       <path d="M 45.40625 46.390625 
L 45.40625 75.984375 
L 54.390625 75.984375 
L 54.390625 0 
L 45.40625 0 
L 45.40625 8.203125 
Q 42.578125 3.328125 38.25 0.953125 
Q 33.9375 -1.421875 27.875 -1.421875 
Q 17.96875 -1.421875 11.734375 6.484375 
Q 5.515625 14.40625 5.515625 27.296875 
Q 5.515625 40.1875 11.734375 48.09375 
Q 17.96875 56 27.875 56 
Q 33.9375 56 38.25 53.625 
Q 42.578125 51.265625 45.40625 46.390625 
z
M 14.796875 27.296875 
Q 14.796875 17.390625 18.875 11.75 
Q 22.953125 6.109375 30.078125 6.109375 
Q 37.203125 6.109375 41.296875 11.75 
Q 45.40625 17.390625 45.40625 27.296875 
Q 45.40625 37.203125 41.296875 42.84375 
Q 37.203125 48.484375 30.078125 48.484375 
Q 22.953125 48.484375 18.875 42.84375 
Q 14.796875 37.203125 14.796875 27.296875 
z
" id="DejaVuSans-100"/>
       <path d="M 9.421875 54.6875 
L 18.40625 54.6875 
L 18.40625 0 
L 9.421875 0 
z
M 9.421875 75.984375 
L 18.40625 75.984375 
L 18.40625 64.59375 
L 9.421875 64.59375 
z
" id="DejaVuSans-105"/>
       <path d="M 54.890625 33.015625 
L 54.890625 0 
L 45.90625 0 
L 45.90625 32.71875 
Q 45.90625 40.484375 42.875 44.328125 
Q 39.84375 48.1875 33.796875 48.1875 
Q 26.515625 48.1875 22.3125 43.546875 
Q 18.109375 38.921875 18.109375 30.90625 
L 18.109375 0 
L 9.078125 0 
L 9.078125 54.6875 
L 18.109375 54.6875 
L 18.109375 46.1875 
Q 21.34375 51.125 25.703125 53.5625 
Q 30.078125 56 35.796875 56 
Q 45.21875 56 50.046875 50.171875 
Q 54.890625 44.34375 54.890625 33.015625 
z
" id="DejaVuSans-110"/>
       <path d="M 45.40625 27.984375 
Q 45.40625 37.75 41.375 43.109375 
Q 37.359375 48.484375 30.078125 48.484375 
Q 22.859375 48.484375 18.828125 43.109375 
Q 14.796875 37.75 14.796875 27.984375 
Q 14.796875 18.265625 18.828125 12.890625 
Q 22.859375 7.515625 30.078125 7.515625 
Q 37.359375 7.515625 41.375 12.890625 
Q 45.40625 18.265625 45.40625 27.984375 
z
M 54.390625 6.78125 
Q 54.390625 -7.171875 48.1875 -13.984375 
Q 42 -20.796875 29.203125 -20.796875 
Q 24.46875 -20.796875 20.265625 -20.09375 
Q 16.0625 -19.390625 12.109375 -17.921875 
L 12.109375 -9.1875 
Q 16.0625 -11.328125 19.921875 -12.34375 
Q 23.78125 -13.375 27.78125 -13.375 
Q 36.625 -13.375 41.015625 -8.765625 
Q 45.40625 -4.15625 45.40625 5.171875 
L 45.40625 9.625 
Q 42.625 4.78125 38.28125 2.390625 
Q 33.9375 0 27.875 0 
Q 17.828125 0 11.671875 7.65625 
Q 5.515625 15.328125 5.515625 27.984375 
Q 5.515625 40.671875 11.671875 48.328125 
Q 17.828125 56 27.875 56 
Q 33.9375 56 38.28125 53.609375 
Q 42.625 51.21875 45.40625 46.390625 
L 45.40625 54.6875 
L 54.390625 54.6875 
z
" id="DejaVuSans-103"/>
       <path id="DejaVuSans-32"/>
       <path d="M 34.1875 63.1875 
L 20.796875 26.90625 
L 47.609375 26.90625 
z
M 28.609375 72.90625 
L 39.796875 72.90625 
L 67.578125 0 
L 57.328125 0 
L 50.6875 18.703125 
L 17.828125 18.703125 
L 11.1875 0 
L 0.78125 0 
z
" id="DejaVuSans-65"/>
       <path d="M 48.78125 52.59375 
L 48.78125 44.1875 
Q 44.96875 46.296875 41.140625 47.34375 
Q 37.3125 48.390625 33.40625 48.390625 
Q 24.65625 48.390625 19.8125 42.84375 
Q 14.984375 37.3125 14.984375 27.296875 
Q 14.984375 17.28125 19.8125 11.734375 
Q 24.65625 6.203125 33.40625 6.203125 
Q 37.3125 6.203125 41.140625 7.25 
Q 44.96875 8.296875 48.78125 10.40625 
L 48.78125 2.09375 
Q 45.015625 0.34375 40.984375 -0.53125 
Q 36.96875 -1.421875 32.421875 -1.421875 
Q 20.0625 -1.421875 12.78125 6.34375 
Q 5.515625 14.109375 5.515625 27.296875 
Q 5.515625 40.671875 12.859375 48.328125 
Q 20.21875 56 33.015625 56 
Q 37.15625 56 41.109375 55.140625 
Q 45.0625 54.296875 48.78125 52.59375 
z
" id="DejaVuSans-99"/>
       <path d="M 8.5 21.578125 
L 8.5 54.6875 
L 17.484375 54.6875 
L 17.484375 21.921875 
Q 17.484375 14.15625 20.5 10.265625 
Q 23.53125 6.390625 29.59375 6.390625 
Q 36.859375 6.390625 41.078125 11.03125 
Q 45.3125 15.671875 45.3125 23.6875 
L 45.3125 54.6875 
L 54.296875 54.6875 
L 54.296875 0 
L 45.3125 0 
L 45.3125 8.40625 
Q 42.046875 3.421875 37.71875 1 
Q 33.40625 -1.421875 27.6875 -1.421875 
Q 18.265625 -1.421875 13.375 4.4375 
Q 8.5 10.296875 8.5 21.578125 
z
M 31.109375 56 
z
" id="DejaVuSans-117"/>
       <path d="M 41.109375 46.296875 
Q 39.59375 47.171875 37.8125 47.578125 
Q 36.03125 48 33.890625 48 
Q 26.265625 48 22.1875 43.046875 
Q 18.109375 38.09375 18.109375 28.8125 
L 18.109375 0 
L 9.078125 0 
L 9.078125 54.6875 
L 18.109375 54.6875 
L 18.109375 46.1875 
Q 20.953125 51.171875 25.484375 53.578125 
Q 30.03125 56 36.53125 56 
Q 37.453125 56 38.578125 55.875 
Q 39.703125 55.765625 41.0625 55.515625 
z
" id="DejaVuSans-114"/>
      </defs>
      <use xlink:href="#DejaVuSans-72"/>
      <use x="75.195312" xlink:href="#DejaVuSans-101"/>
      <use x="136.71875" xlink:href="#DejaVuSans-97"/>
      <use x="197.998047" xlink:href="#DejaVuSans-100"/>
      <use x="261.474609" xlink:href="#DejaVuSans-105"/>
      <use x="289.257812" xlink:href="#DejaVuSans-110"/>
      <use x="352.636719" xlink:href="#DejaVuSans-103"/>
      <use x="416.113281" xlink:href="#DejaVuSans-32"/>
      <use x="447.900391" xlink:href="#DejaVuSans-65"/>
      <use x="514.558594" xlink:href="#DejaVuSans-99"/>
      <use x="569.539062" xlink:href="#DejaVuSans-99"/>
      <use x="624.519531" xlink:href="#DejaVuSans-117"/>
      <use x="687.898438" xlink:href="#DejaVuSans-114"/>
      <use x="729.011719" xlink:href="#DejaVuSans-97"/>
      <use x="790.291016" xlink:href="#DejaVuSans-99"/>
      <use x="845.271484" xlink:href="#DejaVuSans-121"/>
     </g>
    </g>
   </g>
   <g id="PolyCollection_1">
    <defs>
     <path d="M 192.814203 -94.295797 
L 192.805797 -94.295797 
L 192.800258 -98.819497 
L 192.791286 -103.343196 
L 192.779509 -107.866895 
L 192.766244 -112.390594 
L 192.752027 -116.914293 
L 192.736356 -121.437993 
L 192.719267 -125.961692 
L 192.702191 -130.485391 
L 192.68647 -135.00909 
L 192.671171 -139.532789 
L 192.651614 -144.056488 
L 192.619304 -148.580188 
L 192.565829 -153.103887 
L 192.490247 -157.627586 
L 192.401272 -162.151285 
L 192.30682 -166.674984 
L 192.198939 -171.198684 
L 192.051801 -175.722383 
L 191.837541 -180.246082 
L 191.542443 -184.769781 
L 191.162411 -189.29348 
L 190.679665 -193.81718 
L 190.049378 -198.340879 
L 189.223058 -202.864578 
L 188.197408 -207.388277 
L 187.041853 -211.911976 
L 185.870431 -216.435675 
L 184.773797 -220.959375 
L 183.761288 -225.483074 
L 182.753393 -230.006773 
L 181.628369 -234.530472 
L 180.293648 -239.054171 
L 178.743125 -243.577871 
L 177.070086 -248.10157 
L 175.419893 -252.625269 
L 173.902002 -257.148968 
L 172.531557 -261.672667 
L 171.256352 -266.196366 
L 170.029661 -270.720066 
L 168.848892 -275.243765 
L 167.746537 -279.767464 
L 166.761295 -284.291163 
L 165.901624 -288.814862 
L 165.13849 -293.338562 
L 164.467031 -297.862261 
L 163.969233 -302.38596 
L 163.763497 -306.909659 
L 163.874916 -311.433358 
L 164.181035 -315.957057 
L 164.487771 -320.480757 
L 164.647965 -325.004456 
L 164.640276 -329.528155 
L 164.571884 -334.051854 
L 164.580928 -338.575553 
L 164.711139 -343.099253 
L 164.923645 -347.622952 
L 165.254461 -352.146651 
L 165.891395 -356.67035 
L 167.031063 -361.194049 
L 168.674308 -365.717748 
L 170.58588 -370.241448 
L 172.445934 -374.765147 
L 174.051817 -379.288846 
L 175.415058 -383.812545 
L 176.6884 -388.336244 
L 177.996557 -392.859944 
L 179.336848 -397.383643 
L 180.641714 -401.907342 
L 181.903009 -406.431041 
L 183.187802 -410.95474 
L 184.533438 -415.478439 
L 185.872399 -420.002139 
L 187.079963 -424.525838 
L 188.073193 -429.049537 
L 188.85331 -433.573236 
L 189.476371 -438.096935 
L 190.003263 -442.620635 
L 190.468129 -447.144334 
L 190.875715 -451.668033 
L 191.221163 -456.191732 
L 191.509271 -460.715431 
L 191.753221 -465.23913 
L 191.962378 -469.76283 
L 192.140315 -474.286529 
L 192.291362 -478.810228 
L 192.421143 -483.333927 
L 192.531706 -487.857626 
L 192.62126 -492.381326 
L 192.688328 -496.905025 
L 192.733398 -501.428724 
L 192.757724 -505.952423 
L 192.763745 -510.476122 
L 192.757645 -514.999821 
L 192.749634 -519.523521 
L 192.749283 -524.04722 
L 192.75957 -528.570919 
L 192.775951 -533.094618 
L 192.791393 -537.618317 
L 192.801779 -542.142017 
L 192.818221 -542.142017 
L 192.818221 -542.142017 
L 192.828607 -537.618317 
L 192.844049 -533.094618 
L 192.86043 -528.570919 
L 192.870717 -524.04722 
L 192.870366 -519.523521 
L 192.862355 -514.999821 
L 192.856255 -510.476122 
L 192.862276 -505.952423 
L 192.886602 -501.428724 
L 192.931672 -496.905025 
L 192.99874 -492.381326 
L 193.088294 -487.857626 
L 193.198857 -483.333927 
L 193.328638 -478.810228 
L 193.479685 -474.286529 
L 193.657622 -469.76283 
L 193.866779 -465.23913 
L 194.110729 -460.715431 
L 194.398837 -456.191732 
L 194.744285 -451.668033 
L 195.151871 -447.144334 
L 195.616737 -442.620635 
L 196.143629 -438.096935 
L 196.76669 -433.573236 
L 197.546807 -429.049537 
L 198.540037 -424.525838 
L 199.747601 -420.002139 
L 201.086562 -415.478439 
L 202.432198 -410.95474 
L 203.716991 -406.431041 
L 204.978286 -401.907342 
L 206.283152 -397.383643 
L 207.623443 -392.859944 
L 208.9316 -388.336244 
L 210.204942 -383.812545 
L 211.568183 -379.288846 
L 213.174066 -374.765147 
L 215.03412 -370.241448 
L 216.945692 -365.717748 
L 218.588937 -361.194049 
L 219.728605 -356.67035 
L 220.365539 -352.146651 
L 220.696355 -347.622952 
L 220.908861 -343.099253 
L 221.039072 -338.575553 
L 221.048116 -334.051854 
L 220.979724 -329.528155 
L 220.972035 -325.004456 
L 221.132229 -320.480757 
L 221.438965 -315.957057 
L 221.745084 -311.433358 
L 221.856503 -306.909659 
L 221.650767 -302.38596 
L 221.152969 -297.862261 
L 220.48151 -293.338562 
L 219.718376 -288.814862 
L 218.858705 -284.291163 
L 217.873463 -279.767464 
L 216.771108 -275.243765 
L 215.590339 -270.720066 
L 214.363648 -266.196366 
L 213.088443 -261.672667 
L 211.717998 -257.148968 
L 210.200107 -252.625269 
L 208.549914 -248.10157 
L 206.876875 -243.577871 
L 205.326352 -239.054171 
L 203.991631 -234.530472 
L 202.866607 -230.006773 
L 201.858712 -225.483074 
L 200.846203 -220.959375 
L 199.749569 -216.435675 
L 198.578147 -211.911976 
L 197.422592 -207.388277 
L 196.396942 -202.864578 
L 195.570622 -198.340879 
L 194.940335 -193.81718 
L 194.457589 -189.29348 
L 194.077557 -184.769781 
L 193.782459 -180.246082 
L 193.568199 -175.722383 
L 193.421061 -171.198684 
L 193.31318 -166.674984 
L 193.218728 -162.151285 
L 193.129753 -157.627586 
L 193.054171 -153.103887 
L 193.000696 -148.580188 
L 192.968386 -144.056488 
L 192.948829 -139.532789 
L 192.93353 -135.00909 
L 192.917809 -130.485391 
L 192.900733 -125.961692 
L 192.883644 -121.437993 
L 192.867973 -116.914293 
L 192.853756 -112.390594 
L 192.840491 -107.866895 
L 192.828714 -103.343196 
L 192.819742 -98.819497 
L 192.814203 -94.295797 
z
" id="mc517abba2d" style="stroke:#4c4c4c;stroke-width:1.5;"/>
    </defs>
    <g clip-path="url(#p8bd97cffd5)">
     <use style="fill:#5875a4;stroke:#4c4c4c;stroke-width:1.5;" x="0" xlink:href="#mc517abba2d" y="593.759688"/>
    </g>
   </g>
   <g id="PolyCollection_2">
    <defs>
     <path d="M 471.817018 -132.217107 
L 471.802982 -132.217107 
L 471.796216 -136.556839 
L 471.786186 -140.896571 
L 471.773562 -145.236303 
L 471.759933 -149.576035 
L 471.746637 -153.915768 
L 471.733068 -158.2555 
L 471.715826 -162.595232 
L 471.68967 -166.934964 
L 471.649776 -171.274697 
L 471.593688 -175.614429 
L 471.521791 -179.954161 
L 471.436572 -184.293893 
L 471.341511 -188.633625 
L 471.239978 -192.973358 
L 471.133877 -197.31309 
L 471.022103 -201.652822 
L 470.899546 -205.992554 
L 470.757554 -210.332287 
L 470.586421 -214.672019 
L 470.379606 -219.011751 
L 470.137692 -223.351483 
L 469.868391 -227.691215 
L 469.580424 -232.030948 
L 469.275019 -236.37068 
L 468.943587 -240.710412 
L 468.576338 -245.050144 
L 468.175329 -249.389877 
L 467.758785 -253.729609 
L 467.350405 -258.069341 
L 466.961741 -262.409073 
L 466.582413 -266.748805 
L 466.18522 -271.088538 
L 465.740054 -275.42827 
L 465.225302 -279.768002 
L 464.631463 -284.107734 
L 463.959995 -288.447467 
L 463.221605 -292.787199 
L 462.433047 -297.126931 
L 461.608488 -301.466663 
L 460.746636 -305.806395 
L 459.823013 -310.146128 
L 458.79696 -314.48586 
L 457.631884 -318.825592 
L 456.315431 -323.165324 
L 454.866163 -327.505057 
L 453.324624 -331.844789 
L 451.738954 -336.184521 
L 450.158643 -340.524253 
L 448.640474 -344.863985 
L 447.253077 -349.203718 
L 446.059302 -353.54345 
L 445.075959 -357.883182 
L 444.244051 -362.222914 
L 443.448102 -366.562647 
L 442.583931 -370.902379 
L 441.62779 -375.242111 
L 440.65637 -379.581843 
L 439.809675 -383.921575 
L 439.232334 -388.261308 
L 439.03411 -392.60104 
L 439.280139 -396.940772 
L 439.991141 -401.280504 
L 441.133308 -405.620237 
L 442.602854 -409.959969 
L 444.230096 -414.299701 
L 445.819174 -418.639433 
L 447.21218 -422.979165 
L 448.346986 -427.318898 
L 449.27925 -431.65863 
L 450.155334 -435.998362 
L 451.146012 -440.338094 
L 452.372576 -444.677827 
L 453.862787 -449.017559 
L 455.554885 -453.357291 
L 457.336714 -457.697023 
L 459.0909 -462.036755 
L 460.72581 -466.376488 
L 462.18958 -470.71622 
L 463.472205 -475.055952 
L 464.59842 -479.395684 
L 465.611877 -483.735417 
L 466.553807 -488.075149 
L 467.443607 -492.414881 
L 468.270162 -496.754613 
L 468.998869 -501.094345 
L 469.591278 -505.434078 
L 470.02722 -509.77381 
L 470.318096 -514.113542 
L 470.505027 -518.453274 
L 470.643259 -522.793007 
L 470.780869 -527.132739 
L 470.9426 -531.472471 
L 471.126472 -535.812203 
L 471.31287 -540.151935 
L 471.478791 -544.491668 
L 471.608858 -548.8314 
L 471.699119 -553.171132 
L 471.75475 -557.510864 
L 471.785226 -561.850597 
L 471.834774 -561.850597 
L 471.834774 -561.850597 
L 471.86525 -557.510864 
L 471.920881 -553.171132 
L 472.011142 -548.8314 
L 472.141209 -544.491668 
L 472.30713 -540.151935 
L 472.493528 -535.812203 
L 472.6774 -531.472471 
L 472.839131 -527.132739 
L 472.976741 -522.793007 
L 473.114973 -518.453274 
L 473.301904 -514.113542 
L 473.59278 -509.77381 
L 474.028722 -505.434078 
L 474.621131 -501.094345 
L 475.349838 -496.754613 
L 476.176393 -492.414881 
L 477.066193 -488.075149 
L 478.008123 -483.735417 
L 479.02158 -479.395684 
L 480.147795 -475.055952 
L 481.43042 -470.71622 
L 482.89419 -466.376488 
L 484.5291 -462.036755 
L 486.283286 -457.697023 
L 488.065115 -453.357291 
L 489.757213 -449.017559 
L 491.247424 -444.677827 
L 492.473988 -440.338094 
L 493.464666 -435.998362 
L 494.34075 -431.65863 
L 495.273014 -427.318898 
L 496.40782 -422.979165 
L 497.800826 -418.639433 
L 499.389904 -414.299701 
L 501.017146 -409.959969 
L 502.486692 -405.620237 
L 503.628859 -401.280504 
L 504.339861 -396.940772 
L 504.58589 -392.60104 
L 504.387666 -388.261308 
L 503.810325 -383.921575 
L 502.96363 -379.581843 
L 501.99221 -375.242111 
L 501.036069 -370.902379 
L 500.171898 -366.562647 
L 499.375949 -362.222914 
L 498.544041 -357.883182 
L 497.560698 -353.54345 
L 496.366923 -349.203718 
L 494.979526 -344.863985 
L 493.461357 -340.524253 
L 491.881046 -336.184521 
L 490.295376 -331.844789 
L 488.753837 -327.505057 
L 487.304569 -323.165324 
L 485.988116 -318.825592 
L 484.82304 -314.48586 
L 483.796987 -310.146128 
L 482.873364 -305.806395 
L 482.011512 -301.466663 
L 481.186953 -297.126931 
L 480.398395 -292.787199 
L 479.660005 -288.447467 
L 478.988537 -284.107734 
L 478.394698 -279.768002 
L 477.879946 -275.42827 
L 477.43478 -271.088538 
L 477.037587 -266.748805 
L 476.658259 -262.409073 
L 476.269595 -258.069341 
L 475.861215 -253.729609 
L 475.444671 -249.389877 
L 475.043662 -245.050144 
L 474.676413 -240.710412 
L 474.344981 -236.37068 
L 474.039576 -232.030948 
L 473.751609 -227.691215 
L 473.482308 -223.351483 
L 473.240394 -219.011751 
L 473.033579 -214.672019 
L 472.862446 -210.332287 
L 472.720454 -205.992554 
L 472.597897 -201.652822 
L 472.486123 -197.31309 
L 472.380022 -192.973358 
L 472.278489 -188.633625 
L 472.183428 -184.293893 
L 472.098209 -179.954161 
L 472.026312 -175.614429 
L 471.970224 -171.274697 
L 471.93033 -166.934964 
L 471.904174 -162.595232 
L 471.886932 -158.2555 
L 471.873363 -153.915768 
L 471.860067 -149.576035 
L 471.846438 -145.236303 
L 471.833814 -140.896571 
L 471.823784 -136.556839 
L 471.817018 -132.217107 
z
" id="mfb5d3c1fe2" style="stroke:#4c4c4c;stroke-width:1.5;"/>
    </defs>
    <g clip-path="url(#p8bd97cffd5)">
     <use style="fill:#cc8963;stroke:#4c4c4c;stroke-width:1.5;" x="0" xlink:href="#mfb5d3c1fe2" y="593.759688"/>
    </g>
   </g>
   <g id="PolyCollection_3">
    <defs>
     <path d="M 750.816549 -147.061729 
L 750.803451 -147.061729 
L 750.795021 -151.154489 
L 750.780857 -155.24725 
L 750.761317 -159.340011 
L 750.739094 -163.432772 
L 750.717776 -167.525533 
L 750.69948 -171.618294 
L 750.684325 -175.711055 
L 750.672652 -179.803816 
L 750.666987 -183.896576 
L 750.670562 -187.989337 
L 750.683375 -192.082098 
L 750.699661 -196.174859 
L 750.708665 -200.26762 
L 750.697905 -204.360381 
L 750.657636 -208.453142 
L 750.584584 -212.545903 
L 750.481732 -216.638663 
L 750.353214 -220.731424 
L 750.19871 -224.824185 
L 750.012162 -228.916946 
L 749.783336 -233.009707 
L 749.498083 -237.102468 
L 749.138721 -241.195229 
L 748.68947 -245.28799 
L 748.14593 -249.380751 
L 747.520778 -253.473511 
L 746.840548 -257.566272 
L 746.137379 -261.659033 
L 745.443885 -265.751794 
L 744.793149 -269.844555 
L 744.215751 -273.937316 
L 743.723954 -278.030077 
L 743.28448 -282.122838 
L 742.800493 -286.215598 
L 742.135656 -290.308359 
L 741.191315 -294.40112 
L 739.987029 -298.493881 
L 738.658081 -302.586642 
L 737.347469 -306.679403 
L 736.089271 -310.772164 
L 734.804541 -314.864925 
L 733.40877 -318.957685 
L 731.907751 -323.050446 
L 730.386923 -327.143207 
L 728.926096 -331.235968 
L 727.532569 -335.328729 
L 726.138471 -339.42149 
L 724.650466 -343.514251 
L 723.026698 -347.607012 
L 721.344054 -351.699772 
L 719.799569 -355.792533 
L 718.620152 -359.885294 
L 717.934629 -363.978055 
L 717.705841 -368.070816 
L 717.775087 -372.163577 
L 717.978329 -376.256338 
L 718.241233 -380.349099 
L 718.591306 -384.441859 
L 719.094866 -388.53462 
L 719.770154 -392.627381 
L 720.538854 -396.720142 
L 721.261449 -400.812903 
L 721.842314 -404.905664 
L 722.323211 -408.998425 
L 722.883506 -413.091186 
L 723.738272 -417.183946 
L 725.003169 -421.276707 
L 726.622195 -425.369468 
L 728.413077 -429.462229 
L 730.192784 -433.55499 
L 731.876708 -437.647751 
L 733.478107 -441.740512 
L 735.039035 -445.833273 
L 736.577077 -449.926033 
L 738.082476 -454.018794 
L 739.534223 -458.111555 
L 740.905569 -462.204316 
L 742.16607 -466.297077 
L 743.292778 -470.389838 
L 744.284463 -474.482599 
L 745.167068 -478.57536 
L 745.985173 -482.66812 
L 746.779991 -486.760881 
L 747.563929 -490.853642 
L 748.311197 -494.946403 
L 748.975081 -499.039164 
L 749.517805 -503.131925 
L 749.927688 -507.224686 
L 750.214888 -511.317447 
L 750.39924 -515.410207 
L 750.504611 -519.502968 
L 750.55891 -523.595729 
L 750.591119 -527.68849 
L 750.623312 -531.781251 
L 750.664059 -535.874012 
L 750.709319 -539.966773 
L 750.749904 -544.059534 
L 750.779296 -548.152294 
L 750.796659 -552.245055 
L 750.823341 -552.245055 
L 750.823341 -552.245055 
L 750.840704 -548.152294 
L 750.870096 -544.059534 
L 750.910681 -539.966773 
L 750.955941 -535.874012 
L 750.996688 -531.781251 
L 751.028881 -527.68849 
L 751.06109 -523.595729 
L 751.115389 -519.502968 
L 751.22076 -515.410207 
L 751.405112 -511.317447 
L 751.692312 -507.224686 
L 752.102195 -503.131925 
L 752.644919 -499.039164 
L 753.308803 -494.946403 
L 754.056071 -490.853642 
L 754.840009 -486.760881 
L 755.634827 -482.66812 
L 756.452932 -478.57536 
L 757.335537 -474.482599 
L 758.327222 -470.389838 
L 759.45393 -466.297077 
L 760.714431 -462.204316 
L 762.085777 -458.111555 
L 763.537524 -454.018794 
L 765.042923 -449.926033 
L 766.580965 -445.833273 
L 768.141893 -441.740512 
L 769.743292 -437.647751 
L 771.427216 -433.55499 
L 773.206923 -429.462229 
L 774.997805 -425.369468 
L 776.616831 -421.276707 
L 777.881728 -417.183946 
L 778.736494 -413.091186 
L 779.296789 -408.998425 
L 779.777686 -404.905664 
L 780.358551 -400.812903 
L 781.081146 -396.720142 
L 781.849846 -392.627381 
L 782.525134 -388.53462 
L 783.028694 -384.441859 
L 783.378767 -380.349099 
L 783.641671 -376.256338 
L 783.844913 -372.163577 
L 783.914159 -368.070816 
L 783.685371 -363.978055 
L 782.999848 -359.885294 
L 781.820431 -355.792533 
L 780.275946 -351.699772 
L 778.593302 -347.607012 
L 776.969534 -343.514251 
L 775.481529 -339.42149 
L 774.087431 -335.328729 
L 772.693904 -331.235968 
L 771.233077 -327.143207 
L 769.712249 -323.050446 
L 768.21123 -318.957685 
L 766.815459 -314.864925 
L 765.530729 -310.772164 
L 764.272531 -306.679403 
L 762.961919 -302.586642 
L 761.632971 -298.493881 
L 760.428685 -294.40112 
L 759.484344 -290.308359 
L 758.819507 -286.215598 
L 758.33552 -282.122838 
L 757.896046 -278.030077 
L 757.404249 -273.937316 
L 756.826851 -269.844555 
L 756.176115 -265.751794 
L 755.482621 -261.659033 
L 754.779452 -257.566272 
L 754.099222 -253.473511 
L 753.47407 -249.380751 
L 752.93053 -245.28799 
L 752.481279 -241.195229 
L 752.121917 -237.102468 
L 751.836664 -233.009707 
L 751.607838 -228.916946 
L 751.42129 -224.824185 
L 751.266786 -220.731424 
L 751.138268 -216.638663 
L 751.035416 -212.545903 
L 750.962364 -208.453142 
L 750.922095 -204.360381 
L 750.911335 -200.26762 
L 750.920339 -196.174859 
L 750.936625 -192.082098 
L 750.949438 -187.989337 
L 750.953013 -183.896576 
L 750.947348 -179.803816 
L 750.935675 -175.711055 
L 750.92052 -171.618294 
L 750.902224 -167.525533 
L 750.880906 -163.432772 
L 750.858683 -159.340011 
L 750.839143 -155.24725 
L 750.824979 -151.154489 
L 750.816549 -147.061729 
z
" id="m2604e072d7" style="stroke:#4c4c4c;stroke-width:1.5;"/>
    </defs>
    <g clip-path="url(#p8bd97cffd5)">
     <use style="fill:#5f9e6e;stroke:#4c4c4c;stroke-width:1.5;" x="0" xlink:href="#m2604e072d7" y="593.759688"/>
    </g>
   </g>
   <g id="PolyCollection_4">
    <defs>
     <path d="M 1029.848284 -67.668778 
L 1029.771716 -67.668778 
L 1029.72571 -69.661037 
L 1029.649427 -71.653295 
L 1029.539499 -73.645553 
L 1029.392545 -75.637812 
L 1029.191161 -77.63007 
L 1028.889941 -79.622328 
L 1028.417902 -81.614586 
L 1027.702034 -83.606845 
L 1026.693962 -85.599103 
L 1025.366557 -87.591361 
L 1023.645417 -89.583619 
L 1021.259346 -91.575878 
L 1017.574245 -93.568136 
L 1011.609283 -95.560394 
L 1002.443234 -97.552653 
L 989.905201 -99.544911 
L 975.019203 -101.537169 
L 959.719529 -103.529427 
L 945.994871 -105.521686 
L 935.118227 -107.513944 
L 927.406122 -109.506202 
L 922.450071 -111.498461 
L 919.562246 -113.490719 
L 918.21 -115.482977 
L 918.258009 -117.475235 
L 919.930168 -119.467494 
L 923.562577 -121.459752 
L 929.314141 -123.45201 
L 936.969142 -125.444268 
L 945.909278 -127.436527 
L 955.289718 -129.428785 
L 964.32903 -131.421043 
L 972.503065 -133.413302 
L 979.522729 -135.40556 
L 985.199577 -137.397818 
L 989.394817 -139.390076 
L 992.111719 -141.382335 
L 993.59576 -143.374593 
L 994.289529 -145.366851 
L 994.671982 -147.359109 
L 995.153536 -149.351368 
L 996.110253 -151.343626 
L 997.935461 -153.335884 
L 1000.932546 -155.328143 
L 1005.065196 -157.320401 
L 1009.817201 -159.312659 
L 1014.378281 -161.304917 
L 1018.049237 -163.297176 
L 1020.537213 -165.289434 
L 1021.956152 -167.281692 
L 1022.62838 -169.273951 
L 1022.876533 -171.266209 
L 1022.912359 -173.258467 
L 1022.840869 -175.250725 
L 1022.74544 -177.242984 
L 1022.768743 -179.235242 
L 1023.095235 -181.2275 
L 1023.82924 -183.219758 
L 1024.884272 -185.212017 
L 1026.00666 -187.204275 
L 1026.922259 -189.196533 
L 1027.478831 -191.188792 
L 1027.687305 -193.18105 
L 1027.669892 -195.173308 
L 1027.573856 -197.165566 
L 1027.499827 -199.157825 
L 1027.476504 -201.150083 
L 1027.491051 -203.142341 
L 1027.543383 -205.1346 
L 1027.669299 -207.126858 
L 1027.909923 -209.119116 
L 1028.263602 -211.111374 
L 1028.673395 -213.103633 
L 1029.060517 -215.095891 
L 1029.367564 -217.088149 
L 1029.576652 -219.080407 
L 1029.700564 -221.072666 
L 1029.764725 -223.064924 
L 1029.793638 -225.057182 
L 1029.804885 -227.049441 
L 1029.808629 -229.041699 
L 1029.809686 -231.033957 
L 1029.809934 -233.026215 
L 1029.809959 -235.018474 
L 1029.809832 -237.010732 
L 1029.809242 -239.00299 
L 1029.807105 -240.995249 
L 1029.800704 -242.987507 
L 1029.784915 -244.979765 
L 1029.753121 -246.972023 
L 1029.701625 -248.964282 
L 1029.636482 -250.95654 
L 1029.576549 -252.948798 
L 1029.546072 -254.941056 
L 1029.559266 -256.933315 
L 1029.60984 -258.925573 
L 1029.675731 -260.917831 
L 1029.734314 -262.91009 
L 1029.77415 -264.902348 
L 1029.84585 -264.902348 
L 1029.84585 -264.902348 
L 1029.885686 -262.91009 
L 1029.944269 -260.917831 
L 1030.01016 -258.925573 
L 1030.060734 -256.933315 
L 1030.073928 -254.941056 
L 1030.043451 -252.948798 
L 1029.983518 -250.95654 
L 1029.918375 -248.964282 
L 1029.866879 -246.972023 
L 1029.835085 -244.979765 
L 1029.819296 -242.987507 
L 1029.812895 -240.995249 
L 1029.810758 -239.00299 
L 1029.810168 -237.010732 
L 1029.810041 -235.018474 
L 1029.810066 -233.026215 
L 1029.810314 -231.033957 
L 1029.811371 -229.041699 
L 1029.815115 -227.049441 
L 1029.826362 -225.057182 
L 1029.855275 -223.064924 
L 1029.919436 -221.072666 
L 1030.043348 -219.080407 
L 1030.252436 -217.088149 
L 1030.559483 -215.095891 
L 1030.946605 -213.103633 
L 1031.356398 -211.111374 
L 1031.710077 -209.119116 
L 1031.950701 -207.126858 
L 1032.076617 -205.1346 
L 1032.128949 -203.142341 
L 1032.143496 -201.150083 
L 1032.120173 -199.157825 
L 1032.046144 -197.165566 
L 1031.950108 -195.173308 
L 1031.932695 -193.18105 
L 1032.141169 -191.188792 
L 1032.697741 -189.196533 
L 1033.61334 -187.204275 
L 1034.735728 -185.212017 
L 1035.79076 -183.219758 
L 1036.524765 -181.2275 
L 1036.851257 -179.235242 
L 1036.87456 -177.242984 
L 1036.779131 -175.250725 
L 1036.707641 -173.258467 
L 1036.743467 -171.266209 
L 1036.99162 -169.273951 
L 1037.663848 -167.281692 
L 1039.082787 -165.289434 
L 1041.570763 -163.297176 
L 1045.241719 -161.304917 
L 1049.802799 -159.312659 
L 1054.554804 -157.320401 
L 1058.687454 -155.328143 
L 1061.684539 -153.335884 
L 1063.509747 -151.343626 
L 1064.466464 -149.351368 
L 1064.948018 -147.359109 
L 1065.330471 -145.366851 
L 1066.02424 -143.374593 
L 1067.508281 -141.382335 
L 1070.225183 -139.390076 
L 1074.420423 -137.397818 
L 1080.097271 -135.40556 
L 1087.116935 -133.413302 
L 1095.29097 -131.421043 
L 1104.330282 -129.428785 
L 1113.710722 -127.436527 
L 1122.650858 -125.444268 
L 1130.305859 -123.45201 
L 1136.057423 -121.459752 
L 1139.689832 -119.467494 
L 1141.361991 -117.475235 
L 1141.41 -115.482977 
L 1140.057754 -113.490719 
L 1137.169929 -111.498461 
L 1132.213878 -109.506202 
L 1124.501773 -107.513944 
L 1113.625129 -105.521686 
L 1099.900471 -103.529427 
L 1084.600797 -101.537169 
L 1069.714799 -99.544911 
L 1057.176766 -97.552653 
L 1048.010717 -95.560394 
L 1042.045755 -93.568136 
L 1038.360654 -91.575878 
L 1035.974583 -89.583619 
L 1034.253443 -87.591361 
L 1032.926038 -85.599103 
L 1031.917966 -83.606845 
L 1031.202098 -81.614586 
L 1030.730059 -79.622328 
L 1030.428839 -77.63007 
L 1030.227455 -75.637812 
L 1030.080501 -73.645553 
L 1029.970573 -71.653295 
L 1029.89429 -69.661037 
L 1029.848284 -67.668778 
z
" id="m968ed7d99f" style="stroke:#4c4c4c;stroke-width:1.5;"/>
    </defs>
    <g clip-path="url(#p8bd97cffd5)">
     <use style="fill:#b55d60;stroke:#4c4c4c;stroke-width:1.5;" x="0" xlink:href="#m968ed7d99f" y="593.759688"/>
    </g>
   </g>
   <g id="line2d_7">
    <path clip-path="url(#p8bd97cffd5)" d="M 192.81 427.474124 
L 192.81 118.368356 
" style="fill:none;stroke:#4c4c4c;stroke-linecap:round;stroke-width:1.5;"/>
   </g>
   <g id="line2d_8">
    <path clip-path="url(#p8bd97cffd5)" d="M 192.81 312.214346 
L 192.81 233.628134 
" style="fill:none;stroke:#4c4c4c;stroke-linecap:round;stroke-width:4.5;"/>
   </g>
   <g id="line2d_9">
    <path clip-path="url(#p8bd97cffd5)" d="M 471.81 359.366074 
L 471.81 65.977548 
" style="fill:none;stroke:#4c4c4c;stroke-linecap:round;stroke-width:1.5;"/>
   </g>
   <g id="line2d_10">
    <path clip-path="url(#p8bd97cffd5)" d="M 471.81 249.345376 
L 471.81 175.998245 
" style="fill:none;stroke:#4c4c4c;stroke-linecap:round;stroke-width:4.5;"/>
   </g>
   <g id="line2d_11">
    <path clip-path="url(#p8bd97cffd5)" d="M 750.81 364.605154 
L 750.81 71.216628 
" style="fill:none;stroke:#4c4c4c;stroke-linecap:round;stroke-width:1.5;"/>
   </g>
   <g id="line2d_12">
    <path clip-path="url(#p8bd97cffd5)" d="M 750.81 254.584457 
L 750.81 181.237326 
" style="fill:none;stroke:#4c4c4c;stroke-linecap:round;stroke-width:4.5;"/>
   </g>
   <g id="line2d_13">
    <path clip-path="url(#p8bd97cffd5)" d="M 1029.81 516.538498 
L 1029.81 422.235044 
" style="fill:none;stroke:#4c4c4c;stroke-linecap:round;stroke-width:1.5;"/>
   </g>
   <g id="line2d_14">
    <path clip-path="url(#p8bd97cffd5)" d="M 1029.81 485.104013 
L 1029.81 458.908609 
" style="fill:none;stroke:#4c4c4c;stroke-linecap:round;stroke-width:4.5;"/>
   </g>
   <g id="patch_3">
    <path d="M 53.31 550.8 
L 53.31 7.2 
" style="fill:none;stroke:#ffffff;stroke-linecap:square;stroke-linejoin:miter;stroke-width:1.25;"/>
   </g>
   <g id="patch_4">
    <path d="M 1169.31 550.8 
L 1169.31 7.2 
" style="fill:none;stroke:#ffffff;stroke-linecap:square;stroke-linejoin:miter;stroke-width:1.25;"/>
   </g>
   <g id="patch_5">
    <path d="M 53.31 550.8 
L 1169.31 550.8 
" style="fill:none;stroke:#ffffff;stroke-linecap:square;stroke-linejoin:miter;stroke-width:1.25;"/>
   </g>
   <g id="patch_6">
    <path d="M 53.31 7.2 
L 1169.31 7.2 
" style="fill:none;stroke:#ffffff;stroke-linecap:square;stroke-linejoin:miter;stroke-width:1.25;"/>
   </g>
   <g id="PathCollection_1">
    <defs>
     <path d="M 0 1.5 
C 0.397805 1.5 0.77937 1.341951 1.06066 1.06066 
C 1.341951 0.77937 1.5 0.397805 1.5 0 
C 1.5 -0.397805 1.341951 -0.77937 1.06066 -1.06066 
C 0.77937 -1.341951 0.397805 -1.5 0 -1.5 
C -0.397805 -1.5 -0.77937 -1.341951 -1.06066 -1.06066 
C -1.341951 -0.77937 -1.5 -0.397805 -1.5 0 
C -1.5 0.397805 -1.341951 0.77937 -1.06066 1.06066 
C -0.77937 1.341951 -0.397805 1.5 0 1.5 
z
" id="m294d7b6712" style="stroke:#4c4c4c;"/>
    </defs>
    <g clip-path="url(#p8bd97cffd5)">
     <use style="fill:#ffffff;stroke:#4c4c4c;" x="192.81" xlink:href="#m294d7b6712" y="275.54078"/>
    </g>
   </g>
   <g id="PathCollection_2">
    <g clip-path="url(#p8bd97cffd5)">
     <use style="fill:#ffffff;stroke:#4c4c4c;" x="471.81" xlink:href="#m294d7b6712" y="207.43273"/>
    </g>
   </g>
   <g id="PathCollection_3">
    <g clip-path="url(#p8bd97cffd5)">
     <use style="fill:#ffffff;stroke:#4c4c4c;" x="750.81" xlink:href="#m294d7b6712" y="217.910891"/>
    </g>
   </g>
   <g id="PathCollection_4">
    <g clip-path="url(#p8bd97cffd5)">
     <use style="fill:#ffffff;stroke:#4c4c4c;" x="1029.81" xlink:href="#m294d7b6712" y="474.625852"/>
    </g>
   </g>
  </g>
 </g>
 <defs>
  <clipPath id="p8bd97cffd5">
   <rect height="543.6" width="1116" x="53.31" y="7.2"/>
  </clipPath>
 </defs>
</svg>
