<?xml version="1.0" encoding="utf-8" standalone="no"?>
<!DOCTYPE svg PUBLIC "-//W3C//DTD SVG 1.1//EN"
  "http://www.w3.org/Graphics/SVG/1.1/DTD/svg11.dtd">
<!-- Created with matplotlib (https://matplotlib.org/) -->
<svg height="707.739687pt" version="1.1" viewBox="0 0 1209.35125 707.739687" width="1209.35125pt" xmlns="http://www.w3.org/2000/svg" xmlns:xlink="http://www.w3.org/1999/xlink">
 <metadata>
  <rdf:RDF xmlns:cc="http://creativecommons.org/ns#" xmlns:dc="http://purl.org/dc/elements/1.1/" xmlns:rdf="http://www.w3.org/1999/02/22-rdf-syntax-ns#">
   <cc:Work>
    <dc:type rdf:resource="http://purl.org/dc/dcmitype/StillImage"/>
    <dc:date>2020-11-23T18:08:23.993515</dc:date>
    <dc:format>image/svg+xml</dc:format>
    <dc:creator>
     <cc:Agent>
      <dc:title>Matplotlib v3.3.3, https://matplotlib.org/</dc:title>
     </cc:Agent>
    </dc:creator>
   </cc:Work>
  </rdf:RDF>
 </metadata>
 <defs>
  <style type="text/css">*{stroke-linecap:butt;stroke-linejoin:round;}</style>
 </defs>
 <g id="figure_1">
  <g id="patch_1">
   <path d="M -0 707.739687 
L 1209.35125 707.739687 
L 1209.35125 0 
L -0 0 
z
" style="fill:#ffffff;"/>
  </g>
  <g id="axes_1">
   <g id="patch_2">
    <path d="M 46.31125 664.78 
L 1119.74325 664.78 
L 1119.74325 7.2 
L 46.31125 7.2 
z
" style="fill:#eaeaf2;"/>
   </g>
   <g id="matplotlib.axis_1">
    <g id="xtick_1">
     <g id="line2d_1">
      <path clip-path="url(#paa8619ac26)" d="M 163.042348 664.78 
L 163.042348 7.2 
" style="fill:none;stroke:#ffffff;stroke-linecap:round;"/>
     </g>
     <g id="text_1">
      <!-- 150 -->
      <g style="fill:#262626;" transform="translate(152.544223 682.638281)scale(0.11 -0.11)">
       <defs>
        <path d="M 12.40625 8.296875 
L 28.515625 8.296875 
L 28.515625 63.921875 
L 10.984375 60.40625 
L 10.984375 69.390625 
L 28.421875 72.90625 
L 38.28125 72.90625 
L 38.28125 8.296875 
L 54.390625 8.296875 
L 54.390625 0 
L 12.40625 0 
z
" id="DejaVuSans-49"/>
        <path d="M 10.796875 72.90625 
L 49.515625 72.90625 
L 49.515625 64.59375 
L 19.828125 64.59375 
L 19.828125 46.734375 
Q 21.96875 47.46875 24.109375 47.828125 
Q 26.265625 48.1875 28.421875 48.1875 
Q 40.625 48.1875 47.75 41.5 
Q 54.890625 34.8125 54.890625 23.390625 
Q 54.890625 11.625 47.5625 5.09375 
Q 40.234375 -1.421875 26.90625 -1.421875 
Q 22.3125 -1.421875 17.546875 -0.640625 
Q 12.796875 0.140625 7.71875 1.703125 
L 7.71875 11.625 
Q 12.109375 9.234375 16.796875 8.0625 
Q 21.484375 6.890625 26.703125 6.890625 
Q 35.15625 6.890625 40.078125 11.328125 
Q 45.015625 15.765625 45.015625 23.390625 
Q 45.015625 31 40.078125 35.4375 
Q 35.15625 39.890625 26.703125 39.890625 
Q 22.75 39.890625 18.8125 39.015625 
Q 14.890625 38.140625 10.796875 36.28125 
z
" id="DejaVuSans-53"/>
        <path d="M 31.78125 66.40625 
Q 24.171875 66.40625 20.328125 58.90625 
Q 16.5 51.421875 16.5 36.375 
Q 16.5 21.390625 20.328125 13.890625 
Q 24.171875 6.390625 31.78125 6.390625 
Q 39.453125 6.390625 43.28125 13.890625 
Q 47.125 21.390625 47.125 36.375 
Q 47.125 51.421875 43.28125 58.90625 
Q 39.453125 66.40625 31.78125 66.40625 
z
M 31.78125 74.21875 
Q 44.046875 74.21875 50.515625 64.515625 
Q 56.984375 54.828125 56.984375 36.375 
Q 56.984375 17.96875 50.515625 8.265625 
Q 44.046875 -1.421875 31.78125 -1.421875 
Q 19.53125 -1.421875 13.0625 8.265625 
Q 6.59375 17.96875 6.59375 36.375 
Q 6.59375 54.828125 13.0625 64.515625 
Q 19.53125 74.21875 31.78125 74.21875 
z
" id="DejaVuSans-48"/>
       </defs>
       <use xlink:href="#DejaVuSans-49"/>
       <use x="63.623047" xlink:href="#DejaVuSans-53"/>
       <use x="127.246094" xlink:href="#DejaVuSans-48"/>
      </g>
     </g>
    </g>
    <g id="xtick_2">
     <g id="line2d_2">
      <path clip-path="url(#paa8619ac26)" d="M 317.448562 664.78 
L 317.448562 7.2 
" style="fill:none;stroke:#ffffff;stroke-linecap:round;"/>
     </g>
     <g id="text_2">
      <!-- 200 -->
      <g style="fill:#262626;" transform="translate(306.950437 682.638281)scale(0.11 -0.11)">
       <defs>
        <path d="M 19.1875 8.296875 
L 53.609375 8.296875 
L 53.609375 0 
L 7.328125 0 
L 7.328125 8.296875 
Q 12.9375 14.109375 22.625 23.890625 
Q 32.328125 33.6875 34.8125 36.53125 
Q 39.546875 41.84375 41.421875 45.53125 
Q 43.3125 49.21875 43.3125 52.78125 
Q 43.3125 58.59375 39.234375 62.25 
Q 35.15625 65.921875 28.609375 65.921875 
Q 23.96875 65.921875 18.8125 64.3125 
Q 13.671875 62.703125 7.8125 59.421875 
L 7.8125 69.390625 
Q 13.765625 71.78125 18.9375 73 
Q 24.125 74.21875 28.421875 74.21875 
Q 39.75 74.21875 46.484375 68.546875 
Q 53.21875 62.890625 53.21875 53.421875 
Q 53.21875 48.921875 51.53125 44.890625 
Q 49.859375 40.875 45.40625 35.40625 
Q 44.1875 33.984375 37.640625 27.21875 
Q 31.109375 20.453125 19.1875 8.296875 
z
" id="DejaVuSans-50"/>
       </defs>
       <use xlink:href="#DejaVuSans-50"/>
       <use x="63.623047" xlink:href="#DejaVuSans-48"/>
       <use x="127.246094" xlink:href="#DejaVuSans-48"/>
      </g>
     </g>
    </g>
    <g id="xtick_3">
     <g id="line2d_3">
      <path clip-path="url(#paa8619ac26)" d="M 471.854776 664.78 
L 471.854776 7.2 
" style="fill:none;stroke:#ffffff;stroke-linecap:round;"/>
     </g>
     <g id="text_3">
      <!-- 250 -->
      <g style="fill:#262626;" transform="translate(461.356651 682.638281)scale(0.11 -0.11)">
       <use xlink:href="#DejaVuSans-50"/>
       <use x="63.623047" xlink:href="#DejaVuSans-53"/>
       <use x="127.246094" xlink:href="#DejaVuSans-48"/>
      </g>
     </g>
    </g>
    <g id="xtick_4">
     <g id="line2d_4">
      <path clip-path="url(#paa8619ac26)" d="M 626.26099 664.78 
L 626.26099 7.2 
" style="fill:none;stroke:#ffffff;stroke-linecap:round;"/>
     </g>
     <g id="text_4">
      <!-- 300 -->
      <g style="fill:#262626;" transform="translate(615.762865 682.638281)scale(0.11 -0.11)">
       <defs>
        <path d="M 40.578125 39.3125 
Q 47.65625 37.796875 51.625 33 
Q 55.609375 28.21875 55.609375 21.1875 
Q 55.609375 10.40625 48.1875 4.484375 
Q 40.765625 -1.421875 27.09375 -1.421875 
Q 22.515625 -1.421875 17.65625 -0.515625 
Q 12.796875 0.390625 7.625 2.203125 
L 7.625 11.71875 
Q 11.71875 9.328125 16.59375 8.109375 
Q 21.484375 6.890625 26.8125 6.890625 
Q 36.078125 6.890625 40.9375 10.546875 
Q 45.796875 14.203125 45.796875 21.1875 
Q 45.796875 27.640625 41.28125 31.265625 
Q 36.765625 34.90625 28.71875 34.90625 
L 20.21875 34.90625 
L 20.21875 43.015625 
L 29.109375 43.015625 
Q 36.375 43.015625 40.234375 45.921875 
Q 44.09375 48.828125 44.09375 54.296875 
Q 44.09375 59.90625 40.109375 62.90625 
Q 36.140625 65.921875 28.71875 65.921875 
Q 24.65625 65.921875 20.015625 65.03125 
Q 15.375 64.15625 9.8125 62.3125 
L 9.8125 71.09375 
Q 15.4375 72.65625 20.34375 73.4375 
Q 25.25 74.21875 29.59375 74.21875 
Q 40.828125 74.21875 47.359375 69.109375 
Q 53.90625 64.015625 53.90625 55.328125 
Q 53.90625 49.265625 50.4375 45.09375 
Q 46.96875 40.921875 40.578125 39.3125 
z
" id="DejaVuSans-51"/>
       </defs>
       <use xlink:href="#DejaVuSans-51"/>
       <use x="63.623047" xlink:href="#DejaVuSans-48"/>
       <use x="127.246094" xlink:href="#DejaVuSans-48"/>
      </g>
     </g>
    </g>
    <g id="xtick_5">
     <g id="line2d_5">
      <path clip-path="url(#paa8619ac26)" d="M 780.667204 664.78 
L 780.667204 7.2 
" style="fill:none;stroke:#ffffff;stroke-linecap:round;"/>
     </g>
     <g id="text_5">
      <!-- 350 -->
      <g style="fill:#262626;" transform="translate(770.169079 682.638281)scale(0.11 -0.11)">
       <use xlink:href="#DejaVuSans-51"/>
       <use x="63.623047" xlink:href="#DejaVuSans-53"/>
       <use x="127.246094" xlink:href="#DejaVuSans-48"/>
      </g>
     </g>
    </g>
    <g id="xtick_6">
     <g id="line2d_6">
      <path clip-path="url(#paa8619ac26)" d="M 935.073418 664.78 
L 935.073418 7.2 
" style="fill:none;stroke:#ffffff;stroke-linecap:round;"/>
     </g>
     <g id="text_6">
      <!-- 400 -->
      <g style="fill:#262626;" transform="translate(924.575293 682.638281)scale(0.11 -0.11)">
       <defs>
        <path d="M 37.796875 64.3125 
L 12.890625 25.390625 
L 37.796875 25.390625 
z
M 35.203125 72.90625 
L 47.609375 72.90625 
L 47.609375 25.390625 
L 58.015625 25.390625 
L 58.015625 17.1875 
L 47.609375 17.1875 
L 47.609375 0 
L 37.796875 0 
L 37.796875 17.1875 
L 4.890625 17.1875 
L 4.890625 26.703125 
z
" id="DejaVuSans-52"/>
       </defs>
       <use xlink:href="#DejaVuSans-52"/>
       <use x="63.623047" xlink:href="#DejaVuSans-48"/>
       <use x="127.246094" xlink:href="#DejaVuSans-48"/>
      </g>
     </g>
    </g>
    <g id="xtick_7">
     <g id="line2d_7">
      <path clip-path="url(#paa8619ac26)" d="M 1089.479632 664.78 
L 1089.479632 7.2 
" style="fill:none;stroke:#ffffff;stroke-linecap:round;"/>
     </g>
     <g id="text_7">
      <!-- 450 -->
      <g style="fill:#262626;" transform="translate(1078.981507 682.638281)scale(0.11 -0.11)">
       <use xlink:href="#DejaVuSans-52"/>
       <use x="63.623047" xlink:href="#DejaVuSans-53"/>
       <use x="127.246094" xlink:href="#DejaVuSans-48"/>
      </g>
     </g>
    </g>
    <g id="text_8">
     <!-- Power -->
     <g style="fill:#262626;" transform="translate(564.890375 698.044062)scale(0.12 -0.12)">
      <defs>
       <path d="M 19.671875 64.796875 
L 19.671875 37.40625 
L 32.078125 37.40625 
Q 38.96875 37.40625 42.71875 40.96875 
Q 46.484375 44.53125 46.484375 51.125 
Q 46.484375 57.671875 42.71875 61.234375 
Q 38.96875 64.796875 32.078125 64.796875 
z
M 9.8125 72.90625 
L 32.078125 72.90625 
Q 44.34375 72.90625 50.609375 67.359375 
Q 56.890625 61.8125 56.890625 51.125 
Q 56.890625 40.328125 50.609375 34.8125 
Q 44.34375 29.296875 32.078125 29.296875 
L 19.671875 29.296875 
L 19.671875 0 
L 9.8125 0 
z
" id="DejaVuSans-80"/>
       <path d="M 30.609375 48.390625 
Q 23.390625 48.390625 19.1875 42.75 
Q 14.984375 37.109375 14.984375 27.296875 
Q 14.984375 17.484375 19.15625 11.84375 
Q 23.34375 6.203125 30.609375 6.203125 
Q 37.796875 6.203125 41.984375 11.859375 
Q 46.1875 17.53125 46.1875 27.296875 
Q 46.1875 37.015625 41.984375 42.703125 
Q 37.796875 48.390625 30.609375 48.390625 
z
M 30.609375 56 
Q 42.328125 56 49.015625 48.375 
Q 55.71875 40.765625 55.71875 27.296875 
Q 55.71875 13.875 49.015625 6.21875 
Q 42.328125 -1.421875 30.609375 -1.421875 
Q 18.84375 -1.421875 12.171875 6.21875 
Q 5.515625 13.875 5.515625 27.296875 
Q 5.515625 40.765625 12.171875 48.375 
Q 18.84375 56 30.609375 56 
z
" id="DejaVuSans-111"/>
       <path d="M 4.203125 54.6875 
L 13.1875 54.6875 
L 24.421875 12.015625 
L 35.59375 54.6875 
L 46.1875 54.6875 
L 57.421875 12.015625 
L 68.609375 54.6875 
L 77.59375 54.6875 
L 63.28125 0 
L 52.6875 0 
L 40.921875 44.828125 
L 29.109375 0 
L 18.5 0 
z
" id="DejaVuSans-119"/>
       <path d="M 56.203125 29.59375 
L 56.203125 25.203125 
L 14.890625 25.203125 
Q 15.484375 15.921875 20.484375 11.0625 
Q 25.484375 6.203125 34.421875 6.203125 
Q 39.59375 6.203125 44.453125 7.46875 
Q 49.3125 8.734375 54.109375 11.28125 
L 54.109375 2.78125 
Q 49.265625 0.734375 44.1875 -0.34375 
Q 39.109375 -1.421875 33.890625 -1.421875 
Q 20.796875 -1.421875 13.15625 6.1875 
Q 5.515625 13.8125 5.515625 26.8125 
Q 5.515625 40.234375 12.765625 48.109375 
Q 20.015625 56 32.328125 56 
Q 43.359375 56 49.78125 48.890625 
Q 56.203125 41.796875 56.203125 29.59375 
z
M 47.21875 32.234375 
Q 47.125 39.59375 43.09375 43.984375 
Q 39.0625 48.390625 32.421875 48.390625 
Q 24.90625 48.390625 20.390625 44.140625 
Q 15.875 39.890625 15.1875 32.171875 
z
" id="DejaVuSans-101"/>
       <path d="M 41.109375 46.296875 
Q 39.59375 47.171875 37.8125 47.578125 
Q 36.03125 48 33.890625 48 
Q 26.265625 48 22.1875 43.046875 
Q 18.109375 38.09375 18.109375 28.8125 
L 18.109375 0 
L 9.078125 0 
L 9.078125 54.6875 
L 18.109375 54.6875 
L 18.109375 46.1875 
Q 20.953125 51.171875 25.484375 53.578125 
Q 30.03125 56 36.53125 56 
Q 37.453125 56 38.578125 55.875 
Q 39.703125 55.765625 41.0625 55.515625 
z
" id="DejaVuSans-114"/>
      </defs>
      <use xlink:href="#DejaVuSans-80"/>
      <use x="56.677734" xlink:href="#DejaVuSans-111"/>
      <use x="117.859375" xlink:href="#DejaVuSans-119"/>
      <use x="199.646484" xlink:href="#DejaVuSans-101"/>
      <use x="261.169922" xlink:href="#DejaVuSans-114"/>
     </g>
    </g>
   </g>
   <g id="matplotlib.axis_2">
    <g id="ytick_1">
     <g id="line2d_8">
      <path clip-path="url(#paa8619ac26)" d="M 46.31125 664.78 
L 1119.74325 664.78 
" style="fill:none;stroke:#ffffff;stroke-linecap:round;"/>
     </g>
     <g id="text_9">
      <!-- 0 -->
      <g style="fill:#262626;" transform="translate(29.8125 668.959141)scale(0.11 -0.11)">
       <use xlink:href="#DejaVuSans-48"/>
      </g>
     </g>
    </g>
    <g id="ytick_2">
     <g id="line2d_9">
      <path clip-path="url(#paa8619ac26)" d="M 46.31125 552.748633 
L 1119.74325 552.748633 
" style="fill:none;stroke:#ffffff;stroke-linecap:round;"/>
     </g>
     <g id="text_10">
      <!-- 5 -->
      <g style="fill:#262626;" transform="translate(29.8125 556.927774)scale(0.11 -0.11)">
       <use xlink:href="#DejaVuSans-53"/>
      </g>
     </g>
    </g>
    <g id="ytick_3">
     <g id="line2d_10">
      <path clip-path="url(#paa8619ac26)" d="M 46.31125 440.717266 
L 1119.74325 440.717266 
" style="fill:none;stroke:#ffffff;stroke-linecap:round;"/>
     </g>
     <g id="text_11">
      <!-- 10 -->
      <g style="fill:#262626;" transform="translate(22.81375 444.896407)scale(0.11 -0.11)">
       <use xlink:href="#DejaVuSans-49"/>
       <use x="63.623047" xlink:href="#DejaVuSans-48"/>
      </g>
     </g>
    </g>
    <g id="ytick_4">
     <g id="line2d_11">
      <path clip-path="url(#paa8619ac26)" d="M 46.31125 328.685899 
L 1119.74325 328.685899 
" style="fill:none;stroke:#ffffff;stroke-linecap:round;"/>
     </g>
     <g id="text_12">
      <!-- 15 -->
      <g style="fill:#262626;" transform="translate(22.81375 332.86504)scale(0.11 -0.11)">
       <use xlink:href="#DejaVuSans-49"/>
       <use x="63.623047" xlink:href="#DejaVuSans-53"/>
      </g>
     </g>
    </g>
    <g id="ytick_5">
     <g id="line2d_12">
      <path clip-path="url(#paa8619ac26)" d="M 46.31125 216.654532 
L 1119.74325 216.654532 
" style="fill:none;stroke:#ffffff;stroke-linecap:round;"/>
     </g>
     <g id="text_13">
      <!-- 20 -->
      <g style="fill:#262626;" transform="translate(22.81375 220.833673)scale(0.11 -0.11)">
       <use xlink:href="#DejaVuSans-50"/>
       <use x="63.623047" xlink:href="#DejaVuSans-48"/>
      </g>
     </g>
    </g>
    <g id="ytick_6">
     <g id="line2d_13">
      <path clip-path="url(#paa8619ac26)" d="M 46.31125 104.623165 
L 1119.74325 104.623165 
" style="fill:none;stroke:#ffffff;stroke-linecap:round;"/>
     </g>
     <g id="text_14">
      <!-- 25 -->
      <g style="fill:#262626;" transform="translate(22.81375 108.802306)scale(0.11 -0.11)">
       <use xlink:href="#DejaVuSans-50"/>
       <use x="63.623047" xlink:href="#DejaVuSans-53"/>
      </g>
     </g>
    </g>
    <g id="text_15">
     <!-- Frequency -->
     <g style="fill:#262626;" transform="translate(16.318125 366.985625)rotate(-90)scale(0.12 -0.12)">
      <defs>
       <path d="M 9.8125 72.90625 
L 51.703125 72.90625 
L 51.703125 64.59375 
L 19.671875 64.59375 
L 19.671875 43.109375 
L 48.578125 43.109375 
L 48.578125 34.8125 
L 19.671875 34.8125 
L 19.671875 0 
L 9.8125 0 
z
" id="DejaVuSans-70"/>
       <path d="M 14.796875 27.296875 
Q 14.796875 17.390625 18.875 11.75 
Q 22.953125 6.109375 30.078125 6.109375 
Q 37.203125 6.109375 41.296875 11.75 
Q 45.40625 17.390625 45.40625 27.296875 
Q 45.40625 37.203125 41.296875 42.84375 
Q 37.203125 48.484375 30.078125 48.484375 
Q 22.953125 48.484375 18.875 42.84375 
Q 14.796875 37.203125 14.796875 27.296875 
z
M 45.40625 8.203125 
Q 42.578125 3.328125 38.25 0.953125 
Q 33.9375 -1.421875 27.875 -1.421875 
Q 17.96875 -1.421875 11.734375 6.484375 
Q 5.515625 14.40625 5.515625 27.296875 
Q 5.515625 40.1875 11.734375 48.09375 
Q 17.96875 56 27.875 56 
Q 33.9375 56 38.25 53.625 
Q 42.578125 51.265625 45.40625 46.390625 
L 45.40625 54.6875 
L 54.390625 54.6875 
L 54.390625 -20.796875 
L 45.40625 -20.796875 
z
" id="DejaVuSans-113"/>
       <path d="M 8.5 21.578125 
L 8.5 54.6875 
L 17.484375 54.6875 
L 17.484375 21.921875 
Q 17.484375 14.15625 20.5 10.265625 
Q 23.53125 6.390625 29.59375 6.390625 
Q 36.859375 6.390625 41.078125 11.03125 
Q 45.3125 15.671875 45.3125 23.6875 
L 45.3125 54.6875 
L 54.296875 54.6875 
L 54.296875 0 
L 45.3125 0 
L 45.3125 8.40625 
Q 42.046875 3.421875 37.71875 1 
Q 33.40625 -1.421875 27.6875 -1.421875 
Q 18.265625 -1.421875 13.375 4.4375 
Q 8.5 10.296875 8.5 21.578125 
z
M 31.109375 56 
z
" id="DejaVuSans-117"/>
       <path d="M 54.890625 33.015625 
L 54.890625 0 
L 45.90625 0 
L 45.90625 32.71875 
Q 45.90625 40.484375 42.875 44.328125 
Q 39.84375 48.1875 33.796875 48.1875 
Q 26.515625 48.1875 22.3125 43.546875 
Q 18.109375 38.921875 18.109375 30.90625 
L 18.109375 0 
L 9.078125 0 
L 9.078125 54.6875 
L 18.109375 54.6875 
L 18.109375 46.1875 
Q 21.34375 51.125 25.703125 53.5625 
Q 30.078125 56 35.796875 56 
Q 45.21875 56 50.046875 50.171875 
Q 54.890625 44.34375 54.890625 33.015625 
z
" id="DejaVuSans-110"/>
       <path d="M 48.78125 52.59375 
L 48.78125 44.1875 
Q 44.96875 46.296875 41.140625 47.34375 
Q 37.3125 48.390625 33.40625 48.390625 
Q 24.65625 48.390625 19.8125 42.84375 
Q 14.984375 37.3125 14.984375 27.296875 
Q 14.984375 17.28125 19.8125 11.734375 
Q 24.65625 6.203125 33.40625 6.203125 
Q 37.3125 6.203125 41.140625 7.25 
Q 44.96875 8.296875 48.78125 10.40625 
L 48.78125 2.09375 
Q 45.015625 0.34375 40.984375 -0.53125 
Q 36.96875 -1.421875 32.421875 -1.421875 
Q 20.0625 -1.421875 12.78125 6.34375 
Q 5.515625 14.109375 5.515625 27.296875 
Q 5.515625 40.671875 12.859375 48.328125 
Q 20.21875 56 33.015625 56 
Q 37.15625 56 41.109375 55.140625 
Q 45.0625 54.296875 48.78125 52.59375 
z
" id="DejaVuSans-99"/>
       <path d="M 32.171875 -5.078125 
Q 28.375 -14.84375 24.75 -17.8125 
Q 21.140625 -20.796875 15.09375 -20.796875 
L 7.90625 -20.796875 
L 7.90625 -13.28125 
L 13.1875 -13.28125 
Q 16.890625 -13.28125 18.9375 -11.515625 
Q 21 -9.765625 23.484375 -3.21875 
L 25.09375 0.875 
L 2.984375 54.6875 
L 12.5 54.6875 
L 29.59375 11.921875 
L 46.6875 54.6875 
L 56.203125 54.6875 
z
" id="DejaVuSans-121"/>
      </defs>
      <use xlink:href="#DejaVuSans-70"/>
      <use x="50.269531" xlink:href="#DejaVuSans-114"/>
      <use x="89.132812" xlink:href="#DejaVuSans-101"/>
      <use x="150.65625" xlink:href="#DejaVuSans-113"/>
      <use x="214.132812" xlink:href="#DejaVuSans-117"/>
      <use x="277.511719" xlink:href="#DejaVuSans-101"/>
      <use x="339.035156" xlink:href="#DejaVuSans-110"/>
      <use x="402.414062" xlink:href="#DejaVuSans-99"/>
      <use x="457.394531" xlink:href="#DejaVuSans-121"/>
     </g>
    </g>
   </g>
   <g id="patch_3">
    <path clip-path="url(#paa8619ac26)" d="M 95.103614 664.78 
L 111.643398 664.78 
L 111.643398 664.010736 
L 95.103614 664.010736 
z
" style="fill:#c44e52;fill-opacity:0.5;stroke:#ffffff;stroke-linejoin:miter;"/>
   </g>
   <g id="patch_4">
    <path clip-path="url(#paa8619ac26)" d="M 111.643398 664.78 
L 128.183182 664.78 
L 128.183182 664.395368 
L 111.643398 664.395368 
z
" style="fill:#c44e52;fill-opacity:0.5;stroke:#ffffff;stroke-linejoin:miter;"/>
   </g>
   <g id="patch_5">
    <path clip-path="url(#paa8619ac26)" d="M 128.183182 664.78 
L 144.722966 664.78 
L 144.722966 662.85684 
L 128.183182 662.85684 
z
" style="fill:#c44e52;fill-opacity:0.5;stroke:#ffffff;stroke-linejoin:miter;"/>
   </g>
   <g id="patch_6">
    <path clip-path="url(#paa8619ac26)" d="M 144.722966 664.78 
L 161.262751 664.78 
L 161.262751 662.087576 
L 144.722966 662.087576 
z
" style="fill:#c44e52;fill-opacity:0.5;stroke:#ffffff;stroke-linejoin:miter;"/>
   </g>
   <g id="patch_7">
    <path clip-path="url(#paa8619ac26)" d="M 161.262751 664.78 
L 177.802535 664.78 
L 177.802535 660.93368 
L 161.262751 660.93368 
z
" style="fill:#c44e52;fill-opacity:0.5;stroke:#ffffff;stroke-linejoin:miter;"/>
   </g>
   <g id="patch_8">
    <path clip-path="url(#paa8619ac26)" d="M 177.802535 664.78 
L 194.342319 664.78 
L 194.342319 653.24104 
L 177.802535 653.24104 
z
" style="fill:#c44e52;fill-opacity:0.5;stroke:#ffffff;stroke-linejoin:miter;"/>
   </g>
   <g id="patch_9">
    <path clip-path="url(#paa8619ac26)" d="M 194.342319 664.78 
L 210.882104 664.78 
L 210.882104 652.471776 
L 194.342319 652.471776 
z
" style="fill:#c44e52;fill-opacity:0.5;stroke:#ffffff;stroke-linejoin:miter;"/>
   </g>
   <g id="patch_10">
    <path clip-path="url(#paa8619ac26)" d="M 210.882104 664.78 
L 227.421888 664.78 
L 227.421888 640.548184 
L 210.882104 640.548184 
z
" style="fill:#c44e52;fill-opacity:0.5;stroke:#ffffff;stroke-linejoin:miter;"/>
   </g>
   <g id="patch_11">
    <path clip-path="url(#paa8619ac26)" d="M 227.421888 664.78 
L 243.961672 664.78 
L 243.961672 642.086712 
L 227.421888 642.086712 
z
" style="fill:#c44e52;fill-opacity:0.5;stroke:#ffffff;stroke-linejoin:miter;"/>
   </g>
   <g id="patch_12">
    <path clip-path="url(#paa8619ac26)" d="M 243.961672 664.78 
L 260.501456 664.78 
L 260.501456 640.932816 
L 243.961672 640.932816 
z
" style="fill:#c44e52;fill-opacity:0.5;stroke:#ffffff;stroke-linejoin:miter;"/>
   </g>
   <g id="patch_13">
    <path clip-path="url(#paa8619ac26)" d="M 260.501456 664.78 
L 277.041241 664.78 
L 277.041241 640.548184 
L 260.501456 640.548184 
z
" style="fill:#c44e52;fill-opacity:0.5;stroke:#ffffff;stroke-linejoin:miter;"/>
   </g>
   <g id="patch_14">
    <path clip-path="url(#paa8619ac26)" d="M 277.041241 664.78 
L 293.581025 664.78 
L 293.581025 633.624808 
L 277.041241 633.624808 
z
" style="fill:#c44e52;fill-opacity:0.5;stroke:#ffffff;stroke-linejoin:miter;"/>
   </g>
   <g id="patch_15">
    <path clip-path="url(#paa8619ac26)" d="M 293.581025 664.78 
L 310.120809 664.78 
L 310.120809 634.778704 
L 293.581025 634.778704 
z
" style="fill:#c44e52;fill-opacity:0.5;stroke:#ffffff;stroke-linejoin:miter;"/>
   </g>
   <g id="patch_16">
    <path clip-path="url(#paa8619ac26)" d="M 310.120809 664.78 
L 326.660594 664.78 
L 326.660594 632.855544 
L 310.120809 632.855544 
z
" style="fill:#c44e52;fill-opacity:0.5;stroke:#ffffff;stroke-linejoin:miter;"/>
   </g>
   <g id="patch_17">
    <path clip-path="url(#paa8619ac26)" d="M 326.660594 664.78 
L 343.200378 664.78 
L 343.200378 625.547536 
L 326.660594 625.547536 
z
" style="fill:#c44e52;fill-opacity:0.5;stroke:#ffffff;stroke-linejoin:miter;"/>
   </g>
   <g id="patch_18">
    <path clip-path="url(#paa8619ac26)" d="M 343.200378 664.78 
L 359.740162 664.78 
L 359.740162 631.701648 
L 343.200378 631.701648 
z
" style="fill:#c44e52;fill-opacity:0.5;stroke:#ffffff;stroke-linejoin:miter;"/>
   </g>
   <g id="patch_19">
    <path clip-path="url(#paa8619ac26)" d="M 359.740162 664.78 
L 376.279946 664.78 
L 376.279946 620.931952 
L 359.740162 620.931952 
z
" style="fill:#c44e52;fill-opacity:0.5;stroke:#ffffff;stroke-linejoin:miter;"/>
   </g>
   <g id="patch_20">
    <path clip-path="url(#paa8619ac26)" d="M 376.279946 664.78 
L 392.819731 664.78 
L 392.819731 629.009224 
L 376.279946 629.009224 
z
" style="fill:#c44e52;fill-opacity:0.5;stroke:#ffffff;stroke-linejoin:miter;"/>
   </g>
   <g id="patch_21">
    <path clip-path="url(#paa8619ac26)" d="M 392.819731 664.78 
L 409.359515 664.78 
L 409.359515 629.393856 
L 392.819731 629.393856 
z
" style="fill:#c44e52;fill-opacity:0.5;stroke:#ffffff;stroke-linejoin:miter;"/>
   </g>
   <g id="patch_22">
    <path clip-path="url(#paa8619ac26)" d="M 409.359515 664.78 
L 425.899299 664.78 
L 425.899299 626.3168 
L 409.359515 626.3168 
z
" style="fill:#c44e52;fill-opacity:0.5;stroke:#ffffff;stroke-linejoin:miter;"/>
   </g>
   <g id="patch_23">
    <path clip-path="url(#paa8619ac26)" d="M 425.899299 664.78 
L 442.439084 664.78 
L 442.439084 635.9326 
L 425.899299 635.9326 
z
" style="fill:#c44e52;fill-opacity:0.5;stroke:#ffffff;stroke-linejoin:miter;"/>
   </g>
   <g id="patch_24">
    <path clip-path="url(#paa8619ac26)" d="M 442.439084 664.78 
L 458.978868 664.78 
L 458.978868 639.77892 
L 442.439084 639.77892 
z
" style="fill:#c44e52;fill-opacity:0.5;stroke:#ffffff;stroke-linejoin:miter;"/>
   </g>
   <g id="patch_25">
    <path clip-path="url(#paa8619ac26)" d="M 458.978868 664.78 
L 475.518652 664.78 
L 475.518652 646.317664 
L 458.978868 646.317664 
z
" style="fill:#c44e52;fill-opacity:0.5;stroke:#ffffff;stroke-linejoin:miter;"/>
   </g>
   <g id="patch_26">
    <path clip-path="url(#paa8619ac26)" d="M 475.518652 664.78 
L 492.058436 664.78 
L 492.058436 654.394936 
L 475.518652 654.394936 
z
" style="fill:#c44e52;fill-opacity:0.5;stroke:#ffffff;stroke-linejoin:miter;"/>
   </g>
   <g id="patch_27">
    <path clip-path="url(#paa8619ac26)" d="M 492.058436 664.78 
L 508.598221 664.78 
L 508.598221 659.395152 
L 492.058436 659.395152 
z
" style="fill:#c44e52;fill-opacity:0.5;stroke:#ffffff;stroke-linejoin:miter;"/>
   </g>
   <g id="patch_28">
    <path clip-path="url(#paa8619ac26)" d="M 508.598221 664.78 
L 525.138005 664.78 
L 525.138005 659.779784 
L 508.598221 659.779784 
z
" style="fill:#c44e52;fill-opacity:0.5;stroke:#ffffff;stroke-linejoin:miter;"/>
   </g>
   <g id="patch_29">
    <path clip-path="url(#paa8619ac26)" d="M 525.138005 664.78 
L 541.677789 664.78 
L 541.677789 662.087576 
L 525.138005 662.087576 
z
" style="fill:#c44e52;fill-opacity:0.5;stroke:#ffffff;stroke-linejoin:miter;"/>
   </g>
   <g id="patch_30">
    <path clip-path="url(#paa8619ac26)" d="M 541.677789 664.78 
L 558.217574 664.78 
L 558.217574 664.010736 
L 541.677789 664.010736 
z
" style="fill:#c44e52;fill-opacity:0.5;stroke:#ffffff;stroke-linejoin:miter;"/>
   </g>
   <g id="patch_31">
    <path clip-path="url(#paa8619ac26)" d="M 558.217574 664.78 
L 574.757358 664.78 
L 574.757358 664.395368 
L 558.217574 664.395368 
z
" style="fill:#c44e52;fill-opacity:0.5;stroke:#ffffff;stroke-linejoin:miter;"/>
   </g>
   <g id="patch_32">
    <path clip-path="url(#paa8619ac26)" d="M 574.757358 664.78 
L 591.297142 664.78 
L 591.297142 664.010736 
L 574.757358 664.010736 
z
" style="fill:#c44e52;fill-opacity:0.5;stroke:#ffffff;stroke-linejoin:miter;"/>
   </g>
   <g id="patch_33">
    <path clip-path="url(#paa8619ac26)" d="M 591.297142 664.78 
L 607.836926 664.78 
L 607.836926 664.78 
L 591.297142 664.78 
z
" style="fill:#c44e52;fill-opacity:0.5;stroke:#ffffff;stroke-linejoin:miter;"/>
   </g>
   <g id="patch_34">
    <path clip-path="url(#paa8619ac26)" d="M 607.836926 664.78 
L 624.376711 664.78 
L 624.376711 664.78 
L 607.836926 664.78 
z
" style="fill:#c44e52;fill-opacity:0.5;stroke:#ffffff;stroke-linejoin:miter;"/>
   </g>
   <g id="patch_35">
    <path clip-path="url(#paa8619ac26)" d="M 624.376711 664.78 
L 640.916495 664.78 
L 640.916495 664.78 
L 624.376711 664.78 
z
" style="fill:#c44e52;fill-opacity:0.5;stroke:#ffffff;stroke-linejoin:miter;"/>
   </g>
   <g id="patch_36">
    <path clip-path="url(#paa8619ac26)" d="M 640.916495 664.78 
L 657.456279 664.78 
L 657.456279 664.78 
L 640.916495 664.78 
z
" style="fill:#c44e52;fill-opacity:0.5;stroke:#ffffff;stroke-linejoin:miter;"/>
   </g>
   <g id="patch_37">
    <path clip-path="url(#paa8619ac26)" d="M 657.456279 664.78 
L 673.996064 664.78 
L 673.996064 664.78 
L 657.456279 664.78 
z
" style="fill:#c44e52;fill-opacity:0.5;stroke:#ffffff;stroke-linejoin:miter;"/>
   </g>
   <g id="patch_38">
    <path clip-path="url(#paa8619ac26)" d="M 673.996064 664.78 
L 690.535848 664.78 
L 690.535848 664.78 
L 673.996064 664.78 
z
" style="fill:#c44e52;fill-opacity:0.5;stroke:#ffffff;stroke-linejoin:miter;"/>
   </g>
   <g id="patch_39">
    <path clip-path="url(#paa8619ac26)" d="M 690.535848 664.78 
L 707.075632 664.78 
L 707.075632 664.78 
L 690.535848 664.78 
z
" style="fill:#c44e52;fill-opacity:0.5;stroke:#ffffff;stroke-linejoin:miter;"/>
   </g>
   <g id="patch_40">
    <path clip-path="url(#paa8619ac26)" d="M 707.075632 664.78 
L 723.615416 664.78 
L 723.615416 664.78 
L 707.075632 664.78 
z
" style="fill:#c44e52;fill-opacity:0.5;stroke:#ffffff;stroke-linejoin:miter;"/>
   </g>
   <g id="patch_41">
    <path clip-path="url(#paa8619ac26)" d="M 723.615416 664.78 
L 740.155201 664.78 
L 740.155201 664.78 
L 723.615416 664.78 
z
" style="fill:#c44e52;fill-opacity:0.5;stroke:#ffffff;stroke-linejoin:miter;"/>
   </g>
   <g id="patch_42">
    <path clip-path="url(#paa8619ac26)" d="M 740.155201 664.78 
L 756.694985 664.78 
L 756.694985 664.78 
L 740.155201 664.78 
z
" style="fill:#c44e52;fill-opacity:0.5;stroke:#ffffff;stroke-linejoin:miter;"/>
   </g>
   <g id="patch_43">
    <path clip-path="url(#paa8619ac26)" d="M 756.694985 664.78 
L 773.234769 664.78 
L 773.234769 664.78 
L 756.694985 664.78 
z
" style="fill:#c44e52;fill-opacity:0.5;stroke:#ffffff;stroke-linejoin:miter;"/>
   </g>
   <g id="patch_44">
    <path clip-path="url(#paa8619ac26)" d="M 773.234769 664.78 
L 789.774554 664.78 
L 789.774554 664.78 
L 773.234769 664.78 
z
" style="fill:#c44e52;fill-opacity:0.5;stroke:#ffffff;stroke-linejoin:miter;"/>
   </g>
   <g id="patch_45">
    <path clip-path="url(#paa8619ac26)" d="M 789.774554 664.78 
L 806.314338 664.78 
L 806.314338 664.78 
L 789.774554 664.78 
z
" style="fill:#c44e52;fill-opacity:0.5;stroke:#ffffff;stroke-linejoin:miter;"/>
   </g>
   <g id="patch_46">
    <path clip-path="url(#paa8619ac26)" d="M 806.314338 664.78 
L 822.854122 664.78 
L 822.854122 664.78 
L 806.314338 664.78 
z
" style="fill:#c44e52;fill-opacity:0.5;stroke:#ffffff;stroke-linejoin:miter;"/>
   </g>
   <g id="patch_47">
    <path clip-path="url(#paa8619ac26)" d="M 822.854122 664.78 
L 839.393906 664.78 
L 839.393906 664.78 
L 822.854122 664.78 
z
" style="fill:#c44e52;fill-opacity:0.5;stroke:#ffffff;stroke-linejoin:miter;"/>
   </g>
   <g id="patch_48">
    <path clip-path="url(#paa8619ac26)" d="M 839.393906 664.78 
L 855.933691 664.78 
L 855.933691 664.78 
L 839.393906 664.78 
z
" style="fill:#c44e52;fill-opacity:0.5;stroke:#ffffff;stroke-linejoin:miter;"/>
   </g>
   <g id="patch_49">
    <path clip-path="url(#paa8619ac26)" d="M 855.933691 664.78 
L 872.473475 664.78 
L 872.473475 664.78 
L 855.933691 664.78 
z
" style="fill:#c44e52;fill-opacity:0.5;stroke:#ffffff;stroke-linejoin:miter;"/>
   </g>
   <g id="patch_50">
    <path clip-path="url(#paa8619ac26)" d="M 872.473475 664.78 
L 889.013259 664.78 
L 889.013259 664.78 
L 872.473475 664.78 
z
" style="fill:#c44e52;fill-opacity:0.5;stroke:#ffffff;stroke-linejoin:miter;"/>
   </g>
   <g id="patch_51">
    <path clip-path="url(#paa8619ac26)" d="M 889.013259 664.78 
L 905.553044 664.78 
L 905.553044 664.78 
L 889.013259 664.78 
z
" style="fill:#c44e52;fill-opacity:0.5;stroke:#ffffff;stroke-linejoin:miter;"/>
   </g>
   <g id="patch_52">
    <path clip-path="url(#paa8619ac26)" d="M 905.553044 664.78 
L 922.092828 664.78 
L 922.092828 664.78 
L 905.553044 664.78 
z
" style="fill:#c44e52;fill-opacity:0.5;stroke:#ffffff;stroke-linejoin:miter;"/>
   </g>
   <g id="patch_53">
    <path clip-path="url(#paa8619ac26)" d="M 922.092828 664.78 
L 938.632612 664.78 
L 938.632612 664.78 
L 922.092828 664.78 
z
" style="fill:#c44e52;fill-opacity:0.5;stroke:#ffffff;stroke-linejoin:miter;"/>
   </g>
   <g id="patch_54">
    <path clip-path="url(#paa8619ac26)" d="M 938.632612 664.78 
L 955.172396 664.78 
L 955.172396 664.78 
L 938.632612 664.78 
z
" style="fill:#c44e52;fill-opacity:0.5;stroke:#ffffff;stroke-linejoin:miter;"/>
   </g>
   <g id="patch_55">
    <path clip-path="url(#paa8619ac26)" d="M 955.172396 664.78 
L 971.712181 664.78 
L 971.712181 664.78 
L 955.172396 664.78 
z
" style="fill:#c44e52;fill-opacity:0.5;stroke:#ffffff;stroke-linejoin:miter;"/>
   </g>
   <g id="patch_56">
    <path clip-path="url(#paa8619ac26)" d="M 971.712181 664.78 
L 988.251965 664.78 
L 988.251965 664.78 
L 971.712181 664.78 
z
" style="fill:#c44e52;fill-opacity:0.5;stroke:#ffffff;stroke-linejoin:miter;"/>
   </g>
   <g id="patch_57">
    <path clip-path="url(#paa8619ac26)" d="M 988.251965 664.78 
L 1004.791749 664.78 
L 1004.791749 664.78 
L 988.251965 664.78 
z
" style="fill:#c44e52;fill-opacity:0.5;stroke:#ffffff;stroke-linejoin:miter;"/>
   </g>
   <g id="patch_58">
    <path clip-path="url(#paa8619ac26)" d="M 1004.791749 664.78 
L 1021.331534 664.78 
L 1021.331534 664.78 
L 1004.791749 664.78 
z
" style="fill:#c44e52;fill-opacity:0.5;stroke:#ffffff;stroke-linejoin:miter;"/>
   </g>
   <g id="patch_59">
    <path clip-path="url(#paa8619ac26)" d="M 1021.331534 664.78 
L 1037.871318 664.78 
L 1037.871318 664.78 
L 1021.331534 664.78 
z
" style="fill:#c44e52;fill-opacity:0.5;stroke:#ffffff;stroke-linejoin:miter;"/>
   </g>
   <g id="patch_60">
    <path clip-path="url(#paa8619ac26)" d="M 1037.871318 664.78 
L 1054.411102 664.78 
L 1054.411102 664.78 
L 1037.871318 664.78 
z
" style="fill:#c44e52;fill-opacity:0.5;stroke:#ffffff;stroke-linejoin:miter;"/>
   </g>
   <g id="patch_61">
    <path clip-path="url(#paa8619ac26)" d="M 1054.411102 664.78 
L 1070.950886 664.78 
L 1070.950886 664.78 
L 1054.411102 664.78 
z
" style="fill:#c44e52;fill-opacity:0.5;stroke:#ffffff;stroke-linejoin:miter;"/>
   </g>
   <g id="patch_62">
    <path clip-path="url(#paa8619ac26)" d="M 95.103614 664.78 
L 111.643398 664.78 
L 111.643398 664.78 
L 95.103614 664.78 
z
" style="fill:#55a868;fill-opacity:0.5;stroke:#ffffff;stroke-linejoin:miter;"/>
   </g>
   <g id="patch_63">
    <path clip-path="url(#paa8619ac26)" d="M 111.643398 664.78 
L 128.183182 664.78 
L 128.183182 664.78 
L 111.643398 664.78 
z
" style="fill:#55a868;fill-opacity:0.5;stroke:#ffffff;stroke-linejoin:miter;"/>
   </g>
   <g id="patch_64">
    <path clip-path="url(#paa8619ac26)" d="M 128.183182 664.78 
L 144.722966 664.78 
L 144.722966 664.78 
L 128.183182 664.78 
z
" style="fill:#55a868;fill-opacity:0.5;stroke:#ffffff;stroke-linejoin:miter;"/>
   </g>
   <g id="patch_65">
    <path clip-path="url(#paa8619ac26)" d="M 144.722966 664.78 
L 161.262751 664.78 
L 161.262751 664.78 
L 144.722966 664.78 
z
" style="fill:#55a868;fill-opacity:0.5;stroke:#ffffff;stroke-linejoin:miter;"/>
   </g>
   <g id="patch_66">
    <path clip-path="url(#paa8619ac26)" d="M 161.262751 664.78 
L 177.802535 664.78 
L 177.802535 663.417637 
L 161.262751 663.417637 
z
" style="fill:#55a868;fill-opacity:0.5;stroke:#ffffff;stroke-linejoin:miter;"/>
   </g>
   <g id="patch_67">
    <path clip-path="url(#paa8619ac26)" d="M 177.802535 664.78 
L 194.342319 664.78 
L 194.342319 664.78 
L 177.802535 664.78 
z
" style="fill:#55a868;fill-opacity:0.5;stroke:#ffffff;stroke-linejoin:miter;"/>
   </g>
   <g id="patch_68">
    <path clip-path="url(#paa8619ac26)" d="M 194.342319 664.78 
L 210.882104 664.78 
L 210.882104 664.78 
L 194.342319 664.78 
z
" style="fill:#55a868;fill-opacity:0.5;stroke:#ffffff;stroke-linejoin:miter;"/>
   </g>
   <g id="patch_69">
    <path clip-path="url(#paa8619ac26)" d="M 210.882104 664.78 
L 227.421888 664.78 
L 227.421888 663.417637 
L 210.882104 663.417637 
z
" style="fill:#55a868;fill-opacity:0.5;stroke:#ffffff;stroke-linejoin:miter;"/>
   </g>
   <g id="patch_70">
    <path clip-path="url(#paa8619ac26)" d="M 227.421888 664.78 
L 243.961672 664.78 
L 243.961672 664.78 
L 227.421888 664.78 
z
" style="fill:#55a868;fill-opacity:0.5;stroke:#ffffff;stroke-linejoin:miter;"/>
   </g>
   <g id="patch_71">
    <path clip-path="url(#paa8619ac26)" d="M 243.961672 664.78 
L 260.501456 664.78 
L 260.501456 663.417637 
L 243.961672 663.417637 
z
" style="fill:#55a868;fill-opacity:0.5;stroke:#ffffff;stroke-linejoin:miter;"/>
   </g>
   <g id="patch_72">
    <path clip-path="url(#paa8619ac26)" d="M 260.501456 664.78 
L 277.041241 664.78 
L 277.041241 664.78 
L 260.501456 664.78 
z
" style="fill:#55a868;fill-opacity:0.5;stroke:#ffffff;stroke-linejoin:miter;"/>
   </g>
   <g id="patch_73">
    <path clip-path="url(#paa8619ac26)" d="M 277.041241 664.78 
L 293.581025 664.78 
L 293.581025 663.417637 
L 277.041241 663.417637 
z
" style="fill:#55a868;fill-opacity:0.5;stroke:#ffffff;stroke-linejoin:miter;"/>
   </g>
   <g id="patch_74">
    <path clip-path="url(#paa8619ac26)" d="M 293.581025 664.78 
L 310.120809 664.78 
L 310.120809 660.692912 
L 293.581025 660.692912 
z
" style="fill:#55a868;fill-opacity:0.5;stroke:#ffffff;stroke-linejoin:miter;"/>
   </g>
   <g id="patch_75">
    <path clip-path="url(#paa8619ac26)" d="M 310.120809 664.78 
L 326.660594 664.78 
L 326.660594 655.243461 
L 310.120809 655.243461 
z
" style="fill:#55a868;fill-opacity:0.5;stroke:#ffffff;stroke-linejoin:miter;"/>
   </g>
   <g id="patch_76">
    <path clip-path="url(#paa8619ac26)" d="M 326.660594 664.78 
L 343.200378 664.78 
L 343.200378 657.968186 
L 326.660594 657.968186 
z
" style="fill:#55a868;fill-opacity:0.5;stroke:#ffffff;stroke-linejoin:miter;"/>
   </g>
   <g id="patch_77">
    <path clip-path="url(#paa8619ac26)" d="M 343.200378 664.78 
L 359.740162 664.78 
L 359.740162 645.706922 
L 343.200378 645.706922 
z
" style="fill:#55a868;fill-opacity:0.5;stroke:#ffffff;stroke-linejoin:miter;"/>
   </g>
   <g id="patch_78">
    <path clip-path="url(#paa8619ac26)" d="M 359.740162 664.78 
L 376.279946 664.78 
L 376.279946 622.546755 
L 359.740162 622.546755 
z
" style="fill:#55a868;fill-opacity:0.5;stroke:#ffffff;stroke-linejoin:miter;"/>
   </g>
   <g id="patch_79">
    <path clip-path="url(#paa8619ac26)" d="M 376.279946 664.78 
L 392.819731 664.78 
L 392.819731 618.459667 
L 376.279946 618.459667 
z
" style="fill:#55a868;fill-opacity:0.5;stroke:#ffffff;stroke-linejoin:miter;"/>
   </g>
   <g id="patch_80">
    <path clip-path="url(#paa8619ac26)" d="M 392.819731 664.78 
L 409.359515 664.78 
L 409.359515 608.923128 
L 392.819731 608.923128 
z
" style="fill:#55a868;fill-opacity:0.5;stroke:#ffffff;stroke-linejoin:miter;"/>
   </g>
   <g id="patch_81">
    <path clip-path="url(#paa8619ac26)" d="M 409.359515 664.78 
L 425.899299 664.78 
L 425.899299 572.139334 
L 409.359515 572.139334 
z
" style="fill:#55a868;fill-opacity:0.5;stroke:#ffffff;stroke-linejoin:miter;"/>
   </g>
   <g id="patch_82">
    <path clip-path="url(#paa8619ac26)" d="M 425.899299 664.78 
L 442.439084 664.78 
L 442.439084 572.139334 
L 425.899299 572.139334 
z
" style="fill:#55a868;fill-opacity:0.5;stroke:#ffffff;stroke-linejoin:miter;"/>
   </g>
   <g id="patch_83">
    <path clip-path="url(#paa8619ac26)" d="M 442.439084 664.78 
L 458.978868 664.78 
L 458.978868 533.993178 
L 442.439084 533.993178 
z
" style="fill:#55a868;fill-opacity:0.5;stroke:#ffffff;stroke-linejoin:miter;"/>
   </g>
   <g id="patch_84">
    <path clip-path="url(#paa8619ac26)" d="M 458.978868 664.78 
L 475.518652 664.78 
L 475.518652 457.700864 
L 458.978868 457.700864 
z
" style="fill:#55a868;fill-opacity:0.5;stroke:#ffffff;stroke-linejoin:miter;"/>
   </g>
   <g id="patch_85">
    <path clip-path="url(#paa8619ac26)" d="M 475.518652 664.78 
L 492.058436 664.78 
L 492.058436 449.526688 
L 475.518652 449.526688 
z
" style="fill:#55a868;fill-opacity:0.5;stroke:#ffffff;stroke-linejoin:miter;"/>
   </g>
   <g id="patch_86">
    <path clip-path="url(#paa8619ac26)" d="M 492.058436 664.78 
L 508.598221 664.78 
L 508.598221 438.627786 
L 492.058436 438.627786 
z
" style="fill:#55a868;fill-opacity:0.5;stroke:#ffffff;stroke-linejoin:miter;"/>
   </g>
   <g id="patch_87">
    <path clip-path="url(#paa8619ac26)" d="M 508.598221 664.78 
L 525.138005 664.78 
L 525.138005 328.276405 
L 508.598221 328.276405 
z
" style="fill:#55a868;fill-opacity:0.5;stroke:#ffffff;stroke-linejoin:miter;"/>
   </g>
   <g id="patch_88">
    <path clip-path="url(#paa8619ac26)" d="M 525.138005 664.78 
L 541.677789 664.78 
L 541.677789 375.9591 
L 525.138005 375.9591 
z
" style="fill:#55a868;fill-opacity:0.5;stroke:#ffffff;stroke-linejoin:miter;"/>
   </g>
   <g id="patch_89">
    <path clip-path="url(#paa8619ac26)" d="M 541.677789 664.78 
L 558.217574 664.78 
L 558.217574 377.321463 
L 541.677789 377.321463 
z
" style="fill:#55a868;fill-opacity:0.5;stroke:#ffffff;stroke-linejoin:miter;"/>
   </g>
   <g id="patch_90">
    <path clip-path="url(#paa8619ac26)" d="M 558.217574 664.78 
L 574.757358 664.78 
L 574.757358 294.217336 
L 558.217574 294.217336 
z
" style="fill:#55a868;fill-opacity:0.5;stroke:#ffffff;stroke-linejoin:miter;"/>
   </g>
   <g id="patch_91">
    <path clip-path="url(#paa8619ac26)" d="M 574.757358 664.78 
L 591.297142 664.78 
L 591.297142 377.321463 
L 574.757358 377.321463 
z
" style="fill:#55a868;fill-opacity:0.5;stroke:#ffffff;stroke-linejoin:miter;"/>
   </g>
   <g id="patch_92">
    <path clip-path="url(#paa8619ac26)" d="M 591.297142 664.78 
L 607.836926 664.78 
L 607.836926 295.579699 
L 591.297142 295.579699 
z
" style="fill:#55a868;fill-opacity:0.5;stroke:#ffffff;stroke-linejoin:miter;"/>
   </g>
   <g id="patch_93">
    <path clip-path="url(#paa8619ac26)" d="M 607.836926 664.78 
L 624.376711 664.78 
L 624.376711 335.088218 
L 607.836926 335.088218 
z
" style="fill:#55a868;fill-opacity:0.5;stroke:#ffffff;stroke-linejoin:miter;"/>
   </g>
   <g id="patch_94">
    <path clip-path="url(#paa8619ac26)" d="M 624.376711 664.78 
L 640.916495 664.78 
L 640.916495 318.739866 
L 624.376711 318.739866 
z
" style="fill:#55a868;fill-opacity:0.5;stroke:#ffffff;stroke-linejoin:miter;"/>
   </g>
   <g id="patch_95">
    <path clip-path="url(#paa8619ac26)" d="M 640.916495 664.78 
L 657.456279 664.78 
L 657.456279 316.01514 
L 640.916495 316.01514 
z
" style="fill:#55a868;fill-opacity:0.5;stroke:#ffffff;stroke-linejoin:miter;"/>
   </g>
   <g id="patch_96">
    <path clip-path="url(#paa8619ac26)" d="M 657.456279 664.78 
L 673.996064 664.78 
L 673.996064 385.49564 
L 657.456279 385.49564 
z
" style="fill:#55a868;fill-opacity:0.5;stroke:#ffffff;stroke-linejoin:miter;"/>
   </g>
   <g id="patch_97">
    <path clip-path="url(#paa8619ac26)" d="M 673.996064 664.78 
L 690.535848 664.78 
L 690.535848 395.032179 
L 673.996064 395.032179 
z
" style="fill:#55a868;fill-opacity:0.5;stroke:#ffffff;stroke-linejoin:miter;"/>
   </g>
   <g id="patch_98">
    <path clip-path="url(#paa8619ac26)" d="M 690.535848 664.78 
L 707.075632 664.78 
L 707.075632 314.652777 
L 690.535848 314.652777 
z
" style="fill:#55a868;fill-opacity:0.5;stroke:#ffffff;stroke-linejoin:miter;"/>
   </g>
   <g id="patch_99">
    <path clip-path="url(#paa8619ac26)" d="M 707.075632 664.78 
L 723.615416 664.78 
L 723.615416 400.48163 
L 707.075632 400.48163 
z
" style="fill:#55a868;fill-opacity:0.5;stroke:#ffffff;stroke-linejoin:miter;"/>
   </g>
   <g id="patch_100">
    <path clip-path="url(#paa8619ac26)" d="M 723.615416 664.78 
L 740.155201 664.78 
L 740.155201 423.641796 
L 723.615416 423.641796 
z
" style="fill:#55a868;fill-opacity:0.5;stroke:#ffffff;stroke-linejoin:miter;"/>
   </g>
   <g id="patch_101">
    <path clip-path="url(#paa8619ac26)" d="M 740.155201 664.78 
L 756.694985 664.78 
L 756.694985 422.279433 
L 740.155201 422.279433 
z
" style="fill:#55a868;fill-opacity:0.5;stroke:#ffffff;stroke-linejoin:miter;"/>
   </g>
   <g id="patch_102">
    <path clip-path="url(#paa8619ac26)" d="M 756.694985 664.78 
L 773.234769 664.78 
L 773.234769 465.875041 
L 756.694985 465.875041 
z
" style="fill:#55a868;fill-opacity:0.5;stroke:#ffffff;stroke-linejoin:miter;"/>
   </g>
   <g id="patch_103">
    <path clip-path="url(#paa8619ac26)" d="M 773.234769 664.78 
L 789.774554 664.78 
L 789.774554 504.021197 
L 773.234769 504.021197 
z
" style="fill:#55a868;fill-opacity:0.5;stroke:#ffffff;stroke-linejoin:miter;"/>
   </g>
   <g id="patch_104">
    <path clip-path="url(#paa8619ac26)" d="M 789.774554 664.78 
L 806.314338 664.78 
L 806.314338 480.861031 
L 789.774554 480.861031 
z
" style="fill:#55a868;fill-opacity:0.5;stroke:#ffffff;stroke-linejoin:miter;"/>
   </g>
   <g id="patch_105">
    <path clip-path="url(#paa8619ac26)" d="M 806.314338 664.78 
L 822.854122 664.78 
L 822.854122 532.630815 
L 806.314338 532.630815 
z
" style="fill:#55a868;fill-opacity:0.5;stroke:#ffffff;stroke-linejoin:miter;"/>
   </g>
   <g id="patch_106">
    <path clip-path="url(#paa8619ac26)" d="M 822.854122 664.78 
L 839.393906 664.78 
L 839.393906 540.804991 
L 822.854122 540.804991 
z
" style="fill:#55a868;fill-opacity:0.5;stroke:#ffffff;stroke-linejoin:miter;"/>
   </g>
   <g id="patch_107">
    <path clip-path="url(#paa8619ac26)" d="M 839.393906 664.78 
L 855.933691 664.78 
L 855.933691 599.386589 
L 839.393906 599.386589 
z
" style="fill:#55a868;fill-opacity:0.5;stroke:#ffffff;stroke-linejoin:miter;"/>
   </g>
   <g id="patch_108">
    <path clip-path="url(#paa8619ac26)" d="M 855.933691 664.78 
L 872.473475 664.78 
L 872.473475 591.212412 
L 855.933691 591.212412 
z
" style="fill:#55a868;fill-opacity:0.5;stroke:#ffffff;stroke-linejoin:miter;"/>
   </g>
   <g id="patch_109">
    <path clip-path="url(#paa8619ac26)" d="M 872.473475 664.78 
L 889.013259 664.78 
L 889.013259 622.546755 
L 872.473475 622.546755 
z
" style="fill:#55a868;fill-opacity:0.5;stroke:#ffffff;stroke-linejoin:miter;"/>
   </g>
   <g id="patch_110">
    <path clip-path="url(#paa8619ac26)" d="M 889.013259 664.78 
L 905.553044 664.78 
L 905.553044 626.633843 
L 889.013259 626.633843 
z
" style="fill:#55a868;fill-opacity:0.5;stroke:#ffffff;stroke-linejoin:miter;"/>
   </g>
   <g id="patch_111">
    <path clip-path="url(#paa8619ac26)" d="M 905.553044 664.78 
L 922.092828 664.78 
L 922.092828 648.431647 
L 905.553044 648.431647 
z
" style="fill:#55a868;fill-opacity:0.5;stroke:#ffffff;stroke-linejoin:miter;"/>
   </g>
   <g id="patch_112">
    <path clip-path="url(#paa8619ac26)" d="M 922.092828 664.78 
L 938.632612 664.78 
L 938.632612 649.79401 
L 922.092828 649.79401 
z
" style="fill:#55a868;fill-opacity:0.5;stroke:#ffffff;stroke-linejoin:miter;"/>
   </g>
   <g id="patch_113">
    <path clip-path="url(#paa8619ac26)" d="M 938.632612 664.78 
L 955.172396 664.78 
L 955.172396 655.243461 
L 938.632612 655.243461 
z
" style="fill:#55a868;fill-opacity:0.5;stroke:#ffffff;stroke-linejoin:miter;"/>
   </g>
   <g id="patch_114">
    <path clip-path="url(#paa8619ac26)" d="M 955.172396 664.78 
L 971.712181 664.78 
L 971.712181 656.605824 
L 955.172396 656.605824 
z
" style="fill:#55a868;fill-opacity:0.5;stroke:#ffffff;stroke-linejoin:miter;"/>
   </g>
   <g id="patch_115">
    <path clip-path="url(#paa8619ac26)" d="M 971.712181 664.78 
L 988.251965 664.78 
L 988.251965 662.055275 
L 971.712181 662.055275 
z
" style="fill:#55a868;fill-opacity:0.5;stroke:#ffffff;stroke-linejoin:miter;"/>
   </g>
   <g id="patch_116">
    <path clip-path="url(#paa8619ac26)" d="M 988.251965 664.78 
L 1004.791749 664.78 
L 1004.791749 664.78 
L 988.251965 664.78 
z
" style="fill:#55a868;fill-opacity:0.5;stroke:#ffffff;stroke-linejoin:miter;"/>
   </g>
   <g id="patch_117">
    <path clip-path="url(#paa8619ac26)" d="M 1004.791749 664.78 
L 1021.331534 664.78 
L 1021.331534 663.417637 
L 1004.791749 663.417637 
z
" style="fill:#55a868;fill-opacity:0.5;stroke:#ffffff;stroke-linejoin:miter;"/>
   </g>
   <g id="patch_118">
    <path clip-path="url(#paa8619ac26)" d="M 1021.331534 664.78 
L 1037.871318 664.78 
L 1037.871318 664.78 
L 1021.331534 664.78 
z
" style="fill:#55a868;fill-opacity:0.5;stroke:#ffffff;stroke-linejoin:miter;"/>
   </g>
   <g id="patch_119">
    <path clip-path="url(#paa8619ac26)" d="M 1037.871318 664.78 
L 1054.411102 664.78 
L 1054.411102 664.78 
L 1037.871318 664.78 
z
" style="fill:#55a868;fill-opacity:0.5;stroke:#ffffff;stroke-linejoin:miter;"/>
   </g>
   <g id="patch_120">
    <path clip-path="url(#paa8619ac26)" d="M 1054.411102 664.78 
L 1070.950886 664.78 
L 1070.950886 664.78 
L 1054.411102 664.78 
z
" style="fill:#55a868;fill-opacity:0.5;stroke:#ffffff;stroke-linejoin:miter;"/>
   </g>
   <g id="patch_121">
    <path clip-path="url(#paa8619ac26)" d="M 95.103614 664.78 
L 111.643398 664.78 
L 111.643398 664.78 
L 95.103614 664.78 
z
" style="fill:#dd8452;fill-opacity:0.5;stroke:#ffffff;stroke-linejoin:miter;"/>
   </g>
   <g id="patch_122">
    <path clip-path="url(#paa8619ac26)" d="M 111.643398 664.78 
L 128.183182 664.78 
L 128.183182 664.78 
L 111.643398 664.78 
z
" style="fill:#dd8452;fill-opacity:0.5;stroke:#ffffff;stroke-linejoin:miter;"/>
   </g>
   <g id="patch_123">
    <path clip-path="url(#paa8619ac26)" d="M 128.183182 664.78 
L 144.722966 664.78 
L 144.722966 664.78 
L 128.183182 664.78 
z
" style="fill:#dd8452;fill-opacity:0.5;stroke:#ffffff;stroke-linejoin:miter;"/>
   </g>
   <g id="patch_124">
    <path clip-path="url(#paa8619ac26)" d="M 144.722966 664.78 
L 161.262751 664.78 
L 161.262751 664.78 
L 144.722966 664.78 
z
" style="fill:#dd8452;fill-opacity:0.5;stroke:#ffffff;stroke-linejoin:miter;"/>
   </g>
   <g id="patch_125">
    <path clip-path="url(#paa8619ac26)" d="M 161.262751 664.78 
L 177.802535 664.78 
L 177.802535 664.78 
L 161.262751 664.78 
z
" style="fill:#dd8452;fill-opacity:0.5;stroke:#ffffff;stroke-linejoin:miter;"/>
   </g>
   <g id="patch_126">
    <path clip-path="url(#paa8619ac26)" d="M 177.802535 664.78 
L 194.342319 664.78 
L 194.342319 664.78 
L 177.802535 664.78 
z
" style="fill:#dd8452;fill-opacity:0.5;stroke:#ffffff;stroke-linejoin:miter;"/>
   </g>
   <g id="patch_127">
    <path clip-path="url(#paa8619ac26)" d="M 194.342319 664.78 
L 210.882104 664.78 
L 210.882104 664.78 
L 194.342319 664.78 
z
" style="fill:#dd8452;fill-opacity:0.5;stroke:#ffffff;stroke-linejoin:miter;"/>
   </g>
   <g id="patch_128">
    <path clip-path="url(#paa8619ac26)" d="M 210.882104 664.78 
L 227.421888 664.78 
L 227.421888 664.78 
L 210.882104 664.78 
z
" style="fill:#dd8452;fill-opacity:0.5;stroke:#ffffff;stroke-linejoin:miter;"/>
   </g>
   <g id="patch_129">
    <path clip-path="url(#paa8619ac26)" d="M 227.421888 664.78 
L 243.961672 664.78 
L 243.961672 664.78 
L 227.421888 664.78 
z
" style="fill:#dd8452;fill-opacity:0.5;stroke:#ffffff;stroke-linejoin:miter;"/>
   </g>
   <g id="patch_130">
    <path clip-path="url(#paa8619ac26)" d="M 243.961672 664.78 
L 260.501456 664.78 
L 260.501456 664.78 
L 243.961672 664.78 
z
" style="fill:#dd8452;fill-opacity:0.5;stroke:#ffffff;stroke-linejoin:miter;"/>
   </g>
   <g id="patch_131">
    <path clip-path="url(#paa8619ac26)" d="M 260.501456 664.78 
L 277.041241 664.78 
L 277.041241 664.78 
L 260.501456 664.78 
z
" style="fill:#dd8452;fill-opacity:0.5;stroke:#ffffff;stroke-linejoin:miter;"/>
   </g>
   <g id="patch_132">
    <path clip-path="url(#paa8619ac26)" d="M 277.041241 664.78 
L 293.581025 664.78 
L 293.581025 664.78 
L 277.041241 664.78 
z
" style="fill:#dd8452;fill-opacity:0.5;stroke:#ffffff;stroke-linejoin:miter;"/>
   </g>
   <g id="patch_133">
    <path clip-path="url(#paa8619ac26)" d="M 293.581025 664.78 
L 310.120809 664.78 
L 310.120809 663.978706 
L 293.581025 663.978706 
z
" style="fill:#dd8452;fill-opacity:0.5;stroke:#ffffff;stroke-linejoin:miter;"/>
   </g>
   <g id="patch_134">
    <path clip-path="url(#paa8619ac26)" d="M 310.120809 664.78 
L 326.660594 664.78 
L 326.660594 663.978706 
L 310.120809 663.978706 
z
" style="fill:#dd8452;fill-opacity:0.5;stroke:#ffffff;stroke-linejoin:miter;"/>
   </g>
   <g id="patch_135">
    <path clip-path="url(#paa8619ac26)" d="M 326.660594 664.78 
L 343.200378 664.78 
L 343.200378 664.78 
L 326.660594 664.78 
z
" style="fill:#dd8452;fill-opacity:0.5;stroke:#ffffff;stroke-linejoin:miter;"/>
   </g>
   <g id="patch_136">
    <path clip-path="url(#paa8619ac26)" d="M 343.200378 664.78 
L 359.740162 664.78 
L 359.740162 663.978706 
L 343.200378 663.978706 
z
" style="fill:#dd8452;fill-opacity:0.5;stroke:#ffffff;stroke-linejoin:miter;"/>
   </g>
   <g id="patch_137">
    <path clip-path="url(#paa8619ac26)" d="M 359.740162 664.78 
L 376.279946 664.78 
L 376.279946 662.376118 
L 359.740162 662.376118 
z
" style="fill:#dd8452;fill-opacity:0.5;stroke:#ffffff;stroke-linejoin:miter;"/>
   </g>
   <g id="patch_138">
    <path clip-path="url(#paa8619ac26)" d="M 376.279946 664.78 
L 392.819731 664.78 
L 392.819731 656.76706 
L 376.279946 656.76706 
z
" style="fill:#dd8452;fill-opacity:0.5;stroke:#ffffff;stroke-linejoin:miter;"/>
   </g>
   <g id="patch_139">
    <path clip-path="url(#paa8619ac26)" d="M 392.819731 664.78 
L 409.359515 664.78 
L 409.359515 659.170942 
L 392.819731 659.170942 
z
" style="fill:#dd8452;fill-opacity:0.5;stroke:#ffffff;stroke-linejoin:miter;"/>
   </g>
   <g id="patch_140">
    <path clip-path="url(#paa8619ac26)" d="M 409.359515 664.78 
L 425.899299 664.78 
L 425.899299 654.363177 
L 409.359515 654.363177 
z
" style="fill:#dd8452;fill-opacity:0.5;stroke:#ffffff;stroke-linejoin:miter;"/>
   </g>
   <g id="patch_141">
    <path clip-path="url(#paa8619ac26)" d="M 425.899299 664.78 
L 442.439084 664.78 
L 442.439084 659.170942 
L 425.899299 659.170942 
z
" style="fill:#dd8452;fill-opacity:0.5;stroke:#ffffff;stroke-linejoin:miter;"/>
   </g>
   <g id="patch_142">
    <path clip-path="url(#paa8619ac26)" d="M 442.439084 664.78 
L 458.978868 664.78 
L 458.978868 657.568354 
L 442.439084 657.568354 
z
" style="fill:#dd8452;fill-opacity:0.5;stroke:#ffffff;stroke-linejoin:miter;"/>
   </g>
   <g id="patch_143">
    <path clip-path="url(#paa8619ac26)" d="M 458.978868 664.78 
L 475.518652 664.78 
L 475.518652 652.760589 
L 458.978868 652.760589 
z
" style="fill:#dd8452;fill-opacity:0.5;stroke:#ffffff;stroke-linejoin:miter;"/>
   </g>
   <g id="patch_144">
    <path clip-path="url(#paa8619ac26)" d="M 475.518652 664.78 
L 492.058436 664.78 
L 492.058436 636.734709 
L 475.518652 636.734709 
z
" style="fill:#dd8452;fill-opacity:0.5;stroke:#ffffff;stroke-linejoin:miter;"/>
   </g>
   <g id="patch_145">
    <path clip-path="url(#paa8619ac26)" d="M 492.058436 664.78 
L 508.598221 664.78 
L 508.598221 644.747649 
L 492.058436 644.747649 
z
" style="fill:#dd8452;fill-opacity:0.5;stroke:#ffffff;stroke-linejoin:miter;"/>
   </g>
   <g id="patch_146">
    <path clip-path="url(#paa8619ac26)" d="M 508.598221 664.78 
L 525.138005 664.78 
L 525.138005 628.721768 
L 508.598221 628.721768 
z
" style="fill:#dd8452;fill-opacity:0.5;stroke:#ffffff;stroke-linejoin:miter;"/>
   </g>
   <g id="patch_147">
    <path clip-path="url(#paa8619ac26)" d="M 525.138005 664.78 
L 541.677789 664.78 
L 541.677789 632.728238 
L 525.138005 632.728238 
z
" style="fill:#dd8452;fill-opacity:0.5;stroke:#ffffff;stroke-linejoin:miter;"/>
   </g>
   <g id="patch_148">
    <path clip-path="url(#paa8619ac26)" d="M 541.677789 664.78 
L 558.217574 664.78 
L 558.217574 627.920474 
L 541.677789 627.920474 
z
" style="fill:#dd8452;fill-opacity:0.5;stroke:#ffffff;stroke-linejoin:miter;"/>
   </g>
   <g id="patch_149">
    <path clip-path="url(#paa8619ac26)" d="M 558.217574 664.78 
L 574.757358 664.78 
L 574.757358 601.477771 
L 558.217574 601.477771 
z
" style="fill:#dd8452;fill-opacity:0.5;stroke:#ffffff;stroke-linejoin:miter;"/>
   </g>
   <g id="patch_150">
    <path clip-path="url(#paa8619ac26)" d="M 574.757358 664.78 
L 591.297142 664.78 
L 591.297142 599.875183 
L 574.757358 599.875183 
z
" style="fill:#dd8452;fill-opacity:0.5;stroke:#ffffff;stroke-linejoin:miter;"/>
   </g>
   <g id="patch_151">
    <path clip-path="url(#paa8619ac26)" d="M 591.297142 664.78 
L 607.836926 664.78 
L 607.836926 587.054478 
L 591.297142 587.054478 
z
" style="fill:#dd8452;fill-opacity:0.5;stroke:#ffffff;stroke-linejoin:miter;"/>
   </g>
   <g id="patch_152">
    <path clip-path="url(#paa8619ac26)" d="M 607.836926 664.78 
L 624.376711 664.78 
L 624.376711 585.45189 
L 607.836926 585.45189 
z
" style="fill:#dd8452;fill-opacity:0.5;stroke:#ffffff;stroke-linejoin:miter;"/>
   </g>
   <g id="patch_153">
    <path clip-path="url(#paa8619ac26)" d="M 624.376711 664.78 
L 640.916495 664.78 
L 640.916495 577.43895 
L 624.376711 577.43895 
z
" style="fill:#dd8452;fill-opacity:0.5;stroke:#ffffff;stroke-linejoin:miter;"/>
   </g>
   <g id="patch_154">
    <path clip-path="url(#paa8619ac26)" d="M 640.916495 664.78 
L 657.456279 664.78 
L 657.456279 532.566483 
L 640.916495 532.566483 
z
" style="fill:#dd8452;fill-opacity:0.5;stroke:#ffffff;stroke-linejoin:miter;"/>
   </g>
   <g id="patch_155">
    <path clip-path="url(#paa8619ac26)" d="M 657.456279 664.78 
L 673.996064 664.78 
L 673.996064 554.201422 
L 657.456279 554.201422 
z
" style="fill:#dd8452;fill-opacity:0.5;stroke:#ffffff;stroke-linejoin:miter;"/>
   </g>
   <g id="patch_156">
    <path clip-path="url(#paa8619ac26)" d="M 673.996064 664.78 
L 690.535848 664.78 
L 690.535848 567.022127 
L 673.996064 567.022127 
z
" style="fill:#dd8452;fill-opacity:0.5;stroke:#ffffff;stroke-linejoin:miter;"/>
   </g>
   <g id="patch_157">
    <path clip-path="url(#paa8619ac26)" d="M 690.535848 664.78 
L 707.075632 664.78 
L 707.075632 523.752249 
L 690.535848 523.752249 
z
" style="fill:#dd8452;fill-opacity:0.5;stroke:#ffffff;stroke-linejoin:miter;"/>
   </g>
   <g id="patch_158">
    <path clip-path="url(#paa8619ac26)" d="M 707.075632 664.78 
L 723.615416 664.78 
L 723.615416 528.560013 
L 707.075632 528.560013 
z
" style="fill:#dd8452;fill-opacity:0.5;stroke:#ffffff;stroke-linejoin:miter;"/>
   </g>
   <g id="patch_159">
    <path clip-path="url(#paa8619ac26)" d="M 723.615416 664.78 
L 740.155201 664.78 
L 740.155201 534.970365 
L 723.615416 534.970365 
z
" style="fill:#dd8452;fill-opacity:0.5;stroke:#ffffff;stroke-linejoin:miter;"/>
   </g>
   <g id="patch_160">
    <path clip-path="url(#paa8619ac26)" d="M 740.155201 664.78 
L 756.694985 664.78 
L 756.694985 506.12378 
L 740.155201 506.12378 
z
" style="fill:#dd8452;fill-opacity:0.5;stroke:#ffffff;stroke-linejoin:miter;"/>
   </g>
   <g id="patch_161">
    <path clip-path="url(#paa8619ac26)" d="M 756.694985 664.78 
L 773.234769 664.78 
L 773.234769 521.348367 
L 756.694985 521.348367 
z
" style="fill:#dd8452;fill-opacity:0.5;stroke:#ffffff;stroke-linejoin:miter;"/>
   </g>
   <g id="patch_162">
    <path clip-path="url(#paa8619ac26)" d="M 773.234769 664.78 
L 789.774554 664.78 
L 789.774554 529.361307 
L 773.234769 529.361307 
z
" style="fill:#dd8452;fill-opacity:0.5;stroke:#ffffff;stroke-linejoin:miter;"/>
   </g>
   <g id="patch_163">
    <path clip-path="url(#paa8619ac26)" d="M 789.774554 664.78 
L 806.314338 664.78 
L 806.314338 546.989776 
L 789.774554 546.989776 
z
" style="fill:#dd8452;fill-opacity:0.5;stroke:#ffffff;stroke-linejoin:miter;"/>
   </g>
   <g id="patch_164">
    <path clip-path="url(#paa8619ac26)" d="M 806.314338 664.78 
L 822.854122 664.78 
L 822.854122 566.220833 
L 806.314338 566.220833 
z
" style="fill:#dd8452;fill-opacity:0.5;stroke:#ffffff;stroke-linejoin:miter;"/>
   </g>
   <g id="patch_165">
    <path clip-path="url(#paa8619ac26)" d="M 822.854122 664.78 
L 839.393906 664.78 
L 839.393906 564.618245 
L 822.854122 564.618245 
z
" style="fill:#dd8452;fill-opacity:0.5;stroke:#ffffff;stroke-linejoin:miter;"/>
   </g>
   <g id="patch_166">
    <path clip-path="url(#paa8619ac26)" d="M 839.393906 664.78 
L 855.933691 664.78 
L 855.933691 587.054478 
L 839.393906 587.054478 
z
" style="fill:#dd8452;fill-opacity:0.5;stroke:#ffffff;stroke-linejoin:miter;"/>
   </g>
   <g id="patch_167">
    <path clip-path="url(#paa8619ac26)" d="M 855.933691 664.78 
L 872.473475 664.78 
L 872.473475 613.497181 
L 855.933691 613.497181 
z
" style="fill:#dd8452;fill-opacity:0.5;stroke:#ffffff;stroke-linejoin:miter;"/>
   </g>
   <g id="patch_168">
    <path clip-path="url(#paa8619ac26)" d="M 872.473475 664.78 
L 889.013259 664.78 
L 889.013259 610.292005 
L 872.473475 610.292005 
z
" style="fill:#dd8452;fill-opacity:0.5;stroke:#ffffff;stroke-linejoin:miter;"/>
   </g>
   <g id="patch_169">
    <path clip-path="url(#paa8619ac26)" d="M 889.013259 664.78 
L 905.553044 664.78 
L 905.553044 625.516592 
L 889.013259 625.516592 
z
" style="fill:#dd8452;fill-opacity:0.5;stroke:#ffffff;stroke-linejoin:miter;"/>
   </g>
   <g id="patch_170">
    <path clip-path="url(#paa8619ac26)" d="M 905.553044 664.78 
L 922.092828 664.78 
L 922.092828 639.138591 
L 905.553044 639.138591 
z
" style="fill:#dd8452;fill-opacity:0.5;stroke:#ffffff;stroke-linejoin:miter;"/>
   </g>
   <g id="patch_171">
    <path clip-path="url(#paa8619ac26)" d="M 922.092828 664.78 
L 938.632612 664.78 
L 938.632612 654.363177 
L 922.092828 654.363177 
z
" style="fill:#dd8452;fill-opacity:0.5;stroke:#ffffff;stroke-linejoin:miter;"/>
   </g>
   <g id="patch_172">
    <path clip-path="url(#paa8619ac26)" d="M 938.632612 664.78 
L 955.172396 664.78 
L 955.172396 649.555413 
L 938.632612 649.555413 
z
" style="fill:#dd8452;fill-opacity:0.5;stroke:#ffffff;stroke-linejoin:miter;"/>
   </g>
   <g id="patch_173">
    <path clip-path="url(#paa8619ac26)" d="M 955.172396 664.78 
L 971.712181 664.78 
L 971.712181 661.574824 
L 955.172396 661.574824 
z
" style="fill:#dd8452;fill-opacity:0.5;stroke:#ffffff;stroke-linejoin:miter;"/>
   </g>
   <g id="patch_174">
    <path clip-path="url(#paa8619ac26)" d="M 971.712181 664.78 
L 988.251965 664.78 
L 988.251965 662.376118 
L 971.712181 662.376118 
z
" style="fill:#dd8452;fill-opacity:0.5;stroke:#ffffff;stroke-linejoin:miter;"/>
   </g>
   <g id="patch_175">
    <path clip-path="url(#paa8619ac26)" d="M 988.251965 664.78 
L 1004.791749 664.78 
L 1004.791749 662.376118 
L 988.251965 662.376118 
z
" style="fill:#dd8452;fill-opacity:0.5;stroke:#ffffff;stroke-linejoin:miter;"/>
   </g>
   <g id="patch_176">
    <path clip-path="url(#paa8619ac26)" d="M 1004.791749 664.78 
L 1021.331534 664.78 
L 1021.331534 663.177412 
L 1004.791749 663.177412 
z
" style="fill:#dd8452;fill-opacity:0.5;stroke:#ffffff;stroke-linejoin:miter;"/>
   </g>
   <g id="patch_177">
    <path clip-path="url(#paa8619ac26)" d="M 1021.331534 664.78 
L 1037.871318 664.78 
L 1037.871318 664.78 
L 1021.331534 664.78 
z
" style="fill:#dd8452;fill-opacity:0.5;stroke:#ffffff;stroke-linejoin:miter;"/>
   </g>
   <g id="patch_178">
    <path clip-path="url(#paa8619ac26)" d="M 1037.871318 664.78 
L 1054.411102 664.78 
L 1054.411102 664.78 
L 1037.871318 664.78 
z
" style="fill:#dd8452;fill-opacity:0.5;stroke:#ffffff;stroke-linejoin:miter;"/>
   </g>
   <g id="patch_179">
    <path clip-path="url(#paa8619ac26)" d="M 1054.411102 664.78 
L 1070.950886 664.78 
L 1070.950886 663.978706 
L 1054.411102 663.978706 
z
" style="fill:#dd8452;fill-opacity:0.5;stroke:#ffffff;stroke-linejoin:miter;"/>
   </g>
   <g id="patch_180">
    <path clip-path="url(#paa8619ac26)" d="M 95.103614 664.78 
L 111.643398 664.78 
L 111.643398 664.78 
L 95.103614 664.78 
z
" style="fill:#4c72b0;fill-opacity:0.5;stroke:#ffffff;stroke-linejoin:miter;"/>
   </g>
   <g id="patch_181">
    <path clip-path="url(#paa8619ac26)" d="M 111.643398 664.78 
L 128.183182 664.78 
L 128.183182 664.78 
L 111.643398 664.78 
z
" style="fill:#4c72b0;fill-opacity:0.5;stroke:#ffffff;stroke-linejoin:miter;"/>
   </g>
   <g id="patch_182">
    <path clip-path="url(#paa8619ac26)" d="M 128.183182 664.78 
L 144.722966 664.78 
L 144.722966 663.144839 
L 128.183182 663.144839 
z
" style="fill:#4c72b0;fill-opacity:0.5;stroke:#ffffff;stroke-linejoin:miter;"/>
   </g>
   <g id="patch_183">
    <path clip-path="url(#paa8619ac26)" d="M 144.722966 664.78 
L 161.262751 664.78 
L 161.262751 663.144839 
L 144.722966 663.144839 
z
" style="fill:#4c72b0;fill-opacity:0.5;stroke:#ffffff;stroke-linejoin:miter;"/>
   </g>
   <g id="patch_184">
    <path clip-path="url(#paa8619ac26)" d="M 161.262751 664.78 
L 177.802535 664.78 
L 177.802535 664.78 
L 161.262751 664.78 
z
" style="fill:#4c72b0;fill-opacity:0.5;stroke:#ffffff;stroke-linejoin:miter;"/>
   </g>
   <g id="patch_185">
    <path clip-path="url(#paa8619ac26)" d="M 177.802535 664.78 
L 194.342319 664.78 
L 194.342319 664.78 
L 177.802535 664.78 
z
" style="fill:#4c72b0;fill-opacity:0.5;stroke:#ffffff;stroke-linejoin:miter;"/>
   </g>
   <g id="patch_186">
    <path clip-path="url(#paa8619ac26)" d="M 194.342319 664.78 
L 210.882104 664.78 
L 210.882104 664.78 
L 194.342319 664.78 
z
" style="fill:#4c72b0;fill-opacity:0.5;stroke:#ffffff;stroke-linejoin:miter;"/>
   </g>
   <g id="patch_187">
    <path clip-path="url(#paa8619ac26)" d="M 210.882104 664.78 
L 227.421888 664.78 
L 227.421888 664.78 
L 210.882104 664.78 
z
" style="fill:#4c72b0;fill-opacity:0.5;stroke:#ffffff;stroke-linejoin:miter;"/>
   </g>
   <g id="patch_188">
    <path clip-path="url(#paa8619ac26)" d="M 227.421888 664.78 
L 243.961672 664.78 
L 243.961672 663.144839 
L 227.421888 663.144839 
z
" style="fill:#4c72b0;fill-opacity:0.5;stroke:#ffffff;stroke-linejoin:miter;"/>
   </g>
   <g id="patch_189">
    <path clip-path="url(#paa8619ac26)" d="M 243.961672 664.78 
L 260.501456 664.78 
L 260.501456 663.144839 
L 243.961672 663.144839 
z
" style="fill:#4c72b0;fill-opacity:0.5;stroke:#ffffff;stroke-linejoin:miter;"/>
   </g>
   <g id="patch_190">
    <path clip-path="url(#paa8619ac26)" d="M 260.501456 664.78 
L 277.041241 664.78 
L 277.041241 663.144839 
L 260.501456 663.144839 
z
" style="fill:#4c72b0;fill-opacity:0.5;stroke:#ffffff;stroke-linejoin:miter;"/>
   </g>
   <g id="patch_191">
    <path clip-path="url(#paa8619ac26)" d="M 277.041241 664.78 
L 293.581025 664.78 
L 293.581025 663.144839 
L 277.041241 663.144839 
z
" style="fill:#4c72b0;fill-opacity:0.5;stroke:#ffffff;stroke-linejoin:miter;"/>
   </g>
   <g id="patch_192">
    <path clip-path="url(#paa8619ac26)" d="M 293.581025 664.78 
L 310.120809 664.78 
L 310.120809 659.874517 
L 293.581025 659.874517 
z
" style="fill:#4c72b0;fill-opacity:0.5;stroke:#ffffff;stroke-linejoin:miter;"/>
   </g>
   <g id="patch_193">
    <path clip-path="url(#paa8619ac26)" d="M 310.120809 664.78 
L 326.660594 664.78 
L 326.660594 663.144839 
L 310.120809 663.144839 
z
" style="fill:#4c72b0;fill-opacity:0.5;stroke:#ffffff;stroke-linejoin:miter;"/>
   </g>
   <g id="patch_194">
    <path clip-path="url(#paa8619ac26)" d="M 326.660594 664.78 
L 343.200378 664.78 
L 343.200378 638.617424 
L 326.660594 638.617424 
z
" style="fill:#4c72b0;fill-opacity:0.5;stroke:#ffffff;stroke-linejoin:miter;"/>
   </g>
   <g id="patch_195">
    <path clip-path="url(#paa8619ac26)" d="M 343.200378 664.78 
L 359.740162 664.78 
L 359.740162 641.887746 
L 343.200378 641.887746 
z
" style="fill:#4c72b0;fill-opacity:0.5;stroke:#ffffff;stroke-linejoin:miter;"/>
   </g>
   <g id="patch_196">
    <path clip-path="url(#paa8619ac26)" d="M 359.740162 664.78 
L 376.279946 664.78 
L 376.279946 622.265814 
L 359.740162 622.265814 
z
" style="fill:#4c72b0;fill-opacity:0.5;stroke:#ffffff;stroke-linejoin:miter;"/>
   </g>
   <g id="patch_197">
    <path clip-path="url(#paa8619ac26)" d="M 376.279946 664.78 
L 392.819731 664.78 
L 392.819731 620.630653 
L 376.279946 620.630653 
z
" style="fill:#4c72b0;fill-opacity:0.5;stroke:#ffffff;stroke-linejoin:miter;"/>
   </g>
   <g id="patch_198">
    <path clip-path="url(#paa8619ac26)" d="M 392.819731 664.78 
L 409.359515 664.78 
L 409.359515 609.184526 
L 392.819731 609.184526 
z
" style="fill:#4c72b0;fill-opacity:0.5;stroke:#ffffff;stroke-linejoin:miter;"/>
   </g>
   <g id="patch_199">
    <path clip-path="url(#paa8619ac26)" d="M 409.359515 664.78 
L 425.899299 664.78 
L 425.899299 566.670339 
L 409.359515 566.670339 
z
" style="fill:#4c72b0;fill-opacity:0.5;stroke:#ffffff;stroke-linejoin:miter;"/>
   </g>
   <g id="patch_200">
    <path clip-path="url(#paa8619ac26)" d="M 425.899299 664.78 
L 442.439084 664.78 
L 442.439084 556.859373 
L 425.899299 556.859373 
z
" style="fill:#4c72b0;fill-opacity:0.5;stroke:#ffffff;stroke-linejoin:miter;"/>
   </g>
   <g id="patch_201">
    <path clip-path="url(#paa8619ac26)" d="M 442.439084 664.78 
L 458.978868 664.78 
L 458.978868 540.507763 
L 442.439084 540.507763 
z
" style="fill:#4c72b0;fill-opacity:0.5;stroke:#ffffff;stroke-linejoin:miter;"/>
   </g>
   <g id="patch_202">
    <path clip-path="url(#paa8619ac26)" d="M 458.978868 664.78 
L 475.518652 664.78 
L 475.518652 450.573908 
L 458.978868 450.573908 
z
" style="fill:#4c72b0;fill-opacity:0.5;stroke:#ffffff;stroke-linejoin:miter;"/>
   </g>
   <g id="patch_203">
    <path clip-path="url(#paa8619ac26)" d="M 475.518652 664.78 
L 492.058436 664.78 
L 492.058436 494.723255 
L 475.518652 494.723255 
z
" style="fill:#4c72b0;fill-opacity:0.5;stroke:#ffffff;stroke-linejoin:miter;"/>
   </g>
   <g id="patch_204">
    <path clip-path="url(#paa8619ac26)" d="M 492.058436 664.78 
L 508.598221 664.78 
L 508.598221 473.466162 
L 492.058436 473.466162 
z
" style="fill:#4c72b0;fill-opacity:0.5;stroke:#ffffff;stroke-linejoin:miter;"/>
   </g>
   <g id="patch_205">
    <path clip-path="url(#paa8619ac26)" d="M 508.598221 664.78 
L 525.138005 664.78 
L 525.138005 385.167467 
L 508.598221 385.167467 
z
" style="fill:#4c72b0;fill-opacity:0.5;stroke:#ffffff;stroke-linejoin:miter;"/>
   </g>
   <g id="patch_206">
    <path clip-path="url(#paa8619ac26)" d="M 525.138005 664.78 
L 541.677789 664.78 
L 541.677789 411.330044 
L 525.138005 411.330044 
z
" style="fill:#4c72b0;fill-opacity:0.5;stroke:#ffffff;stroke-linejoin:miter;"/>
   </g>
   <g id="patch_207">
    <path clip-path="url(#paa8619ac26)" d="M 541.677789 664.78 
L 558.217574 664.78 
L 558.217574 354.099408 
L 541.677789 354.099408 
z
" style="fill:#4c72b0;fill-opacity:0.5;stroke:#ffffff;stroke-linejoin:miter;"/>
   </g>
   <g id="patch_208">
    <path clip-path="url(#paa8619ac26)" d="M 558.217574 664.78 
L 574.757358 664.78 
L 574.757358 229.827171 
L 558.217574 229.827171 
z
" style="fill:#4c72b0;fill-opacity:0.5;stroke:#ffffff;stroke-linejoin:miter;"/>
   </g>
   <g id="patch_209">
    <path clip-path="url(#paa8619ac26)" d="M 574.757358 664.78 
L 591.297142 664.78 
L 591.297142 336.112637 
L 574.757358 336.112637 
z
" style="fill:#4c72b0;fill-opacity:0.5;stroke:#ffffff;stroke-linejoin:miter;"/>
   </g>
   <g id="patch_210">
    <path clip-path="url(#paa8619ac26)" d="M 591.297142 664.78 
L 607.836926 664.78 
L 607.836926 220.016205 
L 591.297142 220.016205 
z
" style="fill:#4c72b0;fill-opacity:0.5;stroke:#ffffff;stroke-linejoin:miter;"/>
   </g>
   <g id="patch_211">
    <path clip-path="url(#paa8619ac26)" d="M 607.836926 664.78 
L 624.376711 664.78 
L 624.376711 323.031349 
L 607.836926 323.031349 
z
" style="fill:#4c72b0;fill-opacity:0.5;stroke:#ffffff;stroke-linejoin:miter;"/>
   </g>
   <g id="patch_212">
    <path clip-path="url(#paa8619ac26)" d="M 624.376711 664.78 
L 640.916495 664.78 
L 640.916495 275.61168 
L 624.376711 275.61168 
z
" style="fill:#4c72b0;fill-opacity:0.5;stroke:#ffffff;stroke-linejoin:miter;"/>
   </g>
   <g id="patch_213">
    <path clip-path="url(#paa8619ac26)" d="M 640.916495 664.78 
L 657.456279 664.78 
L 657.456279 206.934917 
L 640.916495 206.934917 
z
" style="fill:#4c72b0;fill-opacity:0.5;stroke:#ffffff;stroke-linejoin:miter;"/>
   </g>
   <g id="patch_214">
    <path clip-path="url(#paa8619ac26)" d="M 657.456279 664.78 
L 673.996064 664.78 
L 673.996064 193.853629 
L 657.456279 193.853629 
z
" style="fill:#4c72b0;fill-opacity:0.5;stroke:#ffffff;stroke-linejoin:miter;"/>
   </g>
   <g id="patch_215">
    <path clip-path="url(#paa8619ac26)" d="M 673.996064 664.78 
L 690.535848 664.78 
L 690.535848 218.381044 
L 673.996064 218.381044 
z
" style="fill:#4c72b0;fill-opacity:0.5;stroke:#ffffff;stroke-linejoin:miter;"/>
   </g>
   <g id="patch_216">
    <path clip-path="url(#paa8619ac26)" d="M 690.535848 664.78 
L 707.075632 664.78 
L 707.075632 38.513333 
L 690.535848 38.513333 
z
" style="fill:#4c72b0;fill-opacity:0.5;stroke:#ffffff;stroke-linejoin:miter;"/>
   </g>
   <g id="patch_217">
    <path clip-path="url(#paa8619ac26)" d="M 707.075632 664.78 
L 723.615416 664.78 
L 723.615416 221.651366 
L 707.075632 221.651366 
z
" style="fill:#4c72b0;fill-opacity:0.5;stroke:#ffffff;stroke-linejoin:miter;"/>
   </g>
   <g id="patch_218">
    <path clip-path="url(#paa8619ac26)" d="M 723.615416 664.78 
L 740.155201 664.78 
L 740.155201 203.664595 
L 723.615416 203.664595 
z
" style="fill:#4c72b0;fill-opacity:0.5;stroke:#ffffff;stroke-linejoin:miter;"/>
   </g>
   <g id="patch_219">
    <path clip-path="url(#paa8619ac26)" d="M 740.155201 664.78 
L 756.694985 664.78 
L 756.694985 136.622994 
L 740.155201 136.622994 
z
" style="fill:#4c72b0;fill-opacity:0.5;stroke:#ffffff;stroke-linejoin:miter;"/>
   </g>
   <g id="patch_220">
    <path clip-path="url(#paa8619ac26)" d="M 756.694985 664.78 
L 773.234769 664.78 
L 773.234769 231.462332 
L 756.694985 231.462332 
z
" style="fill:#4c72b0;fill-opacity:0.5;stroke:#ffffff;stroke-linejoin:miter;"/>
   </g>
   <g id="patch_221">
    <path clip-path="url(#paa8619ac26)" d="M 773.234769 664.78 
L 789.774554 664.78 
L 789.774554 262.530392 
L 773.234769 262.530392 
z
" style="fill:#4c72b0;fill-opacity:0.5;stroke:#ffffff;stroke-linejoin:miter;"/>
   </g>
   <g id="patch_222">
    <path clip-path="url(#paa8619ac26)" d="M 789.774554 664.78 
L 806.314338 664.78 
L 806.314338 273.976519 
L 789.774554 273.976519 
z
" style="fill:#4c72b0;fill-opacity:0.5;stroke:#ffffff;stroke-linejoin:miter;"/>
   </g>
   <g id="patch_223">
    <path clip-path="url(#paa8619ac26)" d="M 806.314338 664.78 
L 822.854122 664.78 
L 822.854122 386.802628 
L 806.314338 386.802628 
z
" style="fill:#4c72b0;fill-opacity:0.5;stroke:#ffffff;stroke-linejoin:miter;"/>
   </g>
   <g id="patch_224">
    <path clip-path="url(#paa8619ac26)" d="M 822.854122 664.78 
L 839.393906 664.78 
L 839.393906 365.545535 
L 822.854122 365.545535 
z
" style="fill:#4c72b0;fill-opacity:0.5;stroke:#ffffff;stroke-linejoin:miter;"/>
   </g>
   <g id="patch_225">
    <path clip-path="url(#paa8619ac26)" d="M 839.393906 664.78 
L 855.933691 664.78 
L 855.933691 434.222298 
L 839.393906 434.222298 
z
" style="fill:#4c72b0;fill-opacity:0.5;stroke:#ffffff;stroke-linejoin:miter;"/>
   </g>
   <g id="patch_226">
    <path clip-path="url(#paa8619ac26)" d="M 855.933691 664.78 
L 872.473475 664.78 
L 872.473475 491.452933 
L 855.933691 491.452933 
z
" style="fill:#4c72b0;fill-opacity:0.5;stroke:#ffffff;stroke-linejoin:miter;"/>
   </g>
   <g id="patch_227">
    <path clip-path="url(#paa8619ac26)" d="M 872.473475 664.78 
L 889.013259 664.78 
L 889.013259 547.048407 
L 872.473475 547.048407 
z
" style="fill:#4c72b0;fill-opacity:0.5;stroke:#ffffff;stroke-linejoin:miter;"/>
   </g>
   <g id="patch_228">
    <path clip-path="url(#paa8619ac26)" d="M 889.013259 664.78 
L 905.553044 664.78 
L 905.553044 601.008721 
L 889.013259 601.008721 
z
" style="fill:#4c72b0;fill-opacity:0.5;stroke:#ffffff;stroke-linejoin:miter;"/>
   </g>
   <g id="patch_229">
    <path clip-path="url(#paa8619ac26)" d="M 905.553044 664.78 
L 922.092828 664.78 
L 922.092828 618.995492 
L 905.553044 618.995492 
z
" style="fill:#4c72b0;fill-opacity:0.5;stroke:#ffffff;stroke-linejoin:miter;"/>
   </g>
   <g id="patch_230">
    <path clip-path="url(#paa8619ac26)" d="M 922.092828 664.78 
L 938.632612 664.78 
L 938.632612 630.441619 
L 922.092828 630.441619 
z
" style="fill:#4c72b0;fill-opacity:0.5;stroke:#ffffff;stroke-linejoin:miter;"/>
   </g>
   <g id="patch_231">
    <path clip-path="url(#paa8619ac26)" d="M 938.632612 664.78 
L 955.172396 664.78 
L 955.172396 648.42839 
L 938.632612 648.42839 
z
" style="fill:#4c72b0;fill-opacity:0.5;stroke:#ffffff;stroke-linejoin:miter;"/>
   </g>
   <g id="patch_232">
    <path clip-path="url(#paa8619ac26)" d="M 955.172396 664.78 
L 971.712181 664.78 
L 971.712181 646.793229 
L 955.172396 646.793229 
z
" style="fill:#4c72b0;fill-opacity:0.5;stroke:#ffffff;stroke-linejoin:miter;"/>
   </g>
   <g id="patch_233">
    <path clip-path="url(#paa8619ac26)" d="M 971.712181 664.78 
L 988.251965 664.78 
L 988.251965 656.604195 
L 971.712181 656.604195 
z
" style="fill:#4c72b0;fill-opacity:0.5;stroke:#ffffff;stroke-linejoin:miter;"/>
   </g>
   <g id="patch_234">
    <path clip-path="url(#paa8619ac26)" d="M 988.251965 664.78 
L 1004.791749 664.78 
L 1004.791749 663.144839 
L 988.251965 663.144839 
z
" style="fill:#4c72b0;fill-opacity:0.5;stroke:#ffffff;stroke-linejoin:miter;"/>
   </g>
   <g id="patch_235">
    <path clip-path="url(#paa8619ac26)" d="M 1004.791749 664.78 
L 1021.331534 664.78 
L 1021.331534 661.509678 
L 1004.791749 661.509678 
z
" style="fill:#4c72b0;fill-opacity:0.5;stroke:#ffffff;stroke-linejoin:miter;"/>
   </g>
   <g id="patch_236">
    <path clip-path="url(#paa8619ac26)" d="M 1021.331534 664.78 
L 1037.871318 664.78 
L 1037.871318 661.509678 
L 1021.331534 661.509678 
z
" style="fill:#4c72b0;fill-opacity:0.5;stroke:#ffffff;stroke-linejoin:miter;"/>
   </g>
   <g id="patch_237">
    <path clip-path="url(#paa8619ac26)" d="M 1037.871318 664.78 
L 1054.411102 664.78 
L 1054.411102 664.78 
L 1037.871318 664.78 
z
" style="fill:#4c72b0;fill-opacity:0.5;stroke:#ffffff;stroke-linejoin:miter;"/>
   </g>
   <g id="patch_238">
    <path clip-path="url(#paa8619ac26)" d="M 1054.411102 664.78 
L 1070.950886 664.78 
L 1070.950886 664.78 
L 1054.411102 664.78 
z
" style="fill:#4c72b0;fill-opacity:0.5;stroke:#ffffff;stroke-linejoin:miter;"/>
   </g>
   <g id="line2d_14">
    <path clip-path="url(#paa8619ac26)" d="M 95.103614 664.400325 
L 114.718634 663.972476 
L 129.4299 663.378828 
L 139.23741 662.788064 
L 149.04492 661.983046 
L 153.948675 661.460453 
L 158.85243 660.825663 
L 163.756186 660.053433 
L 168.659941 659.124233 
L 173.563696 658.029514 
L 178.467451 656.774884 
L 188.274961 653.878594 
L 207.889982 647.685807 
L 212.793737 646.325328 
L 217.697492 645.116008 
L 222.601247 644.073395 
L 227.505002 643.194275 
L 237.312513 641.831289 
L 252.023778 640.257075 
L 266.735044 638.643529 
L 276.542554 637.387575 
L 310.86884 632.649062 
L 359.906391 627.245244 
L 369.713901 626.534376 
L 374.617657 626.361221 
L 379.521412 626.337344 
L 384.425167 626.476024 
L 389.328922 626.781641 
L 394.232677 627.248325 
L 399.136432 627.860868 
L 408.943943 629.440762 
L 418.751453 631.394073 
L 428.558963 633.730552 
L 433.462718 635.07288 
L 438.366473 636.541216 
L 448.173984 639.81872 
L 482.50027 652.053876 
L 492.30778 654.999123 
L 497.211535 656.282062 
L 502.11529 657.419529 
L 507.019045 658.40949 
L 511.9228 659.261823 
L 521.730311 660.636877 
L 531.537821 661.724837 
L 541.345331 662.628558 
L 551.152842 663.342079 
L 560.960352 663.83773 
L 575.671617 664.25246 
L 600.190393 664.612768 
L 624.709169 664.761854 
L 698.265496 664.78 
L 1070.950886 664.78 
L 1070.950886 664.78 
" style="fill:none;stroke:#c44e52;stroke-linecap:round;stroke-width:1.5;"/>
   </g>
   <g id="line2d_15">
    <path clip-path="url(#paa8619ac26)" d="M 95.103614 664.777741 
L 129.4299 664.678073 
L 173.563696 664.365541 
L 202.986227 664.370868 
L 242.216268 664.027194 
L 256.927533 664.011593 
L 266.735044 663.807203 
L 276.542554 663.248252 
L 281.446309 662.795824 
L 286.350064 662.220906 
L 296.157574 660.730305 
L 305.965085 658.863893 
L 315.772595 656.634881 
L 320.67635 655.327904 
L 325.580105 653.833279 
L 330.48386 652.098963 
L 335.387615 650.079151 
L 340.291371 647.744125 
L 345.195126 645.086322 
L 350.098881 642.120827 
L 355.002636 638.880289 
L 359.906391 635.406086 
L 364.810146 631.738645 
L 369.713901 627.90972 
L 379.521412 619.829799 
L 384.425167 615.57768 
L 389.328922 611.163998 
L 394.232677 606.558519 
L 399.136432 601.715585 
L 404.040187 596.570844 
L 408.943943 591.040813 
L 413.847698 585.028188 
L 418.751453 578.434061 
L 423.655208 571.175457 
L 428.558963 563.203951 
L 433.462718 554.519724 
L 438.366473 545.176138 
L 443.270229 535.272654 
L 448.173984 524.937712 
L 457.981494 503.500024 
L 487.404025 438.392987 
L 497.211535 417.469908 
L 502.11529 407.489415 
L 507.019045 398.01478 
L 511.9228 389.198169 
L 516.826556 381.18089 
L 521.730311 374.074026 
L 526.634066 367.942341 
L 531.537821 362.795028 
L 536.441576 358.585202 
L 541.345331 355.217842 
L 546.249086 352.56357 
L 551.152842 350.474284 
L 556.056597 348.796611 
L 560.960352 347.380702 
L 570.767862 344.775392 
L 575.671617 343.334454 
L 580.575372 341.663379 
L 585.479128 339.697358 
L 590.382883 337.420162 
L 595.286638 334.878025 
L 605.094148 329.535819 
L 609.997903 327.164663 
L 614.901658 325.348158 
L 619.805414 324.355383 
L 624.709169 324.408554 
L 629.612924 325.641767 
L 634.516679 328.069686 
L 639.420434 331.574932 
L 644.324189 335.919596 
L 649.227944 340.780496 
L 654.1317 345.801351 
L 659.035455 350.65035 
L 663.93921 355.070519 
L 668.842965 358.913139 
L 673.74672 362.149781 
L 678.650475 364.864048 
L 693.361741 371.834392 
L 698.265496 374.555693 
L 703.169251 377.820064 
L 708.073006 381.749696 
L 712.976761 386.393114 
L 717.880516 391.728833 
L 722.784271 397.679753 
L 727.688027 404.134336 
L 732.591782 410.969396 
L 742.399292 425.340304 
L 776.725578 476.830005 
L 786.533088 490.604043 
L 806.148109 517.172827 
L 811.051864 524.088554 
L 820.859374 538.536466 
L 835.57064 560.638299 
L 840.474395 567.673806 
L 845.37815 574.400728 
L 850.281905 580.790883 
L 855.18566 586.852786 
L 860.089415 592.618592 
L 864.993171 598.128366 
L 869.896926 603.416881 
L 874.800681 608.506009 
L 879.704436 613.402903 
L 884.608191 618.101942 
L 889.511946 622.587831 
L 894.415701 626.838205 
L 899.319456 630.825707 
L 904.223212 634.520634 
L 909.126967 637.895164 
L 914.030722 640.929081 
L 918.934477 643.6156 
L 923.838232 645.965301 
L 928.741987 648.006631 
L 933.645742 649.782653 
L 938.549498 651.345015 
L 948.357008 654.035971 
L 958.164518 656.414139 
L 967.972028 658.618464 
L 977.779539 660.587433 
L 982.683294 661.433296 
L 987.587049 662.161166 
L 992.490804 662.760857 
L 997.394559 663.232594 
L 1007.20207 663.842804 
L 1017.00958 664.151818 
L 1041.528356 664.534923 
L 1066.047131 664.740305 
L 1070.950886 664.756087 
L 1070.950886 664.756087 
" style="fill:none;stroke:#55a868;stroke-linecap:round;stroke-width:1.5;"/>
   </g>
   <g id="line2d_16">
    <path clip-path="url(#paa8619ac26)" d="M 95.103614 664.78 
L 261.831288 664.683968 
L 330.48386 664.034581 
L 340.291371 663.644285 
L 350.098881 662.974145 
L 359.906391 662.040013 
L 384.425167 659.408159 
L 394.232677 658.643186 
L 404.040187 658.107757 
L 423.655208 657.231616 
L 433.462718 656.507484 
L 438.366473 655.97089 
L 443.270229 655.278619 
L 448.173984 654.408563 
L 453.077739 653.349794 
L 457.981494 652.105948 
L 462.885249 650.696524 
L 472.692759 647.526946 
L 487.404025 642.57221 
L 497.211535 639.503463 
L 516.826556 633.689985 
L 521.730311 632.11279 
L 526.634066 630.405984 
L 531.537821 628.532501 
L 536.441576 626.462645 
L 541.345331 624.178442 
L 546.249086 621.67755 
L 551.152842 618.975541 
L 560.960352 613.114659 
L 580.575372 600.979722 
L 595.286638 592.385979 
L 605.094148 586.595377 
L 614.901658 580.397654 
L 624.709169 573.77139 
L 634.516679 567.110034 
L 639.420434 563.973171 
L 644.324189 561.078966 
L 649.227944 558.488275 
L 654.1317 556.225875 
L 659.035455 554.271867 
L 663.93921 552.56054 
L 678.650475 547.754687 
L 683.55423 545.865541 
L 688.457985 543.703915 
L 693.361741 541.271656 
L 703.169251 535.891489 
L 708.073006 533.191118 
L 712.976761 530.665763 
L 717.880516 528.425483 
L 722.784271 526.537781 
L 727.688027 525.024443 
L 732.591782 523.871899 
L 737.495537 523.051111 
L 742.399292 522.54009 
L 747.303047 522.34153 
L 752.206802 522.489997 
L 757.110557 523.046697 
L 762.014313 524.083851 
L 766.918068 525.663741 
L 771.821823 527.818771 
L 776.725578 530.538203 
L 781.629333 533.765097 
L 786.533088 537.404031 
L 791.436843 541.337309 
L 806.148109 553.805122 
L 820.859374 566.128019 
L 835.57064 578.468523 
L 855.18566 595.195085 
L 864.993171 603.152567 
L 869.896926 606.922802 
L 879.704436 614.054075 
L 894.415701 624.163337 
L 909.126967 634.052442 
L 914.030722 637.214117 
L 918.934477 640.226788 
L 923.838232 643.041931 
L 928.741987 645.625546 
L 933.645742 647.963588 
L 938.549498 650.061769 
L 943.453253 651.940198 
L 948.357008 653.625036 
L 953.260763 655.14015 
L 958.164518 656.501515 
L 963.068273 657.715853 
L 967.972028 658.783328 
L 972.875784 659.70269 
L 977.779539 660.476573 
L 982.683294 661.114962 
L 992.490804 662.062562 
L 1002.298314 662.733205 
L 1021.913335 663.758869 
L 1036.6246 664.273725 
L 1051.335866 664.486237 
L 1070.950886 664.529618 
L 1070.950886 664.529618 
" style="fill:none;stroke:#dd8452;stroke-linecap:round;stroke-width:1.5;"/>
   </g>
   <g id="line2d_17">
    <path clip-path="url(#paa8619ac26)" d="M 95.103614 664.704828 
L 114.718634 664.447326 
L 144.141165 663.921718 
L 158.85243 663.96649 
L 198.082472 664.516431 
L 212.793737 664.351602 
L 232.408758 663.843072 
L 276.542554 662.528895 
L 286.350064 661.882561 
L 291.253819 661.391861 
L 296.157574 660.738403 
L 301.061329 659.877271 
L 305.965085 658.763951 
L 310.86884 657.362289 
L 315.772595 655.653309 
L 320.67635 653.641913 
L 325.580105 651.358429 
L 330.48386 648.853276 
L 340.291371 643.407697 
L 350.098881 637.630573 
L 359.906391 631.482568 
L 364.810146 628.177407 
L 369.713901 624.665683 
L 374.617657 620.921578 
L 379.521412 616.932093 
L 384.425167 612.691816 
L 389.328922 608.194548 
L 394.232677 603.425353 
L 399.136432 598.356108 
L 404.040187 592.946028 
L 408.943943 587.146736 
L 413.847698 580.910152 
L 418.751453 574.197302 
L 423.655208 566.986891 
L 428.558963 559.283525 
L 433.462718 551.125775 
L 438.366473 542.593433 
L 453.077739 516.19706 
L 457.981494 507.756978 
L 462.885249 499.789509 
L 467.789004 492.383623 
L 472.692759 485.526191 
L 477.596515 479.09293 
L 487.404025 466.566951 
L 492.30778 459.920973 
L 497.211535 452.693608 
L 502.11529 444.730479 
L 507.019045 435.96676 
L 511.9228 426.417289 
L 516.826556 416.155477 
L 521.730311 405.292853 
L 526.634066 393.96796 
L 541.345331 359.043803 
L 546.249086 347.858872 
L 551.152842 337.337819 
L 556.056597 327.716938 
L 560.960352 319.168329 
L 565.864107 311.774897 
L 570.767862 305.522848 
L 575.671617 300.313002 
L 580.575372 295.985309 
L 585.479128 292.346674 
L 590.382883 289.192591 
L 605.094148 280.58806 
L 609.997903 277.326117 
L 614.901658 273.544196 
L 619.805414 269.085847 
L 624.709169 263.843815 
L 629.612924 257.771943 
L 634.516679 250.887928 
L 639.420434 243.26755 
L 644.324189 235.033674 
L 649.227944 226.34384 
L 663.93921 199.42768 
L 668.842965 190.871895 
L 673.74672 182.905994 
L 678.650475 175.778604 
L 683.55423 169.740759 
L 688.457985 165.022577 
L 693.361741 161.798559 
L 698.265496 160.150171 
L 703.169251 160.039179 
L 708.073006 161.304383 
L 712.976761 163.687602 
L 717.880516 166.884567 
L 722.784271 170.607427 
L 727.688027 174.641721 
L 732.591782 178.883202 
L 737.495537 183.347293 
L 742.399292 188.152612 
L 747.303047 193.486638 
L 752.206802 199.564203 
L 757.110557 206.588217 
L 762.014313 214.718497 
L 766.918068 224.050754 
L 771.821823 234.605194 
L 776.725578 246.323192 
L 781.629333 259.070689 
L 786.533088 272.647557 
L 796.340599 301.25423 
L 806.148109 329.927102 
L 811.051864 343.684991 
L 815.955619 356.876383 
L 820.859374 369.500293 
L 830.666885 393.625684 
L 835.57064 405.642462 
L 840.474395 418.028536 
L 845.37815 431.035771 
L 850.281905 444.81144 
L 855.18566 459.366604 
L 860.089415 474.573467 
L 874.800681 521.377384 
L 879.704436 536.29638 
L 884.608191 550.393771 
L 889.511946 563.467622 
L 894.415701 575.384533 
L 899.319456 586.076878 
L 904.223212 595.536892 
L 909.126967 603.809038 
L 914.030722 610.980392 
L 918.934477 617.168662 
L 923.838232 622.508497 
L 928.741987 627.138012 
L 933.645742 631.187807 
L 938.549498 634.773884 
L 943.453253 637.99429 
L 948.357008 640.92806 
L 953.260763 643.634864 
L 958.164518 646.154565 
L 963.068273 648.507119 
L 967.972028 650.693997 
L 972.875784 652.702121 
L 977.779539 654.510441 
L 982.683294 656.098092 
L 987.587049 657.45233 
L 992.490804 658.574308 
L 997.394559 659.481362 
L 1002.298314 660.20535 
L 1012.105825 661.27231 
L 1026.81709 662.481637 
L 1041.528356 663.557842 
L 1051.335866 664.111565 
L 1061.143376 664.471309 
L 1070.950886 664.660873 
L 1070.950886 664.660873 
" style="fill:none;stroke:#4c72b0;stroke-linecap:round;stroke-width:1.5;"/>
   </g>
   <g id="patch_239">
    <path d="M 46.31125 664.78 
L 46.31125 7.2 
" style="fill:none;stroke:#ffffff;stroke-linecap:square;stroke-linejoin:miter;stroke-width:1.25;"/>
   </g>
   <g id="patch_240">
    <path d="M 46.31125 664.78 
L 1119.74325 664.78 
" style="fill:none;stroke:#ffffff;stroke-linecap:square;stroke-linejoin:miter;stroke-width:1.25;"/>
   </g>
  </g>
  <g id="legend_1">
   <g id="text_16">
    <!-- Pos_Type -->
    <g style="fill:#262626;" transform="translate(1145.498125 324.722344)scale(0.12 -0.12)">
     <defs>
      <path d="M 44.28125 53.078125 
L 44.28125 44.578125 
Q 40.484375 46.53125 36.375 47.5 
Q 32.28125 48.484375 27.875 48.484375 
Q 21.1875 48.484375 17.84375 46.4375 
Q 14.5 44.390625 14.5 40.28125 
Q 14.5 37.15625 16.890625 35.375 
Q 19.28125 33.59375 26.515625 31.984375 
L 29.59375 31.296875 
Q 39.15625 29.25 43.1875 25.515625 
Q 47.21875 21.78125 47.21875 15.09375 
Q 47.21875 7.46875 41.1875 3.015625 
Q 35.15625 -1.421875 24.609375 -1.421875 
Q 20.21875 -1.421875 15.453125 -0.5625 
Q 10.6875 0.296875 5.421875 2 
L 5.421875 11.28125 
Q 10.40625 8.6875 15.234375 7.390625 
Q 20.0625 6.109375 24.8125 6.109375 
Q 31.15625 6.109375 34.5625 8.28125 
Q 37.984375 10.453125 37.984375 14.40625 
Q 37.984375 18.0625 35.515625 20.015625 
Q 33.0625 21.96875 24.703125 23.78125 
L 21.578125 24.515625 
Q 13.234375 26.265625 9.515625 29.90625 
Q 5.8125 33.546875 5.8125 39.890625 
Q 5.8125 47.609375 11.28125 51.796875 
Q 16.75 56 26.8125 56 
Q 31.78125 56 36.171875 55.265625 
Q 40.578125 54.546875 44.28125 53.078125 
z
" id="DejaVuSans-115"/>
      <path d="M 50.984375 -16.609375 
L 50.984375 -23.578125 
L -0.984375 -23.578125 
L -0.984375 -16.609375 
z
" id="DejaVuSans-95"/>
      <path d="M -0.296875 72.90625 
L 61.375 72.90625 
L 61.375 64.59375 
L 35.5 64.59375 
L 35.5 0 
L 25.59375 0 
L 25.59375 64.59375 
L -0.296875 64.59375 
z
" id="DejaVuSans-84"/>
      <path d="M 18.109375 8.203125 
L 18.109375 -20.796875 
L 9.078125 -20.796875 
L 9.078125 54.6875 
L 18.109375 54.6875 
L 18.109375 46.390625 
Q 20.953125 51.265625 25.265625 53.625 
Q 29.59375 56 35.59375 56 
Q 45.5625 56 51.78125 48.09375 
Q 58.015625 40.1875 58.015625 27.296875 
Q 58.015625 14.40625 51.78125 6.484375 
Q 45.5625 -1.421875 35.59375 -1.421875 
Q 29.59375 -1.421875 25.265625 0.953125 
Q 20.953125 3.328125 18.109375 8.203125 
z
M 48.6875 27.296875 
Q 48.6875 37.203125 44.609375 42.84375 
Q 40.53125 48.484375 33.40625 48.484375 
Q 26.265625 48.484375 22.1875 42.84375 
Q 18.109375 37.203125 18.109375 27.296875 
Q 18.109375 17.390625 22.1875 11.75 
Q 26.265625 6.109375 33.40625 6.109375 
Q 40.53125 6.109375 44.609375 11.75 
Q 48.6875 17.390625 48.6875 27.296875 
z
" id="DejaVuSans-112"/>
     </defs>
     <use xlink:href="#DejaVuSans-80"/>
     <use x="56.677734" xlink:href="#DejaVuSans-111"/>
     <use x="117.859375" xlink:href="#DejaVuSans-115"/>
     <use x="169.958984" xlink:href="#DejaVuSans-95"/>
     <use x="219.958984" xlink:href="#DejaVuSans-84"/>
     <use x="265.417969" xlink:href="#DejaVuSans-121"/>
     <use x="324.597656" xlink:href="#DejaVuSans-112"/>
     <use x="388.074219" xlink:href="#DejaVuSans-101"/>
    </g>
   </g>
   <g id="patch_241">
    <path d="M 1149.20625 341.41 
L 1171.20625 341.41 
L 1171.20625 333.71 
L 1149.20625 333.71 
z
" style="fill:#4c72b0;fill-opacity:0.5;stroke:#ffffff;stroke-linejoin:miter;"/>
   </g>
   <g id="text_17">
    <!-- M -->
    <g style="fill:#262626;" transform="translate(1180.00625 341.41)scale(0.11 -0.11)">
     <defs>
      <path d="M 9.8125 72.90625 
L 24.515625 72.90625 
L 43.109375 23.296875 
L 61.8125 72.90625 
L 76.515625 72.90625 
L 76.515625 0 
L 66.890625 0 
L 66.890625 64.015625 
L 48.09375 14.015625 
L 38.1875 14.015625 
L 19.390625 64.015625 
L 19.390625 0 
L 9.8125 0 
z
" id="DejaVuSans-77"/>
     </defs>
     <use xlink:href="#DejaVuSans-77"/>
    </g>
   </g>
   <g id="patch_242">
    <path d="M 1149.20625 357.555937 
L 1171.20625 357.555937 
L 1171.20625 349.855937 
L 1149.20625 349.855937 
z
" style="fill:#dd8452;fill-opacity:0.5;stroke:#ffffff;stroke-linejoin:miter;"/>
   </g>
   <g id="text_18">
    <!-- F -->
    <g style="fill:#262626;" transform="translate(1180.00625 357.555937)scale(0.11 -0.11)">
     <use xlink:href="#DejaVuSans-70"/>
    </g>
   </g>
   <g id="patch_243">
    <path d="M 1149.20625 373.701875 
L 1171.20625 373.701875 
L 1171.20625 366.001875 
L 1149.20625 366.001875 
z
" style="fill:#55a868;fill-opacity:0.5;stroke:#ffffff;stroke-linejoin:miter;"/>
   </g>
   <g id="text_19">
    <!-- D -->
    <g style="fill:#262626;" transform="translate(1180.00625 373.701875)scale(0.11 -0.11)">
     <defs>
      <path d="M 19.671875 64.796875 
L 19.671875 8.109375 
L 31.59375 8.109375 
Q 46.6875 8.109375 53.6875 14.9375 
Q 60.6875 21.78125 60.6875 36.53125 
Q 60.6875 51.171875 53.6875 57.984375 
Q 46.6875 64.796875 31.59375 64.796875 
z
M 9.8125 72.90625 
L 30.078125 72.90625 
Q 51.265625 72.90625 61.171875 64.09375 
Q 71.09375 55.28125 71.09375 36.53125 
Q 71.09375 17.671875 61.125 8.828125 
Q 51.171875 0 30.078125 0 
L 9.8125 0 
z
" id="DejaVuSans-68"/>
     </defs>
     <use xlink:href="#DejaVuSans-68"/>
    </g>
   </g>
   <g id="patch_244">
    <path d="M 1149.20625 389.847812 
L 1171.20625 389.847812 
L 1171.20625 382.147812 
L 1149.20625 382.147812 
z
" style="fill:#c44e52;fill-opacity:0.5;stroke:#ffffff;stroke-linejoin:miter;"/>
   </g>
   <g id="text_20">
    <!-- GK -->
    <g style="fill:#262626;" transform="translate(1180.00625 389.847812)scale(0.11 -0.11)">
     <defs>
      <path d="M 59.515625 10.40625 
L 59.515625 29.984375 
L 43.40625 29.984375 
L 43.40625 38.09375 
L 69.28125 38.09375 
L 69.28125 6.78125 
Q 63.578125 2.734375 56.6875 0.65625 
Q 49.8125 -1.421875 42 -1.421875 
Q 24.90625 -1.421875 15.25 8.5625 
Q 5.609375 18.5625 5.609375 36.375 
Q 5.609375 54.25 15.25 64.234375 
Q 24.90625 74.21875 42 74.21875 
Q 49.125 74.21875 55.546875 72.453125 
Q 61.96875 70.703125 67.390625 67.28125 
L 67.390625 56.78125 
Q 61.921875 61.421875 55.765625 63.765625 
Q 49.609375 66.109375 42.828125 66.109375 
Q 29.4375 66.109375 22.71875 58.640625 
Q 16.015625 51.171875 16.015625 36.375 
Q 16.015625 21.625 22.71875 14.15625 
Q 29.4375 6.6875 42.828125 6.6875 
Q 48.046875 6.6875 52.140625 7.59375 
Q 56.25 8.5 59.515625 10.40625 
z
" id="DejaVuSans-71"/>
      <path d="M 9.8125 72.90625 
L 19.671875 72.90625 
L 19.671875 42.09375 
L 52.390625 72.90625 
L 65.09375 72.90625 
L 28.90625 38.921875 
L 67.671875 0 
L 54.6875 0 
L 19.671875 35.109375 
L 19.671875 0 
L 9.8125 0 
z
" id="DejaVuSans-75"/>
     </defs>
     <use xlink:href="#DejaVuSans-71"/>
     <use x="77.490234" xlink:href="#DejaVuSans-75"/>
    </g>
   </g>
  </g>
 </g>
 <defs>
  <clipPath id="paa8619ac26">
   <rect height="657.58" width="1073.432" x="46.31125" y="7.2"/>
  </clipPath>
 </defs>
</svg>
