<?xml version="1.0" encoding="utf-8" standalone="no"?>
<!DOCTYPE svg PUBLIC "-//W3C//DTD SVG 1.1//EN"
  "http://www.w3.org/Graphics/SVG/1.1/DTD/svg11.dtd">
<!-- Created with matplotlib (https://matplotlib.org/) -->
<svg height="707.739687pt" version="1.1" viewBox="0 0 1209.35125 707.739687" width="1209.35125pt" xmlns="http://www.w3.org/2000/svg" xmlns:xlink="http://www.w3.org/1999/xlink">
 <metadata>
  <rdf:RDF xmlns:cc="http://creativecommons.org/ns#" xmlns:dc="http://purl.org/dc/elements/1.1/" xmlns:rdf="http://www.w3.org/1999/02/22-rdf-syntax-ns#">
   <cc:Work>
    <dc:type rdf:resource="http://purl.org/dc/dcmitype/StillImage"/>
    <dc:date>2020-11-23T18:08:22.679132</dc:date>
    <dc:format>image/svg+xml</dc:format>
    <dc:creator>
     <cc:Agent>
      <dc:title>Matplotlib v3.3.3, https://matplotlib.org/</dc:title>
     </cc:Agent>
    </dc:creator>
   </cc:Work>
  </rdf:RDF>
 </metadata>
 <defs>
  <style type="text/css">*{stroke-linecap:butt;stroke-linejoin:round;}</style>
 </defs>
 <g id="figure_1">
  <g id="patch_1">
   <path d="M -0 707.739687 
L 1209.35125 707.739687 
L 1209.35125 0 
L -0 0 
z
" style="fill:#ffffff;"/>
  </g>
  <g id="axes_1">
   <g id="patch_2">
    <path d="M 46.31125 664.78 
L 1113.258359 664.78 
L 1113.258359 7.2 
L 46.31125 7.2 
z
" style="fill:#eaeaf2;"/>
   </g>
   <g id="matplotlib.axis_1">
    <g id="xtick_1">
     <g id="line2d_1">
      <path clip-path="url(#p582e00c6bc)" d="M 217.446445 664.78 
L 217.446445 7.2 
" style="fill:none;stroke:#ffffff;stroke-linecap:round;"/>
     </g>
     <g id="text_1">
      <!-- 20 -->
      <g style="fill:#262626;" transform="translate(210.447695 682.638281)scale(0.11 -0.11)">
       <defs>
        <path d="M 19.1875 8.296875 
L 53.609375 8.296875 
L 53.609375 0 
L 7.328125 0 
L 7.328125 8.296875 
Q 12.9375 14.109375 22.625 23.890625 
Q 32.328125 33.6875 34.8125 36.53125 
Q 39.546875 41.84375 41.421875 45.53125 
Q 43.3125 49.21875 43.3125 52.78125 
Q 43.3125 58.59375 39.234375 62.25 
Q 35.15625 65.921875 28.609375 65.921875 
Q 23.96875 65.921875 18.8125 64.3125 
Q 13.671875 62.703125 7.8125 59.421875 
L 7.8125 69.390625 
Q 13.765625 71.78125 18.9375 73 
Q 24.125 74.21875 28.421875 74.21875 
Q 39.75 74.21875 46.484375 68.546875 
Q 53.21875 62.890625 53.21875 53.421875 
Q 53.21875 48.921875 51.53125 44.890625 
Q 49.859375 40.875 45.40625 35.40625 
Q 44.1875 33.984375 37.640625 27.21875 
Q 31.109375 20.453125 19.1875 8.296875 
z
" id="DejaVuSans-50"/>
        <path d="M 31.78125 66.40625 
Q 24.171875 66.40625 20.328125 58.90625 
Q 16.5 51.421875 16.5 36.375 
Q 16.5 21.390625 20.328125 13.890625 
Q 24.171875 6.390625 31.78125 6.390625 
Q 39.453125 6.390625 43.28125 13.890625 
Q 47.125 21.390625 47.125 36.375 
Q 47.125 51.421875 43.28125 58.90625 
Q 39.453125 66.40625 31.78125 66.40625 
z
M 31.78125 74.21875 
Q 44.046875 74.21875 50.515625 64.515625 
Q 56.984375 54.828125 56.984375 36.375 
Q 56.984375 17.96875 50.515625 8.265625 
Q 44.046875 -1.421875 31.78125 -1.421875 
Q 19.53125 -1.421875 13.0625 8.265625 
Q 6.59375 17.96875 6.59375 36.375 
Q 6.59375 54.828125 13.0625 64.515625 
Q 19.53125 74.21875 31.78125 74.21875 
z
" id="DejaVuSans-48"/>
       </defs>
       <use xlink:href="#DejaVuSans-50"/>
       <use x="63.623047" xlink:href="#DejaVuSans-48"/>
      </g>
     </g>
    </g>
    <g id="xtick_2">
     <g id="line2d_2">
      <path clip-path="url(#p582e00c6bc)" d="M 440.423897 664.78 
L 440.423897 7.2 
" style="fill:none;stroke:#ffffff;stroke-linecap:round;"/>
     </g>
     <g id="text_2">
      <!-- 40 -->
      <g style="fill:#262626;" transform="translate(433.425147 682.638281)scale(0.11 -0.11)">
       <defs>
        <path d="M 37.796875 64.3125 
L 12.890625 25.390625 
L 37.796875 25.390625 
z
M 35.203125 72.90625 
L 47.609375 72.90625 
L 47.609375 25.390625 
L 58.015625 25.390625 
L 58.015625 17.1875 
L 47.609375 17.1875 
L 47.609375 0 
L 37.796875 0 
L 37.796875 17.1875 
L 4.890625 17.1875 
L 4.890625 26.703125 
z
" id="DejaVuSans-52"/>
       </defs>
       <use xlink:href="#DejaVuSans-52"/>
       <use x="63.623047" xlink:href="#DejaVuSans-48"/>
      </g>
     </g>
    </g>
    <g id="xtick_3">
     <g id="line2d_3">
      <path clip-path="url(#p582e00c6bc)" d="M 663.401349 664.78 
L 663.401349 7.2 
" style="fill:none;stroke:#ffffff;stroke-linecap:round;"/>
     </g>
     <g id="text_3">
      <!-- 60 -->
      <g style="fill:#262626;" transform="translate(656.402599 682.638281)scale(0.11 -0.11)">
       <defs>
        <path d="M 33.015625 40.375 
Q 26.375 40.375 22.484375 35.828125 
Q 18.609375 31.296875 18.609375 23.390625 
Q 18.609375 15.53125 22.484375 10.953125 
Q 26.375 6.390625 33.015625 6.390625 
Q 39.65625 6.390625 43.53125 10.953125 
Q 47.40625 15.53125 47.40625 23.390625 
Q 47.40625 31.296875 43.53125 35.828125 
Q 39.65625 40.375 33.015625 40.375 
z
M 52.59375 71.296875 
L 52.59375 62.3125 
Q 48.875 64.0625 45.09375 64.984375 
Q 41.3125 65.921875 37.59375 65.921875 
Q 27.828125 65.921875 22.671875 59.328125 
Q 17.53125 52.734375 16.796875 39.40625 
Q 19.671875 43.65625 24.015625 45.921875 
Q 28.375 48.1875 33.59375 48.1875 
Q 44.578125 48.1875 50.953125 41.515625 
Q 57.328125 34.859375 57.328125 23.390625 
Q 57.328125 12.15625 50.6875 5.359375 
Q 44.046875 -1.421875 33.015625 -1.421875 
Q 20.359375 -1.421875 13.671875 8.265625 
Q 6.984375 17.96875 6.984375 36.375 
Q 6.984375 53.65625 15.1875 63.9375 
Q 23.390625 74.21875 37.203125 74.21875 
Q 40.921875 74.21875 44.703125 73.484375 
Q 48.484375 72.75 52.59375 71.296875 
z
" id="DejaVuSans-54"/>
       </defs>
       <use xlink:href="#DejaVuSans-54"/>
       <use x="63.623047" xlink:href="#DejaVuSans-48"/>
      </g>
     </g>
    </g>
    <g id="xtick_4">
     <g id="line2d_4">
      <path clip-path="url(#p582e00c6bc)" d="M 886.378801 664.78 
L 886.378801 7.2 
" style="fill:none;stroke:#ffffff;stroke-linecap:round;"/>
     </g>
     <g id="text_4">
      <!-- 80 -->
      <g style="fill:#262626;" transform="translate(879.380051 682.638281)scale(0.11 -0.11)">
       <defs>
        <path d="M 31.78125 34.625 
Q 24.75 34.625 20.71875 30.859375 
Q 16.703125 27.09375 16.703125 20.515625 
Q 16.703125 13.921875 20.71875 10.15625 
Q 24.75 6.390625 31.78125 6.390625 
Q 38.8125 6.390625 42.859375 10.171875 
Q 46.921875 13.96875 46.921875 20.515625 
Q 46.921875 27.09375 42.890625 30.859375 
Q 38.875 34.625 31.78125 34.625 
z
M 21.921875 38.8125 
Q 15.578125 40.375 12.03125 44.71875 
Q 8.5 49.078125 8.5 55.328125 
Q 8.5 64.0625 14.71875 69.140625 
Q 20.953125 74.21875 31.78125 74.21875 
Q 42.671875 74.21875 48.875 69.140625 
Q 55.078125 64.0625 55.078125 55.328125 
Q 55.078125 49.078125 51.53125 44.71875 
Q 48 40.375 41.703125 38.8125 
Q 48.828125 37.15625 52.796875 32.3125 
Q 56.78125 27.484375 56.78125 20.515625 
Q 56.78125 9.90625 50.3125 4.234375 
Q 43.84375 -1.421875 31.78125 -1.421875 
Q 19.734375 -1.421875 13.25 4.234375 
Q 6.78125 9.90625 6.78125 20.515625 
Q 6.78125 27.484375 10.78125 32.3125 
Q 14.796875 37.15625 21.921875 38.8125 
z
M 18.3125 54.390625 
Q 18.3125 48.734375 21.84375 45.5625 
Q 25.390625 42.390625 31.78125 42.390625 
Q 38.140625 42.390625 41.71875 45.5625 
Q 45.3125 48.734375 45.3125 54.390625 
Q 45.3125 60.0625 41.71875 63.234375 
Q 38.140625 66.40625 31.78125 66.40625 
Q 25.390625 66.40625 21.84375 63.234375 
Q 18.3125 60.0625 18.3125 54.390625 
z
" id="DejaVuSans-56"/>
       </defs>
       <use xlink:href="#DejaVuSans-56"/>
       <use x="63.623047" xlink:href="#DejaVuSans-48"/>
      </g>
     </g>
    </g>
    <g id="xtick_5">
     <g id="line2d_5">
      <path clip-path="url(#p582e00c6bc)" d="M 1109.356253 664.78 
L 1109.356253 7.2 
" style="fill:none;stroke:#ffffff;stroke-linecap:round;"/>
     </g>
     <g id="text_5">
      <!-- 100 -->
      <g style="fill:#262626;" transform="translate(1098.858128 682.638281)scale(0.11 -0.11)">
       <defs>
        <path d="M 12.40625 8.296875 
L 28.515625 8.296875 
L 28.515625 63.921875 
L 10.984375 60.40625 
L 10.984375 69.390625 
L 28.421875 72.90625 
L 38.28125 72.90625 
L 38.28125 8.296875 
L 54.390625 8.296875 
L 54.390625 0 
L 12.40625 0 
z
" id="DejaVuSans-49"/>
       </defs>
       <use xlink:href="#DejaVuSans-49"/>
       <use x="63.623047" xlink:href="#DejaVuSans-48"/>
       <use x="127.246094" xlink:href="#DejaVuSans-48"/>
      </g>
     </g>
    </g>
    <g id="text_6">
     <!-- Aggression -->
     <g style="fill:#262626;" transform="translate(546.646992 698.044062)scale(0.12 -0.12)">
      <defs>
       <path d="M 34.1875 63.1875 
L 20.796875 26.90625 
L 47.609375 26.90625 
z
M 28.609375 72.90625 
L 39.796875 72.90625 
L 67.578125 0 
L 57.328125 0 
L 50.6875 18.703125 
L 17.828125 18.703125 
L 11.1875 0 
L 0.78125 0 
z
" id="DejaVuSans-65"/>
       <path d="M 45.40625 27.984375 
Q 45.40625 37.75 41.375 43.109375 
Q 37.359375 48.484375 30.078125 48.484375 
Q 22.859375 48.484375 18.828125 43.109375 
Q 14.796875 37.75 14.796875 27.984375 
Q 14.796875 18.265625 18.828125 12.890625 
Q 22.859375 7.515625 30.078125 7.515625 
Q 37.359375 7.515625 41.375 12.890625 
Q 45.40625 18.265625 45.40625 27.984375 
z
M 54.390625 6.78125 
Q 54.390625 -7.171875 48.1875 -13.984375 
Q 42 -20.796875 29.203125 -20.796875 
Q 24.46875 -20.796875 20.265625 -20.09375 
Q 16.0625 -19.390625 12.109375 -17.921875 
L 12.109375 -9.1875 
Q 16.0625 -11.328125 19.921875 -12.34375 
Q 23.78125 -13.375 27.78125 -13.375 
Q 36.625 -13.375 41.015625 -8.765625 
Q 45.40625 -4.15625 45.40625 5.171875 
L 45.40625 9.625 
Q 42.625 4.78125 38.28125 2.390625 
Q 33.9375 0 27.875 0 
Q 17.828125 0 11.671875 7.65625 
Q 5.515625 15.328125 5.515625 27.984375 
Q 5.515625 40.671875 11.671875 48.328125 
Q 17.828125 56 27.875 56 
Q 33.9375 56 38.28125 53.609375 
Q 42.625 51.21875 45.40625 46.390625 
L 45.40625 54.6875 
L 54.390625 54.6875 
z
" id="DejaVuSans-103"/>
       <path d="M 41.109375 46.296875 
Q 39.59375 47.171875 37.8125 47.578125 
Q 36.03125 48 33.890625 48 
Q 26.265625 48 22.1875 43.046875 
Q 18.109375 38.09375 18.109375 28.8125 
L 18.109375 0 
L 9.078125 0 
L 9.078125 54.6875 
L 18.109375 54.6875 
L 18.109375 46.1875 
Q 20.953125 51.171875 25.484375 53.578125 
Q 30.03125 56 36.53125 56 
Q 37.453125 56 38.578125 55.875 
Q 39.703125 55.765625 41.0625 55.515625 
z
" id="DejaVuSans-114"/>
       <path d="M 56.203125 29.59375 
L 56.203125 25.203125 
L 14.890625 25.203125 
Q 15.484375 15.921875 20.484375 11.0625 
Q 25.484375 6.203125 34.421875 6.203125 
Q 39.59375 6.203125 44.453125 7.46875 
Q 49.3125 8.734375 54.109375 11.28125 
L 54.109375 2.78125 
Q 49.265625 0.734375 44.1875 -0.34375 
Q 39.109375 -1.421875 33.890625 -1.421875 
Q 20.796875 -1.421875 13.15625 6.1875 
Q 5.515625 13.8125 5.515625 26.8125 
Q 5.515625 40.234375 12.765625 48.109375 
Q 20.015625 56 32.328125 56 
Q 43.359375 56 49.78125 48.890625 
Q 56.203125 41.796875 56.203125 29.59375 
z
M 47.21875 32.234375 
Q 47.125 39.59375 43.09375 43.984375 
Q 39.0625 48.390625 32.421875 48.390625 
Q 24.90625 48.390625 20.390625 44.140625 
Q 15.875 39.890625 15.1875 32.171875 
z
" id="DejaVuSans-101"/>
       <path d="M 44.28125 53.078125 
L 44.28125 44.578125 
Q 40.484375 46.53125 36.375 47.5 
Q 32.28125 48.484375 27.875 48.484375 
Q 21.1875 48.484375 17.84375 46.4375 
Q 14.5 44.390625 14.5 40.28125 
Q 14.5 37.15625 16.890625 35.375 
Q 19.28125 33.59375 26.515625 31.984375 
L 29.59375 31.296875 
Q 39.15625 29.25 43.1875 25.515625 
Q 47.21875 21.78125 47.21875 15.09375 
Q 47.21875 7.46875 41.1875 3.015625 
Q 35.15625 -1.421875 24.609375 -1.421875 
Q 20.21875 -1.421875 15.453125 -0.5625 
Q 10.6875 0.296875 5.421875 2 
L 5.421875 11.28125 
Q 10.40625 8.6875 15.234375 7.390625 
Q 20.0625 6.109375 24.8125 6.109375 
Q 31.15625 6.109375 34.5625 8.28125 
Q 37.984375 10.453125 37.984375 14.40625 
Q 37.984375 18.0625 35.515625 20.015625 
Q 33.0625 21.96875 24.703125 23.78125 
L 21.578125 24.515625 
Q 13.234375 26.265625 9.515625 29.90625 
Q 5.8125 33.546875 5.8125 39.890625 
Q 5.8125 47.609375 11.28125 51.796875 
Q 16.75 56 26.8125 56 
Q 31.78125 56 36.171875 55.265625 
Q 40.578125 54.546875 44.28125 53.078125 
z
" id="DejaVuSans-115"/>
       <path d="M 9.421875 54.6875 
L 18.40625 54.6875 
L 18.40625 0 
L 9.421875 0 
z
M 9.421875 75.984375 
L 18.40625 75.984375 
L 18.40625 64.59375 
L 9.421875 64.59375 
z
" id="DejaVuSans-105"/>
       <path d="M 30.609375 48.390625 
Q 23.390625 48.390625 19.1875 42.75 
Q 14.984375 37.109375 14.984375 27.296875 
Q 14.984375 17.484375 19.15625 11.84375 
Q 23.34375 6.203125 30.609375 6.203125 
Q 37.796875 6.203125 41.984375 11.859375 
Q 46.1875 17.53125 46.1875 27.296875 
Q 46.1875 37.015625 41.984375 42.703125 
Q 37.796875 48.390625 30.609375 48.390625 
z
M 30.609375 56 
Q 42.328125 56 49.015625 48.375 
Q 55.71875 40.765625 55.71875 27.296875 
Q 55.71875 13.875 49.015625 6.21875 
Q 42.328125 -1.421875 30.609375 -1.421875 
Q 18.84375 -1.421875 12.171875 6.21875 
Q 5.515625 13.875 5.515625 27.296875 
Q 5.515625 40.765625 12.171875 48.375 
Q 18.84375 56 30.609375 56 
z
" id="DejaVuSans-111"/>
       <path d="M 54.890625 33.015625 
L 54.890625 0 
L 45.90625 0 
L 45.90625 32.71875 
Q 45.90625 40.484375 42.875 44.328125 
Q 39.84375 48.1875 33.796875 48.1875 
Q 26.515625 48.1875 22.3125 43.546875 
Q 18.109375 38.921875 18.109375 30.90625 
L 18.109375 0 
L 9.078125 0 
L 9.078125 54.6875 
L 18.109375 54.6875 
L 18.109375 46.1875 
Q 21.34375 51.125 25.703125 53.5625 
Q 30.078125 56 35.796875 56 
Q 45.21875 56 50.046875 50.171875 
Q 54.890625 44.34375 54.890625 33.015625 
z
" id="DejaVuSans-110"/>
      </defs>
      <use xlink:href="#DejaVuSans-65"/>
      <use x="68.408203" xlink:href="#DejaVuSans-103"/>
      <use x="131.884766" xlink:href="#DejaVuSans-103"/>
      <use x="195.361328" xlink:href="#DejaVuSans-114"/>
      <use x="234.224609" xlink:href="#DejaVuSans-101"/>
      <use x="295.748047" xlink:href="#DejaVuSans-115"/>
      <use x="347.847656" xlink:href="#DejaVuSans-115"/>
      <use x="399.947266" xlink:href="#DejaVuSans-105"/>
      <use x="427.730469" xlink:href="#DejaVuSans-111"/>
      <use x="488.912109" xlink:href="#DejaVuSans-110"/>
     </g>
    </g>
   </g>
   <g id="matplotlib.axis_2">
    <g id="ytick_1">
     <g id="line2d_6">
      <path clip-path="url(#p582e00c6bc)" d="M 46.31125 664.78 
L 1113.258359 664.78 
" style="fill:none;stroke:#ffffff;stroke-linecap:round;"/>
     </g>
     <g id="text_7">
      <!-- 0 -->
      <g style="fill:#262626;" transform="translate(29.8125 668.959141)scale(0.11 -0.11)">
       <use xlink:href="#DejaVuSans-48"/>
      </g>
     </g>
    </g>
    <g id="ytick_2">
     <g id="line2d_7">
      <path clip-path="url(#p582e00c6bc)" d="M 46.31125 568.191357 
L 1113.258359 568.191357 
" style="fill:none;stroke:#ffffff;stroke-linecap:round;"/>
     </g>
     <g id="text_8">
      <!-- 10 -->
      <g style="fill:#262626;" transform="translate(22.81375 572.370497)scale(0.11 -0.11)">
       <use xlink:href="#DejaVuSans-49"/>
       <use x="63.623047" xlink:href="#DejaVuSans-48"/>
      </g>
     </g>
    </g>
    <g id="ytick_3">
     <g id="line2d_8">
      <path clip-path="url(#p582e00c6bc)" d="M 46.31125 471.602713 
L 1113.258359 471.602713 
" style="fill:none;stroke:#ffffff;stroke-linecap:round;"/>
     </g>
     <g id="text_9">
      <!-- 20 -->
      <g style="fill:#262626;" transform="translate(22.81375 475.781854)scale(0.11 -0.11)">
       <use xlink:href="#DejaVuSans-50"/>
       <use x="63.623047" xlink:href="#DejaVuSans-48"/>
      </g>
     </g>
    </g>
    <g id="ytick_4">
     <g id="line2d_9">
      <path clip-path="url(#p582e00c6bc)" d="M 46.31125 375.01407 
L 1113.258359 375.01407 
" style="fill:none;stroke:#ffffff;stroke-linecap:round;"/>
     </g>
     <g id="text_10">
      <!-- 30 -->
      <g style="fill:#262626;" transform="translate(22.81375 379.19321)scale(0.11 -0.11)">
       <defs>
        <path d="M 40.578125 39.3125 
Q 47.65625 37.796875 51.625 33 
Q 55.609375 28.21875 55.609375 21.1875 
Q 55.609375 10.40625 48.1875 4.484375 
Q 40.765625 -1.421875 27.09375 -1.421875 
Q 22.515625 -1.421875 17.65625 -0.515625 
Q 12.796875 0.390625 7.625 2.203125 
L 7.625 11.71875 
Q 11.71875 9.328125 16.59375 8.109375 
Q 21.484375 6.890625 26.8125 6.890625 
Q 36.078125 6.890625 40.9375 10.546875 
Q 45.796875 14.203125 45.796875 21.1875 
Q 45.796875 27.640625 41.28125 31.265625 
Q 36.765625 34.90625 28.71875 34.90625 
L 20.21875 34.90625 
L 20.21875 43.015625 
L 29.109375 43.015625 
Q 36.375 43.015625 40.234375 45.921875 
Q 44.09375 48.828125 44.09375 54.296875 
Q 44.09375 59.90625 40.109375 62.90625 
Q 36.140625 65.921875 28.71875 65.921875 
Q 24.65625 65.921875 20.015625 65.03125 
Q 15.375 64.15625 9.8125 62.3125 
L 9.8125 71.09375 
Q 15.4375 72.65625 20.34375 73.4375 
Q 25.25 74.21875 29.59375 74.21875 
Q 40.828125 74.21875 47.359375 69.109375 
Q 53.90625 64.015625 53.90625 55.328125 
Q 53.90625 49.265625 50.4375 45.09375 
Q 46.96875 40.921875 40.578125 39.3125 
z
" id="DejaVuSans-51"/>
       </defs>
       <use xlink:href="#DejaVuSans-51"/>
       <use x="63.623047" xlink:href="#DejaVuSans-48"/>
      </g>
     </g>
    </g>
    <g id="ytick_5">
     <g id="line2d_10">
      <path clip-path="url(#p582e00c6bc)" d="M 46.31125 278.425426 
L 1113.258359 278.425426 
" style="fill:none;stroke:#ffffff;stroke-linecap:round;"/>
     </g>
     <g id="text_11">
      <!-- 40 -->
      <g style="fill:#262626;" transform="translate(22.81375 282.604567)scale(0.11 -0.11)">
       <use xlink:href="#DejaVuSans-52"/>
       <use x="63.623047" xlink:href="#DejaVuSans-48"/>
      </g>
     </g>
    </g>
    <g id="ytick_6">
     <g id="line2d_11">
      <path clip-path="url(#p582e00c6bc)" d="M 46.31125 181.836783 
L 1113.258359 181.836783 
" style="fill:none;stroke:#ffffff;stroke-linecap:round;"/>
     </g>
     <g id="text_12">
      <!-- 50 -->
      <g style="fill:#262626;" transform="translate(22.81375 186.015924)scale(0.11 -0.11)">
       <defs>
        <path d="M 10.796875 72.90625 
L 49.515625 72.90625 
L 49.515625 64.59375 
L 19.828125 64.59375 
L 19.828125 46.734375 
Q 21.96875 47.46875 24.109375 47.828125 
Q 26.265625 48.1875 28.421875 48.1875 
Q 40.625 48.1875 47.75 41.5 
Q 54.890625 34.8125 54.890625 23.390625 
Q 54.890625 11.625 47.5625 5.09375 
Q 40.234375 -1.421875 26.90625 -1.421875 
Q 22.3125 -1.421875 17.546875 -0.640625 
Q 12.796875 0.140625 7.71875 1.703125 
L 7.71875 11.625 
Q 12.109375 9.234375 16.796875 8.0625 
Q 21.484375 6.890625 26.703125 6.890625 
Q 35.15625 6.890625 40.078125 11.328125 
Q 45.015625 15.765625 45.015625 23.390625 
Q 45.015625 31 40.078125 35.4375 
Q 35.15625 39.890625 26.703125 39.890625 
Q 22.75 39.890625 18.8125 39.015625 
Q 14.890625 38.140625 10.796875 36.28125 
z
" id="DejaVuSans-53"/>
       </defs>
       <use xlink:href="#DejaVuSans-53"/>
       <use x="63.623047" xlink:href="#DejaVuSans-48"/>
      </g>
     </g>
    </g>
    <g id="ytick_7">
     <g id="line2d_12">
      <path clip-path="url(#p582e00c6bc)" d="M 46.31125 85.24814 
L 1113.258359 85.24814 
" style="fill:none;stroke:#ffffff;stroke-linecap:round;"/>
     </g>
     <g id="text_13">
      <!-- 60 -->
      <g style="fill:#262626;" transform="translate(22.81375 89.42728)scale(0.11 -0.11)">
       <use xlink:href="#DejaVuSans-54"/>
       <use x="63.623047" xlink:href="#DejaVuSans-48"/>
      </g>
     </g>
    </g>
    <g id="text_14">
     <!-- Frequency -->
     <g style="fill:#262626;" transform="translate(16.318125 366.985625)rotate(-90)scale(0.12 -0.12)">
      <defs>
       <path d="M 9.8125 72.90625 
L 51.703125 72.90625 
L 51.703125 64.59375 
L 19.671875 64.59375 
L 19.671875 43.109375 
L 48.578125 43.109375 
L 48.578125 34.8125 
L 19.671875 34.8125 
L 19.671875 0 
L 9.8125 0 
z
" id="DejaVuSans-70"/>
       <path d="M 14.796875 27.296875 
Q 14.796875 17.390625 18.875 11.75 
Q 22.953125 6.109375 30.078125 6.109375 
Q 37.203125 6.109375 41.296875 11.75 
Q 45.40625 17.390625 45.40625 27.296875 
Q 45.40625 37.203125 41.296875 42.84375 
Q 37.203125 48.484375 30.078125 48.484375 
Q 22.953125 48.484375 18.875 42.84375 
Q 14.796875 37.203125 14.796875 27.296875 
z
M 45.40625 8.203125 
Q 42.578125 3.328125 38.25 0.953125 
Q 33.9375 -1.421875 27.875 -1.421875 
Q 17.96875 -1.421875 11.734375 6.484375 
Q 5.515625 14.40625 5.515625 27.296875 
Q 5.515625 40.1875 11.734375 48.09375 
Q 17.96875 56 27.875 56 
Q 33.9375 56 38.25 53.625 
Q 42.578125 51.265625 45.40625 46.390625 
L 45.40625 54.6875 
L 54.390625 54.6875 
L 54.390625 -20.796875 
L 45.40625 -20.796875 
z
" id="DejaVuSans-113"/>
       <path d="M 8.5 21.578125 
L 8.5 54.6875 
L 17.484375 54.6875 
L 17.484375 21.921875 
Q 17.484375 14.15625 20.5 10.265625 
Q 23.53125 6.390625 29.59375 6.390625 
Q 36.859375 6.390625 41.078125 11.03125 
Q 45.3125 15.671875 45.3125 23.6875 
L 45.3125 54.6875 
L 54.296875 54.6875 
L 54.296875 0 
L 45.3125 0 
L 45.3125 8.40625 
Q 42.046875 3.421875 37.71875 1 
Q 33.40625 -1.421875 27.6875 -1.421875 
Q 18.265625 -1.421875 13.375 4.4375 
Q 8.5 10.296875 8.5 21.578125 
z
M 31.109375 56 
z
" id="DejaVuSans-117"/>
       <path d="M 48.78125 52.59375 
L 48.78125 44.1875 
Q 44.96875 46.296875 41.140625 47.34375 
Q 37.3125 48.390625 33.40625 48.390625 
Q 24.65625 48.390625 19.8125 42.84375 
Q 14.984375 37.3125 14.984375 27.296875 
Q 14.984375 17.28125 19.8125 11.734375 
Q 24.65625 6.203125 33.40625 6.203125 
Q 37.3125 6.203125 41.140625 7.25 
Q 44.96875 8.296875 48.78125 10.40625 
L 48.78125 2.09375 
Q 45.015625 0.34375 40.984375 -0.53125 
Q 36.96875 -1.421875 32.421875 -1.421875 
Q 20.0625 -1.421875 12.78125 6.34375 
Q 5.515625 14.109375 5.515625 27.296875 
Q 5.515625 40.671875 12.859375 48.328125 
Q 20.21875 56 33.015625 56 
Q 37.15625 56 41.109375 55.140625 
Q 45.0625 54.296875 48.78125 52.59375 
z
" id="DejaVuSans-99"/>
       <path d="M 32.171875 -5.078125 
Q 28.375 -14.84375 24.75 -17.8125 
Q 21.140625 -20.796875 15.09375 -20.796875 
L 7.90625 -20.796875 
L 7.90625 -13.28125 
L 13.1875 -13.28125 
Q 16.890625 -13.28125 18.9375 -11.515625 
Q 21 -9.765625 23.484375 -3.21875 
L 25.09375 0.875 
L 2.984375 54.6875 
L 12.5 54.6875 
L 29.59375 11.921875 
L 46.6875 54.6875 
L 56.203125 54.6875 
z
" id="DejaVuSans-121"/>
      </defs>
      <use xlink:href="#DejaVuSans-70"/>
      <use x="50.269531" xlink:href="#DejaVuSans-114"/>
      <use x="89.132812" xlink:href="#DejaVuSans-101"/>
      <use x="150.65625" xlink:href="#DejaVuSans-113"/>
      <use x="214.132812" xlink:href="#DejaVuSans-117"/>
      <use x="277.511719" xlink:href="#DejaVuSans-101"/>
      <use x="339.035156" xlink:href="#DejaVuSans-110"/>
      <use x="402.414062" xlink:href="#DejaVuSans-99"/>
      <use x="457.394531" xlink:href="#DejaVuSans-121"/>
     </g>
    </g>
   </g>
   <g id="patch_3">
    <path clip-path="url(#p582e00c6bc)" d="M 94.808846 664.78 
L 116.853208 664.78 
L 116.853208 663.432615 
L 94.808846 663.432615 
z
" style="fill:#c44e52;fill-opacity:0.5;stroke:#ffffff;stroke-linejoin:miter;"/>
   </g>
   <g id="patch_4">
    <path clip-path="url(#p582e00c6bc)" d="M 116.853208 664.78 
L 138.897569 664.78 
L 138.897569 660.737846 
L 116.853208 660.737846 
z
" style="fill:#c44e52;fill-opacity:0.5;stroke:#ffffff;stroke-linejoin:miter;"/>
   </g>
   <g id="patch_5">
    <path clip-path="url(#p582e00c6bc)" d="M 138.897569 664.78 
L 160.941931 664.78 
L 160.941931 658.492205 
L 138.897569 658.492205 
z
" style="fill:#c44e52;fill-opacity:0.5;stroke:#ffffff;stroke-linejoin:miter;"/>
   </g>
   <g id="patch_6">
    <path clip-path="url(#p582e00c6bc)" d="M 160.941931 664.78 
L 182.986293 664.78 
L 182.986293 640.077948 
L 160.941931 640.077948 
z
" style="fill:#c44e52;fill-opacity:0.5;stroke:#ffffff;stroke-linejoin:miter;"/>
   </g>
   <g id="patch_7">
    <path clip-path="url(#p582e00c6bc)" d="M 182.986293 664.78 
L 205.030655 664.78 
L 205.030655 609.986358 
L 182.986293 609.986358 
z
" style="fill:#c44e52;fill-opacity:0.5;stroke:#ffffff;stroke-linejoin:miter;"/>
   </g>
   <g id="patch_8">
    <path clip-path="url(#p582e00c6bc)" d="M 205.030655 664.78 
L 227.075016 664.78 
L 227.075016 594.26687 
L 205.030655 594.26687 
z
" style="fill:#c44e52;fill-opacity:0.5;stroke:#ffffff;stroke-linejoin:miter;"/>
   </g>
   <g id="patch_9">
    <path clip-path="url(#p582e00c6bc)" d="M 227.075016 664.78 
L 249.119378 664.78 
L 249.119378 596.063383 
L 227.075016 596.063383 
z
" style="fill:#c44e52;fill-opacity:0.5;stroke:#ffffff;stroke-linejoin:miter;"/>
   </g>
   <g id="patch_10">
    <path clip-path="url(#p582e00c6bc)" d="M 249.119378 664.78 
L 271.16374 664.78 
L 271.16374 598.309024 
L 249.119378 598.309024 
z
" style="fill:#c44e52;fill-opacity:0.5;stroke:#ffffff;stroke-linejoin:miter;"/>
   </g>
   <g id="patch_11">
    <path clip-path="url(#p582e00c6bc)" d="M 271.16374 664.78 
L 293.208102 664.78 
L 293.208102 592.470357 
L 271.16374 592.470357 
z
" style="fill:#c44e52;fill-opacity:0.5;stroke:#ffffff;stroke-linejoin:miter;"/>
   </g>
   <g id="patch_12">
    <path clip-path="url(#p582e00c6bc)" d="M 293.208102 664.78 
L 315.252463 664.78 
L 315.252463 603.249434 
L 293.208102 603.249434 
z
" style="fill:#c44e52;fill-opacity:0.5;stroke:#ffffff;stroke-linejoin:miter;"/>
   </g>
   <g id="patch_13">
    <path clip-path="url(#p582e00c6bc)" d="M 315.252463 664.78 
L 337.296825 664.78 
L 337.296825 632.442768 
L 315.252463 632.442768 
z
" style="fill:#c44e52;fill-opacity:0.5;stroke:#ffffff;stroke-linejoin:miter;"/>
   </g>
   <g id="patch_14">
    <path clip-path="url(#p582e00c6bc)" d="M 337.296825 664.78 
L 359.341187 664.78 
L 359.341187 633.790153 
L 337.296825 633.790153 
z
" style="fill:#c44e52;fill-opacity:0.5;stroke:#ffffff;stroke-linejoin:miter;"/>
   </g>
   <g id="patch_15">
    <path clip-path="url(#p582e00c6bc)" d="M 359.341187 664.78 
L 381.385549 664.78 
L 381.385549 632.442768 
L 359.341187 632.442768 
z
" style="fill:#c44e52;fill-opacity:0.5;stroke:#ffffff;stroke-linejoin:miter;"/>
   </g>
   <g id="patch_16">
    <path clip-path="url(#p582e00c6bc)" d="M 381.385549 664.78 
L 403.42991 664.78 
L 403.42991 633.790153 
L 381.385549 633.790153 
z
" style="fill:#c44e52;fill-opacity:0.5;stroke:#ffffff;stroke-linejoin:miter;"/>
   </g>
   <g id="patch_17">
    <path clip-path="url(#p582e00c6bc)" d="M 403.42991 664.78 
L 425.474272 664.78 
L 425.474272 639.179692 
L 403.42991 639.179692 
z
" style="fill:#c44e52;fill-opacity:0.5;stroke:#ffffff;stroke-linejoin:miter;"/>
   </g>
   <g id="patch_18">
    <path clip-path="url(#p582e00c6bc)" d="M 425.474272 664.78 
L 447.518634 664.78 
L 447.518634 648.162256 
L 425.474272 648.162256 
z
" style="fill:#c44e52;fill-opacity:0.5;stroke:#ffffff;stroke-linejoin:miter;"/>
   </g>
   <g id="patch_19">
    <path clip-path="url(#p582e00c6bc)" d="M 447.518634 664.78 
L 469.562996 664.78 
L 469.562996 650.407897 
L 447.518634 650.407897 
z
" style="fill:#c44e52;fill-opacity:0.5;stroke:#ffffff;stroke-linejoin:miter;"/>
   </g>
   <g id="patch_20">
    <path clip-path="url(#p582e00c6bc)" d="M 469.562996 664.78 
L 491.607357 664.78 
L 491.607357 654.899179 
L 469.562996 654.899179 
z
" style="fill:#c44e52;fill-opacity:0.5;stroke:#ffffff;stroke-linejoin:miter;"/>
   </g>
   <g id="patch_21">
    <path clip-path="url(#p582e00c6bc)" d="M 491.607357 664.78 
L 513.651719 664.78 
L 513.651719 656.695692 
L 491.607357 656.695692 
z
" style="fill:#c44e52;fill-opacity:0.5;stroke:#ffffff;stroke-linejoin:miter;"/>
   </g>
   <g id="patch_22">
    <path clip-path="url(#p582e00c6bc)" d="M 513.651719 664.78 
L 535.696081 664.78 
L 535.696081 664.78 
L 513.651719 664.78 
z
" style="fill:#c44e52;fill-opacity:0.5;stroke:#ffffff;stroke-linejoin:miter;"/>
   </g>
   <g id="patch_23">
    <path clip-path="url(#p582e00c6bc)" d="M 535.696081 664.78 
L 557.740443 664.78 
L 557.740443 664.330872 
L 535.696081 664.330872 
z
" style="fill:#c44e52;fill-opacity:0.5;stroke:#ffffff;stroke-linejoin:miter;"/>
   </g>
   <g id="patch_24">
    <path clip-path="url(#p582e00c6bc)" d="M 557.740443 664.78 
L 579.784804 664.78 
L 579.784804 664.78 
L 557.740443 664.78 
z
" style="fill:#c44e52;fill-opacity:0.5;stroke:#ffffff;stroke-linejoin:miter;"/>
   </g>
   <g id="patch_25">
    <path clip-path="url(#p582e00c6bc)" d="M 579.784804 664.78 
L 601.829166 664.78 
L 601.829166 664.330872 
L 579.784804 664.330872 
z
" style="fill:#c44e52;fill-opacity:0.5;stroke:#ffffff;stroke-linejoin:miter;"/>
   </g>
   <g id="patch_26">
    <path clip-path="url(#p582e00c6bc)" d="M 601.829166 664.78 
L 623.873528 664.78 
L 623.873528 664.330872 
L 601.829166 664.330872 
z
" style="fill:#c44e52;fill-opacity:0.5;stroke:#ffffff;stroke-linejoin:miter;"/>
   </g>
   <g id="patch_27">
    <path clip-path="url(#p582e00c6bc)" d="M 623.873528 664.78 
L 645.91789 664.78 
L 645.91789 663.432615 
L 623.873528 663.432615 
z
" style="fill:#c44e52;fill-opacity:0.5;stroke:#ffffff;stroke-linejoin:miter;"/>
   </g>
   <g id="patch_28">
    <path clip-path="url(#p582e00c6bc)" d="M 645.91789 664.78 
L 667.962251 664.78 
L 667.962251 664.330872 
L 645.91789 664.330872 
z
" style="fill:#c44e52;fill-opacity:0.5;stroke:#ffffff;stroke-linejoin:miter;"/>
   </g>
   <g id="patch_29">
    <path clip-path="url(#p582e00c6bc)" d="M 667.962251 664.78 
L 690.006613 664.78 
L 690.006613 664.330872 
L 667.962251 664.330872 
z
" style="fill:#c44e52;fill-opacity:0.5;stroke:#ffffff;stroke-linejoin:miter;"/>
   </g>
   <g id="patch_30">
    <path clip-path="url(#p582e00c6bc)" d="M 690.006613 664.78 
L 712.050975 664.78 
L 712.050975 664.78 
L 690.006613 664.78 
z
" style="fill:#c44e52;fill-opacity:0.5;stroke:#ffffff;stroke-linejoin:miter;"/>
   </g>
   <g id="patch_31">
    <path clip-path="url(#p582e00c6bc)" d="M 712.050975 664.78 
L 734.095337 664.78 
L 734.095337 664.78 
L 712.050975 664.78 
z
" style="fill:#c44e52;fill-opacity:0.5;stroke:#ffffff;stroke-linejoin:miter;"/>
   </g>
   <g id="patch_32">
    <path clip-path="url(#p582e00c6bc)" d="M 734.095337 664.78 
L 756.139698 664.78 
L 756.139698 664.78 
L 734.095337 664.78 
z
" style="fill:#c44e52;fill-opacity:0.5;stroke:#ffffff;stroke-linejoin:miter;"/>
   </g>
   <g id="patch_33">
    <path clip-path="url(#p582e00c6bc)" d="M 756.139698 664.78 
L 778.18406 664.78 
L 778.18406 664.78 
L 756.139698 664.78 
z
" style="fill:#c44e52;fill-opacity:0.5;stroke:#ffffff;stroke-linejoin:miter;"/>
   </g>
   <g id="patch_34">
    <path clip-path="url(#p582e00c6bc)" d="M 778.18406 664.78 
L 800.228422 664.78 
L 800.228422 664.78 
L 778.18406 664.78 
z
" style="fill:#c44e52;fill-opacity:0.5;stroke:#ffffff;stroke-linejoin:miter;"/>
   </g>
   <g id="patch_35">
    <path clip-path="url(#p582e00c6bc)" d="M 800.228422 664.78 
L 822.272784 664.78 
L 822.272784 664.78 
L 800.228422 664.78 
z
" style="fill:#c44e52;fill-opacity:0.5;stroke:#ffffff;stroke-linejoin:miter;"/>
   </g>
   <g id="patch_36">
    <path clip-path="url(#p582e00c6bc)" d="M 822.272784 664.78 
L 844.317145 664.78 
L 844.317145 664.78 
L 822.272784 664.78 
z
" style="fill:#c44e52;fill-opacity:0.5;stroke:#ffffff;stroke-linejoin:miter;"/>
   </g>
   <g id="patch_37">
    <path clip-path="url(#p582e00c6bc)" d="M 844.317145 664.78 
L 866.361507 664.78 
L 866.361507 664.330872 
L 844.317145 664.330872 
z
" style="fill:#c44e52;fill-opacity:0.5;stroke:#ffffff;stroke-linejoin:miter;"/>
   </g>
   <g id="patch_38">
    <path clip-path="url(#p582e00c6bc)" d="M 866.361507 664.78 
L 888.405869 664.78 
L 888.405869 664.78 
L 866.361507 664.78 
z
" style="fill:#c44e52;fill-opacity:0.5;stroke:#ffffff;stroke-linejoin:miter;"/>
   </g>
   <g id="patch_39">
    <path clip-path="url(#p582e00c6bc)" d="M 888.405869 664.78 
L 910.450231 664.78 
L 910.450231 664.78 
L 888.405869 664.78 
z
" style="fill:#c44e52;fill-opacity:0.5;stroke:#ffffff;stroke-linejoin:miter;"/>
   </g>
   <g id="patch_40">
    <path clip-path="url(#p582e00c6bc)" d="M 910.450231 664.78 
L 932.494592 664.78 
L 932.494592 664.78 
L 910.450231 664.78 
z
" style="fill:#c44e52;fill-opacity:0.5;stroke:#ffffff;stroke-linejoin:miter;"/>
   </g>
   <g id="patch_41">
    <path clip-path="url(#p582e00c6bc)" d="M 932.494592 664.78 
L 954.538954 664.78 
L 954.538954 664.78 
L 932.494592 664.78 
z
" style="fill:#c44e52;fill-opacity:0.5;stroke:#ffffff;stroke-linejoin:miter;"/>
   </g>
   <g id="patch_42">
    <path clip-path="url(#p582e00c6bc)" d="M 954.538954 664.78 
L 976.583316 664.78 
L 976.583316 664.78 
L 954.538954 664.78 
z
" style="fill:#c44e52;fill-opacity:0.5;stroke:#ffffff;stroke-linejoin:miter;"/>
   </g>
   <g id="patch_43">
    <path clip-path="url(#p582e00c6bc)" d="M 976.583316 664.78 
L 998.627678 664.78 
L 998.627678 664.78 
L 976.583316 664.78 
z
" style="fill:#c44e52;fill-opacity:0.5;stroke:#ffffff;stroke-linejoin:miter;"/>
   </g>
   <g id="patch_44">
    <path clip-path="url(#p582e00c6bc)" d="M 998.627678 664.78 
L 1020.672039 664.78 
L 1020.672039 664.78 
L 998.627678 664.78 
z
" style="fill:#c44e52;fill-opacity:0.5;stroke:#ffffff;stroke-linejoin:miter;"/>
   </g>
   <g id="patch_45">
    <path clip-path="url(#p582e00c6bc)" d="M 1020.672039 664.78 
L 1042.716401 664.78 
L 1042.716401 664.330872 
L 1020.672039 664.330872 
z
" style="fill:#c44e52;fill-opacity:0.5;stroke:#ffffff;stroke-linejoin:miter;"/>
   </g>
   <g id="patch_46">
    <path clip-path="url(#p582e00c6bc)" d="M 1042.716401 664.78 
L 1064.760763 664.78 
L 1064.760763 664.78 
L 1042.716401 664.78 
z
" style="fill:#c44e52;fill-opacity:0.5;stroke:#ffffff;stroke-linejoin:miter;"/>
   </g>
   <g id="patch_47">
    <path clip-path="url(#p582e00c6bc)" d="M 94.808846 664.78 
L 116.853208 664.78 
L 116.853208 664.78 
L 94.808846 664.78 
z
" style="fill:#55a868;fill-opacity:0.5;stroke:#ffffff;stroke-linejoin:miter;"/>
   </g>
   <g id="patch_48">
    <path clip-path="url(#p582e00c6bc)" d="M 116.853208 664.78 
L 138.897569 664.78 
L 138.897569 664.78 
L 116.853208 664.78 
z
" style="fill:#55a868;fill-opacity:0.5;stroke:#ffffff;stroke-linejoin:miter;"/>
   </g>
   <g id="patch_49">
    <path clip-path="url(#p582e00c6bc)" d="M 138.897569 664.78 
L 160.941931 664.78 
L 160.941931 664.78 
L 138.897569 664.78 
z
" style="fill:#55a868;fill-opacity:0.5;stroke:#ffffff;stroke-linejoin:miter;"/>
   </g>
   <g id="patch_50">
    <path clip-path="url(#p582e00c6bc)" d="M 160.941931 664.78 
L 182.986293 664.78 
L 182.986293 664.78 
L 160.941931 664.78 
z
" style="fill:#55a868;fill-opacity:0.5;stroke:#ffffff;stroke-linejoin:miter;"/>
   </g>
   <g id="patch_51">
    <path clip-path="url(#p582e00c6bc)" d="M 182.986293 664.78 
L 205.030655 664.78 
L 205.030655 664.78 
L 182.986293 664.78 
z
" style="fill:#55a868;fill-opacity:0.5;stroke:#ffffff;stroke-linejoin:miter;"/>
   </g>
   <g id="patch_52">
    <path clip-path="url(#p582e00c6bc)" d="M 205.030655 664.78 
L 227.075016 664.78 
L 227.075016 664.78 
L 205.030655 664.78 
z
" style="fill:#55a868;fill-opacity:0.5;stroke:#ffffff;stroke-linejoin:miter;"/>
   </g>
   <g id="patch_53">
    <path clip-path="url(#p582e00c6bc)" d="M 227.075016 664.78 
L 249.119378 664.78 
L 249.119378 664.78 
L 227.075016 664.78 
z
" style="fill:#55a868;fill-opacity:0.5;stroke:#ffffff;stroke-linejoin:miter;"/>
   </g>
   <g id="patch_54">
    <path clip-path="url(#p582e00c6bc)" d="M 249.119378 664.78 
L 271.16374 664.78 
L 271.16374 664.78 
L 249.119378 664.78 
z
" style="fill:#55a868;fill-opacity:0.5;stroke:#ffffff;stroke-linejoin:miter;"/>
   </g>
   <g id="patch_55">
    <path clip-path="url(#p582e00c6bc)" d="M 271.16374 664.78 
L 293.208102 664.78 
L 293.208102 664.78 
L 271.16374 664.78 
z
" style="fill:#55a868;fill-opacity:0.5;stroke:#ffffff;stroke-linejoin:miter;"/>
   </g>
   <g id="patch_56">
    <path clip-path="url(#p582e00c6bc)" d="M 293.208102 664.78 
L 315.252463 664.78 
L 315.252463 663.189192 
L 293.208102 663.189192 
z
" style="fill:#55a868;fill-opacity:0.5;stroke:#ffffff;stroke-linejoin:miter;"/>
   </g>
   <g id="patch_57">
    <path clip-path="url(#p582e00c6bc)" d="M 315.252463 664.78 
L 337.296825 664.78 
L 337.296825 663.189192 
L 315.252463 663.189192 
z
" style="fill:#55a868;fill-opacity:0.5;stroke:#ffffff;stroke-linejoin:miter;"/>
   </g>
   <g id="patch_58">
    <path clip-path="url(#p582e00c6bc)" d="M 337.296825 664.78 
L 359.341187 664.78 
L 359.341187 661.598385 
L 337.296825 661.598385 
z
" style="fill:#55a868;fill-opacity:0.5;stroke:#ffffff;stroke-linejoin:miter;"/>
   </g>
   <g id="patch_59">
    <path clip-path="url(#p582e00c6bc)" d="M 359.341187 664.78 
L 381.385549 664.78 
L 381.385549 664.78 
L 359.341187 664.78 
z
" style="fill:#55a868;fill-opacity:0.5;stroke:#ffffff;stroke-linejoin:miter;"/>
   </g>
   <g id="patch_60">
    <path clip-path="url(#p582e00c6bc)" d="M 381.385549 664.78 
L 403.42991 664.78 
L 403.42991 663.189192 
L 381.385549 663.189192 
z
" style="fill:#55a868;fill-opacity:0.5;stroke:#ffffff;stroke-linejoin:miter;"/>
   </g>
   <g id="patch_61">
    <path clip-path="url(#p582e00c6bc)" d="M 403.42991 664.78 
L 425.474272 664.78 
L 425.474272 653.644346 
L 403.42991 653.644346 
z
" style="fill:#55a868;fill-opacity:0.5;stroke:#ffffff;stroke-linejoin:miter;"/>
   </g>
   <g id="patch_62">
    <path clip-path="url(#p582e00c6bc)" d="M 425.474272 664.78 
L 447.518634 664.78 
L 447.518634 645.690308 
L 425.474272 645.690308 
z
" style="fill:#55a868;fill-opacity:0.5;stroke:#ffffff;stroke-linejoin:miter;"/>
   </g>
   <g id="patch_63">
    <path clip-path="url(#p582e00c6bc)" d="M 447.518634 664.78 
L 469.562996 664.78 
L 469.562996 632.963846 
L 447.518634 632.963846 
z
" style="fill:#55a868;fill-opacity:0.5;stroke:#ffffff;stroke-linejoin:miter;"/>
   </g>
   <g id="patch_64">
    <path clip-path="url(#p582e00c6bc)" d="M 469.562996 664.78 
L 491.607357 664.78 
L 491.607357 620.237384 
L 469.562996 620.237384 
z
" style="fill:#55a868;fill-opacity:0.5;stroke:#ffffff;stroke-linejoin:miter;"/>
   </g>
   <g id="patch_65">
    <path clip-path="url(#p582e00c6bc)" d="M 491.607357 664.78 
L 513.651719 664.78 
L 513.651719 582.057999 
L 491.607357 582.057999 
z
" style="fill:#55a868;fill-opacity:0.5;stroke:#ffffff;stroke-linejoin:miter;"/>
   </g>
   <g id="patch_66">
    <path clip-path="url(#p582e00c6bc)" d="M 513.651719 664.78 
L 535.696081 664.78 
L 535.696081 512.06246 
L 513.651719 512.06246 
z
" style="fill:#55a868;fill-opacity:0.5;stroke:#ffffff;stroke-linejoin:miter;"/>
   </g>
   <g id="patch_67">
    <path clip-path="url(#p582e00c6bc)" d="M 535.696081 664.78 
L 557.740443 664.78 
L 557.740443 465.929037 
L 535.696081 465.929037 
z
" style="fill:#55a868;fill-opacity:0.5;stroke:#ffffff;stroke-linejoin:miter;"/>
   </g>
   <g id="patch_68">
    <path clip-path="url(#p582e00c6bc)" d="M 557.740443 664.78 
L 579.784804 664.78 
L 579.784804 454.793383 
L 557.740443 454.793383 
z
" style="fill:#55a868;fill-opacity:0.5;stroke:#ffffff;stroke-linejoin:miter;"/>
   </g>
   <g id="patch_69">
    <path clip-path="url(#p582e00c6bc)" d="M 579.784804 664.78 
L 601.829166 664.78 
L 601.829166 357.754113 
L 579.784804 357.754113 
z
" style="fill:#55a868;fill-opacity:0.5;stroke:#ffffff;stroke-linejoin:miter;"/>
   </g>
   <g id="patch_70">
    <path clip-path="url(#p582e00c6bc)" d="M 601.829166 664.78 
L 623.873528 664.78 
L 623.873528 311.62069 
L 601.829166 311.62069 
z
" style="fill:#55a868;fill-opacity:0.5;stroke:#ffffff;stroke-linejoin:miter;"/>
   </g>
   <g id="patch_71">
    <path clip-path="url(#p582e00c6bc)" d="M 623.873528 664.78 
L 645.91789 664.78 
L 645.91789 292.530997 
L 623.873528 292.530997 
z
" style="fill:#55a868;fill-opacity:0.5;stroke:#ffffff;stroke-linejoin:miter;"/>
   </g>
   <g id="patch_72">
    <path clip-path="url(#p582e00c6bc)" d="M 645.91789 664.78 
L 667.962251 664.78 
L 667.962251 200.26415 
L 645.91789 200.26415 
z
" style="fill:#55a868;fill-opacity:0.5;stroke:#ffffff;stroke-linejoin:miter;"/>
   </g>
   <g id="patch_73">
    <path clip-path="url(#p582e00c6bc)" d="M 667.962251 664.78 
L 690.006613 664.78 
L 690.006613 150.949112 
L 667.962251 150.949112 
z
" style="fill:#55a868;fill-opacity:0.5;stroke:#ffffff;stroke-linejoin:miter;"/>
   </g>
   <g id="patch_74">
    <path clip-path="url(#p582e00c6bc)" d="M 690.006613 664.78 
L 712.050975 664.78 
L 712.050975 138.22265 
L 690.006613 138.22265 
z
" style="fill:#55a868;fill-opacity:0.5;stroke:#ffffff;stroke-linejoin:miter;"/>
   </g>
   <g id="patch_75">
    <path clip-path="url(#p582e00c6bc)" d="M 712.050975 664.78 
L 734.095337 664.78 
L 734.095337 135.041035 
L 712.050975 135.041035 
z
" style="fill:#55a868;fill-opacity:0.5;stroke:#ffffff;stroke-linejoin:miter;"/>
   </g>
   <g id="patch_76">
    <path clip-path="url(#p582e00c6bc)" d="M 734.095337 664.78 
L 756.139698 664.78 
L 756.139698 69.817919 
L 734.095337 69.817919 
z
" style="fill:#55a868;fill-opacity:0.5;stroke:#ffffff;stroke-linejoin:miter;"/>
   </g>
   <g id="patch_77">
    <path clip-path="url(#p582e00c6bc)" d="M 756.139698 664.78 
L 778.18406 664.78 
L 778.18406 61.86388 
L 756.139698 61.86388 
z
" style="fill:#55a868;fill-opacity:0.5;stroke:#ffffff;stroke-linejoin:miter;"/>
   </g>
   <g id="patch_78">
    <path clip-path="url(#p582e00c6bc)" d="M 778.18406 664.78 
L 800.228422 664.78 
L 800.228422 90.498419 
L 778.18406 90.498419 
z
" style="fill:#55a868;fill-opacity:0.5;stroke:#ffffff;stroke-linejoin:miter;"/>
   </g>
   <g id="patch_79">
    <path clip-path="url(#p582e00c6bc)" d="M 800.228422 664.78 
L 822.272784 664.78 
L 822.272784 155.721535 
L 800.228422 155.721535 
z
" style="fill:#55a868;fill-opacity:0.5;stroke:#ffffff;stroke-linejoin:miter;"/>
   </g>
   <g id="patch_80">
    <path clip-path="url(#p582e00c6bc)" d="M 822.272784 664.78 
L 844.317145 664.78 
L 844.317145 198.673343 
L 822.272784 198.673343 
z
" style="fill:#55a868;fill-opacity:0.5;stroke:#ffffff;stroke-linejoin:miter;"/>
   </g>
   <g id="patch_81">
    <path clip-path="url(#p582e00c6bc)" d="M 844.317145 664.78 
L 866.361507 664.78 
L 866.361507 289.349382 
L 844.317145 289.349382 
z
" style="fill:#55a868;fill-opacity:0.5;stroke:#ffffff;stroke-linejoin:miter;"/>
   </g>
   <g id="patch_82">
    <path clip-path="url(#p582e00c6bc)" d="M 866.361507 664.78 
L 888.405869 664.78 
L 888.405869 327.528767 
L 866.361507 327.528767 
z
" style="fill:#55a868;fill-opacity:0.5;stroke:#ffffff;stroke-linejoin:miter;"/>
   </g>
   <g id="patch_83">
    <path clip-path="url(#p582e00c6bc)" d="M 888.405869 664.78 
L 910.450231 664.78 
L 910.450231 419.795614 
L 888.405869 419.795614 
z
" style="fill:#55a868;fill-opacity:0.5;stroke:#ffffff;stroke-linejoin:miter;"/>
   </g>
   <g id="patch_84">
    <path clip-path="url(#p582e00c6bc)" d="M 910.450231 664.78 
L 932.494592 664.78 
L 932.494592 500.926806 
L 910.450231 500.926806 
z
" style="fill:#55a868;fill-opacity:0.5;stroke:#ffffff;stroke-linejoin:miter;"/>
   </g>
   <g id="patch_85">
    <path clip-path="url(#p582e00c6bc)" d="M 932.494592 664.78 
L 954.538954 664.78 
L 954.538954 532.742961 
L 932.494592 532.742961 
z
" style="fill:#55a868;fill-opacity:0.5;stroke:#ffffff;stroke-linejoin:miter;"/>
   </g>
   <g id="patch_86">
    <path clip-path="url(#p582e00c6bc)" d="M 954.538954 664.78 
L 976.583316 664.78 
L 976.583316 572.513153 
L 954.538954 572.513153 
z
" style="fill:#55a868;fill-opacity:0.5;stroke:#ffffff;stroke-linejoin:miter;"/>
   </g>
   <g id="patch_87">
    <path clip-path="url(#p582e00c6bc)" d="M 976.583316 664.78 
L 998.627678 664.78 
L 998.627678 623.419 
L 976.583316 623.419 
z
" style="fill:#55a868;fill-opacity:0.5;stroke:#ffffff;stroke-linejoin:miter;"/>
   </g>
   <g id="patch_88">
    <path clip-path="url(#p582e00c6bc)" d="M 998.627678 664.78 
L 1020.672039 664.78 
L 1020.672039 647.281115 
L 998.627678 647.281115 
z
" style="fill:#55a868;fill-opacity:0.5;stroke:#ffffff;stroke-linejoin:miter;"/>
   </g>
   <g id="patch_89">
    <path clip-path="url(#p582e00c6bc)" d="M 1020.672039 664.78 
L 1042.716401 664.78 
L 1042.716401 660.007577 
L 1020.672039 660.007577 
z
" style="fill:#55a868;fill-opacity:0.5;stroke:#ffffff;stroke-linejoin:miter;"/>
   </g>
   <g id="patch_90">
    <path clip-path="url(#p582e00c6bc)" d="M 1042.716401 664.78 
L 1064.760763 664.78 
L 1064.760763 663.189192 
L 1042.716401 663.189192 
z
" style="fill:#55a868;fill-opacity:0.5;stroke:#ffffff;stroke-linejoin:miter;"/>
   </g>
   <g id="patch_91">
    <path clip-path="url(#p582e00c6bc)" d="M 94.808846 664.78 
L 116.853208 664.78 
L 116.853208 664.78 
L 94.808846 664.78 
z
" style="fill:#dd8452;fill-opacity:0.5;stroke:#ffffff;stroke-linejoin:miter;"/>
   </g>
   <g id="patch_92">
    <path clip-path="url(#p582e00c6bc)" d="M 116.853208 664.78 
L 138.897569 664.78 
L 138.897569 664.78 
L 116.853208 664.78 
z
" style="fill:#dd8452;fill-opacity:0.5;stroke:#ffffff;stroke-linejoin:miter;"/>
   </g>
   <g id="patch_93">
    <path clip-path="url(#p582e00c6bc)" d="M 138.897569 664.78 
L 160.941931 664.78 
L 160.941931 664.78 
L 138.897569 664.78 
z
" style="fill:#dd8452;fill-opacity:0.5;stroke:#ffffff;stroke-linejoin:miter;"/>
   </g>
   <g id="patch_94">
    <path clip-path="url(#p582e00c6bc)" d="M 160.941931 664.78 
L 182.986293 664.78 
L 182.986293 664.78 
L 160.941931 664.78 
z
" style="fill:#dd8452;fill-opacity:0.5;stroke:#ffffff;stroke-linejoin:miter;"/>
   </g>
   <g id="patch_95">
    <path clip-path="url(#p582e00c6bc)" d="M 182.986293 664.78 
L 205.030655 664.78 
L 205.030655 664.78 
L 182.986293 664.78 
z
" style="fill:#dd8452;fill-opacity:0.5;stroke:#ffffff;stroke-linejoin:miter;"/>
   </g>
   <g id="patch_96">
    <path clip-path="url(#p582e00c6bc)" d="M 205.030655 664.78 
L 227.075016 664.78 
L 227.075016 663.844343 
L 205.030655 663.844343 
z
" style="fill:#dd8452;fill-opacity:0.5;stroke:#ffffff;stroke-linejoin:miter;"/>
   </g>
   <g id="patch_97">
    <path clip-path="url(#p582e00c6bc)" d="M 227.075016 664.78 
L 249.119378 664.78 
L 249.119378 663.844343 
L 227.075016 663.844343 
z
" style="fill:#dd8452;fill-opacity:0.5;stroke:#ffffff;stroke-linejoin:miter;"/>
   </g>
   <g id="patch_98">
    <path clip-path="url(#p582e00c6bc)" d="M 249.119378 664.78 
L 271.16374 664.78 
L 271.16374 657.294741 
L 249.119378 657.294741 
z
" style="fill:#dd8452;fill-opacity:0.5;stroke:#ffffff;stroke-linejoin:miter;"/>
   </g>
   <g id="patch_99">
    <path clip-path="url(#p582e00c6bc)" d="M 271.16374 664.78 
L 293.208102 664.78 
L 293.208102 638.581594 
L 271.16374 638.581594 
z
" style="fill:#dd8452;fill-opacity:0.5;stroke:#ffffff;stroke-linejoin:miter;"/>
   </g>
   <g id="patch_100">
    <path clip-path="url(#p582e00c6bc)" d="M 293.208102 664.78 
L 315.252463 664.78 
L 315.252463 610.511873 
L 293.208102 610.511873 
z
" style="fill:#dd8452;fill-opacity:0.5;stroke:#ffffff;stroke-linejoin:miter;"/>
   </g>
   <g id="patch_101">
    <path clip-path="url(#p582e00c6bc)" d="M 315.252463 664.78 
L 337.296825 664.78 
L 337.296825 587.120438 
L 315.252463 587.120438 
z
" style="fill:#dd8452;fill-opacity:0.5;stroke:#ffffff;stroke-linejoin:miter;"/>
   </g>
   <g id="patch_102">
    <path clip-path="url(#p582e00c6bc)" d="M 337.296825 664.78 
L 359.341187 664.78 
L 359.341187 541.273227 
L 337.296825 541.273227 
z
" style="fill:#dd8452;fill-opacity:0.5;stroke:#ffffff;stroke-linejoin:miter;"/>
   </g>
   <g id="patch_103">
    <path clip-path="url(#p582e00c6bc)" d="M 359.341187 664.78 
L 381.385549 664.78 
L 381.385549 559.050717 
L 359.341187 559.050717 
z
" style="fill:#dd8452;fill-opacity:0.5;stroke:#ffffff;stroke-linejoin:miter;"/>
   </g>
   <g id="patch_104">
    <path clip-path="url(#p582e00c6bc)" d="M 381.385549 664.78 
L 403.42991 664.78 
L 403.42991 565.600319 
L 381.385549 565.600319 
z
" style="fill:#dd8452;fill-opacity:0.5;stroke:#ffffff;stroke-linejoin:miter;"/>
   </g>
   <g id="patch_105">
    <path clip-path="url(#p582e00c6bc)" d="M 403.42991 664.78 
L 425.474272 664.78 
L 425.474272 581.506494 
L 403.42991 581.506494 
z
" style="fill:#dd8452;fill-opacity:0.5;stroke:#ffffff;stroke-linejoin:miter;"/>
   </g>
   <g id="patch_106">
    <path clip-path="url(#p582e00c6bc)" d="M 425.474272 664.78 
L 447.518634 664.78 
L 447.518634 572.14992 
L 425.474272 572.14992 
z
" style="fill:#dd8452;fill-opacity:0.5;stroke:#ffffff;stroke-linejoin:miter;"/>
   </g>
   <g id="patch_107">
    <path clip-path="url(#p582e00c6bc)" d="M 447.518634 664.78 
L 469.562996 664.78 
L 469.562996 584.313466 
L 447.518634 584.313466 
z
" style="fill:#dd8452;fill-opacity:0.5;stroke:#ffffff;stroke-linejoin:miter;"/>
   </g>
   <g id="patch_108">
    <path clip-path="url(#p582e00c6bc)" d="M 469.562996 664.78 
L 491.607357 664.78 
L 491.607357 578.699522 
L 469.562996 578.699522 
z
" style="fill:#dd8452;fill-opacity:0.5;stroke:#ffffff;stroke-linejoin:miter;"/>
   </g>
   <g id="patch_109">
    <path clip-path="url(#p582e00c6bc)" d="M 491.607357 664.78 
L 513.651719 664.78 
L 513.651719 545.951514 
L 491.607357 545.951514 
z
" style="fill:#dd8452;fill-opacity:0.5;stroke:#ffffff;stroke-linejoin:miter;"/>
   </g>
   <g id="patch_110">
    <path clip-path="url(#p582e00c6bc)" d="M 513.651719 664.78 
L 535.696081 664.78 
L 535.696081 575.89255 
L 513.651719 575.89255 
z
" style="fill:#dd8452;fill-opacity:0.5;stroke:#ffffff;stroke-linejoin:miter;"/>
   </g>
   <g id="patch_111">
    <path clip-path="url(#p582e00c6bc)" d="M 535.696081 664.78 
L 557.740443 664.78 
L 557.740443 564.664661 
L 535.696081 564.664661 
z
" style="fill:#dd8452;fill-opacity:0.5;stroke:#ffffff;stroke-linejoin:miter;"/>
   </g>
   <g id="patch_112">
    <path clip-path="url(#p582e00c6bc)" d="M 557.740443 664.78 
L 579.784804 664.78 
L 579.784804 560.922032 
L 557.740443 560.922032 
z
" style="fill:#dd8452;fill-opacity:0.5;stroke:#ffffff;stroke-linejoin:miter;"/>
   </g>
   <g id="patch_113">
    <path clip-path="url(#p582e00c6bc)" d="M 579.784804 664.78 
L 601.829166 664.78 
L 601.829166 539.401912 
L 579.784804 539.401912 
z
" style="fill:#dd8452;fill-opacity:0.5;stroke:#ffffff;stroke-linejoin:miter;"/>
   </g>
   <g id="patch_114">
    <path clip-path="url(#p582e00c6bc)" d="M 601.829166 664.78 
L 623.873528 664.78 
L 623.873528 534.723625 
L 601.829166 534.723625 
z
" style="fill:#dd8452;fill-opacity:0.5;stroke:#ffffff;stroke-linejoin:miter;"/>
   </g>
   <g id="patch_115">
    <path clip-path="url(#p582e00c6bc)" d="M 623.873528 664.78 
L 645.91789 664.78 
L 645.91789 539.401912 
L 623.873528 539.401912 
z
" style="fill:#dd8452;fill-opacity:0.5;stroke:#ffffff;stroke-linejoin:miter;"/>
   </g>
   <g id="patch_116">
    <path clip-path="url(#p582e00c6bc)" d="M 645.91789 664.78 
L 667.962251 664.78 
L 667.962251 549.694143 
L 645.91789 549.694143 
z
" style="fill:#dd8452;fill-opacity:0.5;stroke:#ffffff;stroke-linejoin:miter;"/>
   </g>
   <g id="patch_117">
    <path clip-path="url(#p582e00c6bc)" d="M 667.962251 664.78 
L 690.006613 664.78 
L 690.006613 553.436773 
L 667.962251 553.436773 
z
" style="fill:#dd8452;fill-opacity:0.5;stroke:#ffffff;stroke-linejoin:miter;"/>
   </g>
   <g id="patch_118">
    <path clip-path="url(#p582e00c6bc)" d="M 690.006613 664.78 
L 712.050975 664.78 
L 712.050975 554.37243 
L 690.006613 554.37243 
z
" style="fill:#dd8452;fill-opacity:0.5;stroke:#ffffff;stroke-linejoin:miter;"/>
   </g>
   <g id="patch_119">
    <path clip-path="url(#p582e00c6bc)" d="M 712.050975 664.78 
L 734.095337 664.78 
L 734.095337 555.308088 
L 712.050975 555.308088 
z
" style="fill:#dd8452;fill-opacity:0.5;stroke:#ffffff;stroke-linejoin:miter;"/>
   </g>
   <g id="patch_120">
    <path clip-path="url(#p582e00c6bc)" d="M 734.095337 664.78 
L 756.139698 664.78 
L 756.139698 552.501116 
L 734.095337 552.501116 
z
" style="fill:#dd8452;fill-opacity:0.5;stroke:#ffffff;stroke-linejoin:miter;"/>
   </g>
   <g id="patch_121">
    <path clip-path="url(#p582e00c6bc)" d="M 756.139698 664.78 
L 778.18406 664.78 
L 778.18406 561.857689 
L 756.139698 561.857689 
z
" style="fill:#dd8452;fill-opacity:0.5;stroke:#ffffff;stroke-linejoin:miter;"/>
   </g>
   <g id="patch_122">
    <path clip-path="url(#p582e00c6bc)" d="M 778.18406 664.78 
L 800.228422 664.78 
L 800.228422 577.763865 
L 778.18406 577.763865 
z
" style="fill:#dd8452;fill-opacity:0.5;stroke:#ffffff;stroke-linejoin:miter;"/>
   </g>
   <g id="patch_123">
    <path clip-path="url(#p582e00c6bc)" d="M 800.228422 664.78 
L 822.272784 664.78 
L 822.272784 582.442151 
L 800.228422 582.442151 
z
" style="fill:#dd8452;fill-opacity:0.5;stroke:#ffffff;stroke-linejoin:miter;"/>
   </g>
   <g id="patch_124">
    <path clip-path="url(#p582e00c6bc)" d="M 822.272784 664.78 
L 844.317145 664.78 
L 844.317145 582.442151 
L 822.272784 582.442151 
z
" style="fill:#dd8452;fill-opacity:0.5;stroke:#ffffff;stroke-linejoin:miter;"/>
   </g>
   <g id="patch_125">
    <path clip-path="url(#p582e00c6bc)" d="M 844.317145 664.78 
L 866.361507 664.78 
L 866.361507 609.576215 
L 844.317145 609.576215 
z
" style="fill:#dd8452;fill-opacity:0.5;stroke:#ffffff;stroke-linejoin:miter;"/>
   </g>
   <g id="patch_126">
    <path clip-path="url(#p582e00c6bc)" d="M 866.361507 664.78 
L 888.405869 664.78 
L 888.405869 606.769243 
L 866.361507 606.769243 
z
" style="fill:#dd8452;fill-opacity:0.5;stroke:#ffffff;stroke-linejoin:miter;"/>
   </g>
   <g id="patch_127">
    <path clip-path="url(#p582e00c6bc)" d="M 888.405869 664.78 
L 910.450231 664.78 
L 910.450231 632.031992 
L 888.405869 632.031992 
z
" style="fill:#dd8452;fill-opacity:0.5;stroke:#ffffff;stroke-linejoin:miter;"/>
   </g>
   <g id="patch_128">
    <path clip-path="url(#p582e00c6bc)" d="M 910.450231 664.78 
L 932.494592 664.78 
L 932.494592 632.967649 
L 910.450231 632.967649 
z
" style="fill:#dd8452;fill-opacity:0.5;stroke:#ffffff;stroke-linejoin:miter;"/>
   </g>
   <g id="patch_129">
    <path clip-path="url(#p582e00c6bc)" d="M 932.494592 664.78 
L 954.538954 664.78 
L 954.538954 647.938167 
L 932.494592 647.938167 
z
" style="fill:#dd8452;fill-opacity:0.5;stroke:#ffffff;stroke-linejoin:miter;"/>
   </g>
   <g id="patch_130">
    <path clip-path="url(#p582e00c6bc)" d="M 954.538954 664.78 
L 976.583316 664.78 
L 976.583316 647.938167 
L 954.538954 647.938167 
z
" style="fill:#dd8452;fill-opacity:0.5;stroke:#ffffff;stroke-linejoin:miter;"/>
   </g>
   <g id="patch_131">
    <path clip-path="url(#p582e00c6bc)" d="M 976.583316 664.78 
L 998.627678 664.78 
L 998.627678 661.973028 
L 976.583316 661.973028 
z
" style="fill:#dd8452;fill-opacity:0.5;stroke:#ffffff;stroke-linejoin:miter;"/>
   </g>
   <g id="patch_132">
    <path clip-path="url(#p582e00c6bc)" d="M 998.627678 664.78 
L 1020.672039 664.78 
L 1020.672039 661.973028 
L 998.627678 661.973028 
z
" style="fill:#dd8452;fill-opacity:0.5;stroke:#ffffff;stroke-linejoin:miter;"/>
   </g>
   <g id="patch_133">
    <path clip-path="url(#p582e00c6bc)" d="M 1020.672039 664.78 
L 1042.716401 664.78 
L 1042.716401 663.844343 
L 1020.672039 663.844343 
z
" style="fill:#dd8452;fill-opacity:0.5;stroke:#ffffff;stroke-linejoin:miter;"/>
   </g>
   <g id="patch_134">
    <path clip-path="url(#p582e00c6bc)" d="M 1042.716401 664.78 
L 1064.760763 664.78 
L 1064.760763 664.78 
L 1042.716401 664.78 
z
" style="fill:#dd8452;fill-opacity:0.5;stroke:#ffffff;stroke-linejoin:miter;"/>
   </g>
   <g id="patch_135">
    <path clip-path="url(#p582e00c6bc)" d="M 94.808846 664.78 
L 116.853208 664.78 
L 116.853208 662.87065 
L 94.808846 662.87065 
z
" style="fill:#4c72b0;fill-opacity:0.5;stroke:#ffffff;stroke-linejoin:miter;"/>
   </g>
   <g id="patch_136">
    <path clip-path="url(#p582e00c6bc)" d="M 116.853208 664.78 
L 138.897569 664.78 
L 138.897569 664.78 
L 116.853208 664.78 
z
" style="fill:#4c72b0;fill-opacity:0.5;stroke:#ffffff;stroke-linejoin:miter;"/>
   </g>
   <g id="patch_137">
    <path clip-path="url(#p582e00c6bc)" d="M 138.897569 664.78 
L 160.941931 664.78 
L 160.941931 664.78 
L 138.897569 664.78 
z
" style="fill:#4c72b0;fill-opacity:0.5;stroke:#ffffff;stroke-linejoin:miter;"/>
   </g>
   <g id="patch_138">
    <path clip-path="url(#p582e00c6bc)" d="M 160.941931 664.78 
L 182.986293 664.78 
L 182.986293 662.87065 
L 160.941931 662.87065 
z
" style="fill:#4c72b0;fill-opacity:0.5;stroke:#ffffff;stroke-linejoin:miter;"/>
   </g>
   <g id="patch_139">
    <path clip-path="url(#p582e00c6bc)" d="M 182.986293 664.78 
L 205.030655 664.78 
L 205.030655 664.78 
L 182.986293 664.78 
z
" style="fill:#4c72b0;fill-opacity:0.5;stroke:#ffffff;stroke-linejoin:miter;"/>
   </g>
   <g id="patch_140">
    <path clip-path="url(#p582e00c6bc)" d="M 205.030655 664.78 
L 227.075016 664.78 
L 227.075016 655.233252 
L 205.030655 655.233252 
z
" style="fill:#4c72b0;fill-opacity:0.5;stroke:#ffffff;stroke-linejoin:miter;"/>
   </g>
   <g id="patch_141">
    <path clip-path="url(#p582e00c6bc)" d="M 227.075016 664.78 
L 249.119378 664.78 
L 249.119378 649.505203 
L 227.075016 649.505203 
z
" style="fill:#4c72b0;fill-opacity:0.5;stroke:#ffffff;stroke-linejoin:miter;"/>
   </g>
   <g id="patch_142">
    <path clip-path="url(#p582e00c6bc)" d="M 249.119378 664.78 
L 271.16374 664.78 
L 271.16374 653.323902 
L 249.119378 653.323902 
z
" style="fill:#4c72b0;fill-opacity:0.5;stroke:#ffffff;stroke-linejoin:miter;"/>
   </g>
   <g id="patch_143">
    <path clip-path="url(#p582e00c6bc)" d="M 271.16374 664.78 
L 293.208102 664.78 
L 293.208102 596.043415 
L 271.16374 596.043415 
z
" style="fill:#4c72b0;fill-opacity:0.5;stroke:#ffffff;stroke-linejoin:miter;"/>
   </g>
   <g id="patch_144">
    <path clip-path="url(#p582e00c6bc)" d="M 293.208102 664.78 
L 315.252463 664.78 
L 315.252463 559.765772 
L 293.208102 559.765772 
z
" style="fill:#4c72b0;fill-opacity:0.5;stroke:#ffffff;stroke-linejoin:miter;"/>
   </g>
   <g id="patch_145">
    <path clip-path="url(#p582e00c6bc)" d="M 315.252463 664.78 
L 337.296825 664.78 
L 337.296825 529.216179 
L 315.252463 529.216179 
z
" style="fill:#4c72b0;fill-opacity:0.5;stroke:#ffffff;stroke-linejoin:miter;"/>
   </g>
   <g id="patch_146">
    <path clip-path="url(#p582e00c6bc)" d="M 337.296825 664.78 
L 359.341187 664.78 
L 359.341187 449.023496 
L 337.296825 449.023496 
z
" style="fill:#4c72b0;fill-opacity:0.5;stroke:#ffffff;stroke-linejoin:miter;"/>
   </g>
   <g id="patch_147">
    <path clip-path="url(#p582e00c6bc)" d="M 359.341187 664.78 
L 381.385549 664.78 
L 381.385549 437.567398 
L 359.341187 437.567398 
z
" style="fill:#4c72b0;fill-opacity:0.5;stroke:#ffffff;stroke-linejoin:miter;"/>
   </g>
   <g id="patch_148">
    <path clip-path="url(#p582e00c6bc)" d="M 381.385549 664.78 
L 403.42991 664.78 
L 403.42991 439.476748 
L 381.385549 439.476748 
z
" style="fill:#4c72b0;fill-opacity:0.5;stroke:#ffffff;stroke-linejoin:miter;"/>
   </g>
   <g id="patch_149">
    <path clip-path="url(#p582e00c6bc)" d="M 403.42991 664.78 
L 425.474272 664.78 
L 425.474272 372.649512 
L 403.42991 372.649512 
z
" style="fill:#4c72b0;fill-opacity:0.5;stroke:#ffffff;stroke-linejoin:miter;"/>
   </g>
   <g id="patch_150">
    <path clip-path="url(#p582e00c6bc)" d="M 425.474272 664.78 
L 447.518634 664.78 
L 447.518634 292.456829 
L 425.474272 292.456829 
z
" style="fill:#4c72b0;fill-opacity:0.5;stroke:#ffffff;stroke-linejoin:miter;"/>
   </g>
   <g id="patch_151">
    <path clip-path="url(#p582e00c6bc)" d="M 447.518634 664.78 
L 469.562996 664.78 
L 469.562996 258.088537 
L 447.518634 258.088537 
z
" style="fill:#4c72b0;fill-opacity:0.5;stroke:#ffffff;stroke-linejoin:miter;"/>
   </g>
   <g id="patch_152">
    <path clip-path="url(#p582e00c6bc)" d="M 469.562996 664.78 
L 491.607357 664.78 
L 491.607357 235.176341 
L 469.562996 235.176341 
z
" style="fill:#4c72b0;fill-opacity:0.5;stroke:#ffffff;stroke-linejoin:miter;"/>
   </g>
   <g id="patch_153">
    <path clip-path="url(#p582e00c6bc)" d="M 491.607357 664.78 
L 513.651719 664.78 
L 513.651719 244.723089 
L 491.607357 244.723089 
z
" style="fill:#4c72b0;fill-opacity:0.5;stroke:#ffffff;stroke-linejoin:miter;"/>
   </g>
   <g id="patch_154">
    <path clip-path="url(#p582e00c6bc)" d="M 513.651719 664.78 
L 535.696081 664.78 
L 535.696081 217.992195 
L 513.651719 217.992195 
z
" style="fill:#4c72b0;fill-opacity:0.5;stroke:#ffffff;stroke-linejoin:miter;"/>
   </g>
   <g id="patch_155">
    <path clip-path="url(#p582e00c6bc)" d="M 535.696081 664.78 
L 557.740443 664.78 
L 557.740443 250.451138 
L 535.696081 250.451138 
z
" style="fill:#4c72b0;fill-opacity:0.5;stroke:#ffffff;stroke-linejoin:miter;"/>
   </g>
   <g id="patch_156">
    <path clip-path="url(#p582e00c6bc)" d="M 557.740443 664.78 
L 579.784804 664.78 
L 579.784804 258.088537 
L 557.740443 258.088537 
z
" style="fill:#4c72b0;fill-opacity:0.5;stroke:#ffffff;stroke-linejoin:miter;"/>
   </g>
   <g id="patch_157">
    <path clip-path="url(#p582e00c6bc)" d="M 579.784804 664.78 
L 601.829166 664.78 
L 601.829166 204.626748 
L 579.784804 204.626748 
z
" style="fill:#4c72b0;fill-opacity:0.5;stroke:#ffffff;stroke-linejoin:miter;"/>
   </g>
   <g id="patch_158">
    <path clip-path="url(#p582e00c6bc)" d="M 601.829166 664.78 
L 623.873528 664.78 
L 623.873528 124.434065 
L 601.829166 124.434065 
z
" style="fill:#4c72b0;fill-opacity:0.5;stroke:#ffffff;stroke-linejoin:miter;"/>
   </g>
   <g id="patch_159">
    <path clip-path="url(#p582e00c6bc)" d="M 623.873528 664.78 
L 645.91789 664.78 
L 645.91789 61.425528 
L 623.873528 61.425528 
z
" style="fill:#4c72b0;fill-opacity:0.5;stroke:#ffffff;stroke-linejoin:miter;"/>
   </g>
   <g id="patch_160">
    <path clip-path="url(#p582e00c6bc)" d="M 645.91789 664.78 
L 667.962251 664.78 
L 667.962251 38.513333 
L 645.91789 38.513333 
z
" style="fill:#4c72b0;fill-opacity:0.5;stroke:#ffffff;stroke-linejoin:miter;"/>
   </g>
   <g id="patch_161">
    <path clip-path="url(#p582e00c6bc)" d="M 667.962251 664.78 
L 690.006613 664.78 
L 690.006613 120.615366 
L 667.962251 120.615366 
z
" style="fill:#4c72b0;fill-opacity:0.5;stroke:#ffffff;stroke-linejoin:miter;"/>
   </g>
   <g id="patch_162">
    <path clip-path="url(#p582e00c6bc)" d="M 690.006613 664.78 
L 712.050975 664.78 
L 712.050975 154.983659 
L 690.006613 154.983659 
z
" style="fill:#4c72b0;fill-opacity:0.5;stroke:#ffffff;stroke-linejoin:miter;"/>
   </g>
   <g id="patch_163">
    <path clip-path="url(#p582e00c6bc)" d="M 712.050975 664.78 
L 734.095337 664.78 
L 734.095337 112.977967 
L 712.050975 112.977967 
z
" style="fill:#4c72b0;fill-opacity:0.5;stroke:#ffffff;stroke-linejoin:miter;"/>
   </g>
   <g id="patch_164">
    <path clip-path="url(#p582e00c6bc)" d="M 734.095337 664.78 
L 756.139698 664.78 
L 756.139698 114.887317 
L 734.095337 114.887317 
z
" style="fill:#4c72b0;fill-opacity:0.5;stroke:#ffffff;stroke-linejoin:miter;"/>
   </g>
   <g id="patch_165">
    <path clip-path="url(#p582e00c6bc)" d="M 756.139698 664.78 
L 778.18406 664.78 
L 778.18406 153.074309 
L 756.139698 153.074309 
z
" style="fill:#4c72b0;fill-opacity:0.5;stroke:#ffffff;stroke-linejoin:miter;"/>
   </g>
   <g id="patch_166">
    <path clip-path="url(#p582e00c6bc)" d="M 778.18406 664.78 
L 800.228422 664.78 
L 800.228422 174.077154 
L 778.18406 174.077154 
z
" style="fill:#4c72b0;fill-opacity:0.5;stroke:#ffffff;stroke-linejoin:miter;"/>
   </g>
   <g id="patch_167">
    <path clip-path="url(#p582e00c6bc)" d="M 800.228422 664.78 
L 822.272784 664.78 
L 822.272784 250.451138 
L 800.228422 250.451138 
z
" style="fill:#4c72b0;fill-opacity:0.5;stroke:#ffffff;stroke-linejoin:miter;"/>
   </g>
   <g id="patch_168">
    <path clip-path="url(#p582e00c6bc)" d="M 822.272784 664.78 
L 844.317145 664.78 
L 844.317145 300.094228 
L 822.272784 300.094228 
z
" style="fill:#4c72b0;fill-opacity:0.5;stroke:#ffffff;stroke-linejoin:miter;"/>
   </g>
   <g id="patch_169">
    <path clip-path="url(#p582e00c6bc)" d="M 844.317145 664.78 
L 866.361507 664.78 
L 866.361507 353.556016 
L 844.317145 353.556016 
z
" style="fill:#4c72b0;fill-opacity:0.5;stroke:#ffffff;stroke-linejoin:miter;"/>
   </g>
   <g id="patch_170">
    <path clip-path="url(#p582e00c6bc)" d="M 866.361507 664.78 
L 888.405869 664.78 
L 888.405869 443.295447 
L 866.361507 443.295447 
z
" style="fill:#4c72b0;fill-opacity:0.5;stroke:#ffffff;stroke-linejoin:miter;"/>
   </g>
   <g id="patch_171">
    <path clip-path="url(#p582e00c6bc)" d="M 888.405869 664.78 
L 910.450231 664.78 
L 910.450231 456.660894 
L 888.405869 456.660894 
z
" style="fill:#4c72b0;fill-opacity:0.5;stroke:#ffffff;stroke-linejoin:miter;"/>
   </g>
   <g id="patch_172">
    <path clip-path="url(#p582e00c6bc)" d="M 910.450231 664.78 
L 932.494592 664.78 
L 932.494592 521.57878 
L 910.450231 521.57878 
z
" style="fill:#4c72b0;fill-opacity:0.5;stroke:#ffffff;stroke-linejoin:miter;"/>
   </g>
   <g id="patch_173">
    <path clip-path="url(#p582e00c6bc)" d="M 932.494592 664.78 
L 954.538954 664.78 
L 954.538954 561.675122 
L 932.494592 561.675122 
z
" style="fill:#4c72b0;fill-opacity:0.5;stroke:#ffffff;stroke-linejoin:miter;"/>
   </g>
   <g id="patch_174">
    <path clip-path="url(#p582e00c6bc)" d="M 954.538954 664.78 
L 976.583316 664.78 
L 976.583316 586.496667 
L 954.538954 586.496667 
z
" style="fill:#4c72b0;fill-opacity:0.5;stroke:#ffffff;stroke-linejoin:miter;"/>
   </g>
   <g id="patch_175">
    <path clip-path="url(#p582e00c6bc)" d="M 976.583316 664.78 
L 998.627678 664.78 
L 998.627678 624.683659 
L 976.583316 624.683659 
z
" style="fill:#4c72b0;fill-opacity:0.5;stroke:#ffffff;stroke-linejoin:miter;"/>
   </g>
   <g id="patch_176">
    <path clip-path="url(#p582e00c6bc)" d="M 998.627678 664.78 
L 1020.672039 664.78 
L 1020.672039 649.505203 
L 998.627678 649.505203 
z
" style="fill:#4c72b0;fill-opacity:0.5;stroke:#ffffff;stroke-linejoin:miter;"/>
   </g>
   <g id="patch_177">
    <path clip-path="url(#p582e00c6bc)" d="M 1020.672039 664.78 
L 1042.716401 664.78 
L 1042.716401 660.961301 
L 1020.672039 660.961301 
z
" style="fill:#4c72b0;fill-opacity:0.5;stroke:#ffffff;stroke-linejoin:miter;"/>
   </g>
   <g id="patch_178">
    <path clip-path="url(#p582e00c6bc)" d="M 1042.716401 664.78 
L 1064.760763 664.78 
L 1064.760763 660.961301 
L 1042.716401 660.961301 
z
" style="fill:#4c72b0;fill-opacity:0.5;stroke:#ffffff;stroke-linejoin:miter;"/>
   </g>
   <g id="line2d_13">
    <path clip-path="url(#p582e00c6bc)" d="M 94.808846 663.411077 
L 104.557106 662.578119 
L 114.305367 661.436996 
L 119.179497 660.706344 
L 124.053627 659.824063 
L 128.927758 658.739261 
L 133.801888 657.388094 
L 138.676018 655.698848 
L 143.550148 653.60123 
L 148.424278 651.038877 
L 153.298409 647.982704 
L 158.172539 644.441868 
L 163.046669 640.469136 
L 167.920799 636.158674 
L 187.41732 618.203578 
L 192.291451 614.184835 
L 197.165581 610.542683 
L 202.039711 607.324584 
L 206.913841 604.55388 
L 211.787972 602.233069 
L 216.662102 600.346398 
L 221.536232 598.862171 
L 226.410362 597.735855 
L 231.284492 596.914898 
L 236.158623 596.345352 
L 241.032753 595.97955 
L 245.906883 595.783462 
L 250.781013 595.742147 
L 255.655144 595.861919 
L 260.529274 596.168359 
L 265.403404 596.700343 
L 270.277534 597.501404 
L 275.151665 598.610696 
L 280.025795 600.055828 
L 284.899925 601.848763 
L 289.774055 603.984316 
L 294.648186 606.43959 
L 299.522316 609.172803 
L 304.396446 612.121396 
L 319.018837 621.32889 
L 323.892967 624.147802 
L 328.767097 626.665382 
L 333.641227 628.807755 
L 338.515358 630.534075 
L 343.389488 631.838237 
L 348.263618 632.74657 
L 353.137748 633.313411 
L 358.011879 633.61568 
L 367.760139 633.805879 
L 377.5084 634.087826 
L 382.38253 634.452793 
L 387.25666 635.016675 
L 392.13079 635.78026 
L 397.00492 636.721031 
L 406.753181 638.980822 
L 431.123832 645.131455 
L 440.872093 647.342914 
L 450.620353 649.344782 
L 460.368614 651.153167 
L 494.487525 657.093248 
L 513.984046 661.105959 
L 518.858176 661.963204 
L 523.732307 662.688798 
L 528.606437 663.268474 
L 533.480567 663.704509 
L 543.228828 664.215936 
L 552.977088 664.410786 
L 572.473609 664.440568 
L 601.71839 664.209139 
L 630.963172 663.965959 
L 650.459693 664.120533 
L 699.200995 664.666566 
L 728.445777 664.772369 
L 825.928381 664.743165 
L 879.543814 664.637154 
L 923.410986 664.776307 
L 1011.14533 664.717483 
L 1050.138372 664.605398 
L 1064.760763 664.67285 
L 1064.760763 664.67285 
" style="fill:none;stroke:#c44e52;stroke-linecap:round;stroke-width:1.5;"/>
   </g>
   <g id="line2d_14">
    <path clip-path="url(#p582e00c6bc)" d="M 94.808846 664.78 
L 265.403404 664.675648 
L 280.025795 664.425086 
L 294.648186 663.957067 
L 323.892967 662.872594 
L 333.641227 662.718297 
L 343.389488 662.773978 
L 362.886009 663.124824 
L 367.760139 663.070229 
L 372.634269 662.876543 
L 377.5084 662.510535 
L 382.38253 661.950336 
L 387.25666 661.187034 
L 392.13079 660.223564 
L 397.00492 659.071089 
L 401.879051 657.743758 
L 406.753181 656.253392 
L 411.627311 654.6058 
L 416.501441 652.799879 
L 421.375572 650.829594 
L 426.249702 648.687637 
L 431.123832 646.368754 
L 435.997962 643.870767 
L 440.872093 641.192295 
L 445.746223 638.327551 
L 450.620353 635.259858 
L 455.494483 631.956077 
L 460.368614 628.363796 
L 465.242744 624.412167 
L 470.116874 620.01598 
L 474.991004 615.081608 
L 479.865135 609.513247 
L 484.739265 603.218709 
L 489.613395 596.11559 
L 494.487525 588.139947 
L 499.361655 579.259532 
L 504.235786 569.49141 
L 509.109916 558.92014 
L 513.984046 547.709403 
L 528.606437 512.875464 
L 533.480567 501.843457 
L 538.354697 491.470466 
L 543.228828 481.803346 
L 548.102958 472.729206 
L 557.851218 455.153666 
L 562.725349 445.809103 
L 567.599479 435.536151 
L 572.473609 424.076926 
L 577.347739 411.415356 
L 582.221869 397.821374 
L 591.97013 370.089803 
L 596.84426 357.280516 
L 601.71839 345.848856 
L 606.592521 335.917088 
L 611.466651 327.232783 
L 621.214911 311.217296 
L 626.089042 302.506584 
L 630.963172 292.644235 
L 635.837302 281.471245 
L 640.711432 269.127945 
L 645.585563 255.973772 
L 655.333823 229.054031 
L 660.207953 216.087345 
L 665.082083 203.80732 
L 669.956214 192.355532 
L 674.830344 181.812552 
L 679.704474 172.233691 
L 684.578604 163.669138 
L 689.452735 156.16442 
L 694.326865 149.744746 
L 699.200995 144.390052 
L 704.075125 140.008211 
L 708.949256 136.414607 
L 713.823386 133.327796 
L 718.697516 130.390928 
L 723.571646 127.223527 
L 728.445777 123.497346 
L 733.319907 119.017268 
L 738.194037 113.780822 
L 743.068167 107.993487 
L 747.942298 102.031803 
L 752.816428 96.365713 
L 757.690558 91.46637 
L 762.564688 87.728972 
L 767.438818 85.43136 
L 772.312949 84.733435 
L 777.187079 85.707247 
L 782.061209 88.378657 
L 786.935339 92.761107 
L 791.80947 98.869029 
L 796.6836 106.709327 
L 801.55773 116.259441 
L 806.43186 127.445495 
L 811.305991 140.131649 
L 816.180121 154.123858 
L 821.054251 169.182761 
L 825.928381 185.03693 
L 845.424902 250.303275 
L 850.299032 265.576416 
L 855.173163 280.001695 
L 860.047293 293.557231 
L 864.921423 306.370672 
L 879.543814 343.393364 
L 884.417944 356.456684 
L 889.292074 370.316184 
L 894.166205 385.010182 
L 899.040335 400.400382 
L 913.662726 447.586486 
L 918.536856 462.494559 
L 923.410986 476.588974 
L 928.285116 489.803733 
L 933.159246 502.178154 
L 938.033377 513.817039 
L 942.907507 524.846058 
L 947.781637 535.376826 
L 952.655767 545.489728 
L 957.529898 555.233929 
L 962.404028 564.637153 
L 967.278158 573.715802 
L 972.152288 582.478997 
L 977.026419 590.925837 
L 981.900549 599.039945 
L 986.774679 606.786693 
L 991.648809 614.116284 
L 996.52294 620.972124 
L 1001.39707 627.301132 
L 1006.2712 633.062264 
L 1011.14533 638.231118 
L 1016.01946 642.800712 
L 1020.893591 646.779959 
L 1025.767721 650.191477 
L 1030.641851 653.069638 
L 1035.515981 655.458811 
L 1040.390112 657.411352 
L 1045.264242 658.984912 
L 1050.138372 660.239086 
L 1055.012502 661.231787 
L 1059.886633 662.015926 
L 1064.760763 662.636939 
L 1064.760763 662.636939 
" style="fill:none;stroke:#55a868;stroke-linecap:round;stroke-width:1.5;"/>
   </g>
   <g id="line2d_15">
    <path clip-path="url(#p582e00c6bc)" d="M 94.808846 664.779327 
L 153.298409 664.684239 
L 172.79493 664.433452 
L 182.54319 664.153593 
L 192.291451 663.684044 
L 202.039711 662.924911 
L 206.913841 662.397058 
L 211.787972 661.745553 
L 216.662102 660.949981 
L 221.536232 659.988987 
L 226.410362 658.84084 
L 231.284492 657.484102 
L 236.158623 655.89837 
L 241.032753 654.065042 
L 245.906883 651.968104 
L 250.781013 649.594873 
L 255.655144 646.936698 
L 260.529274 643.989594 
L 265.403404 640.754807 
L 270.277534 637.239308 
L 275.151665 633.456235 
L 280.025795 629.425261 
L 284.899925 625.172902 
L 294.648186 616.145393 
L 314.144706 597.370601 
L 319.018837 592.878695 
L 323.892967 588.601181 
L 328.767097 584.604043 
L 333.641227 580.948396 
L 338.515358 577.687481 
L 343.389488 574.86379 
L 348.263618 572.506575 
L 353.137748 570.630028 
L 358.011879 569.232306 
L 362.886009 568.295585 
L 367.760139 567.787156 
L 372.634269 567.661501 
L 377.5084 567.863174 
L 382.38253 568.330211 
L 387.25666 568.997734 
L 397.00492 570.680572 
L 406.753181 572.453463 
L 416.501441 573.971124 
L 421.375572 574.5613 
L 426.249702 575.014638 
L 431.123832 575.320422 
L 435.997962 575.473086 
L 440.872093 575.471748 
L 445.746223 575.320033 
L 450.620353 575.026114 
L 455.494483 574.602805 
L 465.242744 573.441805 
L 479.865135 571.278561 
L 494.487525 569.198866 
L 504.235786 568.040474 
L 523.732307 565.918464 
L 533.480567 564.546365 
L 538.354697 563.693295 
L 543.228828 562.709335 
L 548.102958 561.590984 
L 557.851218 558.985669 
L 567.599479 556.034643 
L 582.221869 551.54789 
L 587.096 550.186404 
L 591.97013 548.948756 
L 596.84426 547.861746 
L 601.71839 546.94569 
L 606.592521 546.213905 
L 611.466651 545.672663 
L 616.340781 545.321552 
L 621.214911 545.154172 
L 626.089042 545.159055 
L 630.963172 545.320727 
L 635.837302 545.620825 
L 645.585563 546.555014 
L 655.333823 547.797478 
L 674.830344 550.65361 
L 728.445777 558.655368 
L 738.194037 560.397776 
L 747.942298 562.342274 
L 757.690558 564.515299 
L 767.438818 566.932923 
L 777.187079 569.608292 
L 786.935339 572.560088 
L 796.6836 575.815577 
L 806.43186 579.403476 
L 816.180121 583.337796 
L 825.928381 587.6007 
L 835.676642 592.135089 
L 850.299032 599.251141 
L 879.543814 613.61277 
L 899.040335 622.89197 
L 913.662726 629.599682 
L 923.410986 633.880848 
L 933.159246 637.950604 
L 942.907507 641.763855 
L 952.655767 645.28892 
L 962.404028 648.508044 
L 972.152288 651.412433 
L 981.900549 653.996167 
L 991.648809 656.253493 
L 1001.39707 658.181278 
L 1011.14533 659.784619 
L 1020.893591 661.081415 
L 1030.641851 662.102556 
L 1040.390112 662.887499 
L 1050.138372 663.477822 
L 1064.760763 664.080959 
L 1064.760763 664.080959 
" style="fill:none;stroke:#dd8452;stroke-linecap:round;stroke-width:1.5;"/>
   </g>
   <g id="line2d_16">
    <path clip-path="url(#p582e00c6bc)" d="M 94.808846 664.198354 
L 119.179497 664.047302 
L 143.550148 663.892142 
L 153.298409 663.685433 
L 163.046669 663.290357 
L 172.79493 662.602805 
L 182.54319 661.516617 
L 187.41732 660.80024 
L 192.291451 659.962934 
L 197.165581 659.004613 
L 202.039711 657.925918 
L 206.913841 656.724735 
L 211.787972 655.391998 
L 216.662102 653.907608 
L 221.536232 652.237422 
L 226.410362 650.332255 
L 231.284492 648.129478 
L 236.158623 645.557356 
L 241.032753 642.541638 
L 245.906883 639.013399 
L 250.781013 634.916774 
L 255.655144 630.215169 
L 260.529274 624.89481 
L 265.403404 618.964993 
L 270.277534 612.45511 
L 275.151665 605.409153 
L 280.025795 597.878953 
L 284.899925 589.917638 
L 289.774055 581.574731 
L 294.648186 572.893977 
L 299.522316 563.91437 
L 309.270576 545.217084 
L 333.641227 497.267059 
L 338.515358 488.286406 
L 343.389488 479.773216 
L 348.263618 471.799695 
L 353.137748 464.38959 
L 358.011879 457.507504 
L 362.886009 451.055239 
L 377.5084 432.513776 
L 382.38253 425.881531 
L 387.25666 418.677984 
L 392.13079 410.756855 
L 397.00492 402.038342 
L 401.879051 392.516824 
L 406.753181 382.259056 
L 411.627311 371.3938 
L 421.375572 348.564042 
L 431.123832 325.628337 
L 435.997962 314.60873 
L 440.872093 304.112067 
L 445.746223 294.279625 
L 450.620353 285.232549 
L 455.494483 277.072564 
L 460.368614 269.880283 
L 465.242744 263.710628 
L 470.116874 258.586243 
L 474.991004 254.490992 
L 479.865135 251.366094 
L 484.739265 249.111208 
L 489.613395 247.591635 
L 494.487525 246.651263 
L 499.361655 246.129139 
L 504.235786 245.876296 
L 528.606437 245.319466 
L 533.480567 244.95214 
L 538.354697 244.344873 
L 543.228828 243.375473 
L 548.102958 241.889993 
L 552.977088 239.716726 
L 557.851218 236.687722 
L 562.725349 232.663325 
L 567.599479 227.554444 
L 572.473609 221.337762 
L 577.347739 214.060807 
L 582.221869 205.836159 
L 587.096 196.826658 
L 591.97013 187.225463 
L 601.71839 167.055611 
L 611.466651 146.845229 
L 616.340781 137.149688 
L 621.214911 127.949782 
L 626.089042 119.425384 
L 630.963172 111.770512 
L 635.837302 105.186535 
L 640.711432 99.866311 
L 645.585563 95.971784 
L 650.459693 93.609578 
L 655.333823 92.809998 
L 660.207953 93.514271 
L 665.082083 95.573167 
L 669.956214 98.757748 
L 674.830344 102.780627 
L 679.704474 107.324248 
L 689.452735 116.736322 
L 694.326865 121.084407 
L 699.200995 124.95206 
L 704.075125 128.251761 
L 708.949256 130.970989 
L 713.823386 133.163531 
L 718.697516 134.935586 
L 723.571646 136.429046 
L 733.319907 139.225063 
L 738.194037 140.845702 
L 743.068167 142.803706 
L 747.942298 145.215518 
L 752.816428 148.176112 
L 757.690558 151.760804 
L 762.564688 156.028062 
L 767.438818 161.022228 
L 772.312949 166.775557 
L 777.187079 173.309445 
L 782.061209 180.635122 
L 786.935339 188.754192 
L 791.80947 197.659215 
L 796.6836 207.334242 
L 801.55773 217.754838 
L 806.43186 228.887123 
L 811.305991 240.685551 
L 816.180121 253.0897 
L 821.054251 266.020934 
L 830.802512 293.048682 
L 845.424902 334.523075 
L 850.299032 348.03959 
L 855.173163 361.205198 
L 860.047293 373.942323 
L 864.921423 386.207404 
L 869.795553 397.990574 
L 874.669684 409.311649 
L 879.543814 420.213461 
L 884.417944 430.753764 
L 894.166205 451.006223 
L 903.914465 470.535927 
L 913.662726 489.636094 
L 923.410986 508.369042 
L 933.159246 526.609401 
L 942.907507 544.145884 
L 947.781637 552.586904 
L 952.655767 560.784587 
L 957.529898 568.72666 
L 962.404028 576.405286 
L 967.278158 583.815368 
L 972.152288 590.952421 
L 977.026419 597.810426 
L 981.900549 604.380116 
L 986.774679 610.648025 
L 991.648809 616.596503 
L 996.52294 622.20473 
L 1001.39707 627.450559 
L 1006.2712 632.3129 
L 1011.14533 636.774256 
L 1016.01946 640.823025 
L 1020.893591 644.455249 
L 1025.767721 647.675575 
L 1030.641851 650.497349 
L 1035.515981 652.941862 
L 1040.390112 655.036923 
L 1045.264242 656.814956 
L 1050.138372 658.310897 
L 1055.012502 659.560156 
L 1059.886633 660.596852 
L 1064.760763 661.452496 
L 1064.760763 661.452496 
" style="fill:none;stroke:#4c72b0;stroke-linecap:round;stroke-width:1.5;"/>
   </g>
   <g id="patch_179">
    <path d="M 46.31125 664.78 
L 46.31125 7.2 
" style="fill:none;stroke:#ffffff;stroke-linecap:square;stroke-linejoin:miter;stroke-width:1.25;"/>
   </g>
   <g id="patch_180">
    <path d="M 46.31125 664.78 
L 1113.258359 664.78 
" style="fill:none;stroke:#ffffff;stroke-linecap:square;stroke-linejoin:miter;stroke-width:1.25;"/>
   </g>
  </g>
  <g id="legend_1">
   <g id="text_15">
    <!-- Pos_Type -->
    <g style="fill:#262626;" transform="translate(1145.498125 324.722344)scale(0.12 -0.12)">
     <defs>
      <path d="M 19.671875 64.796875 
L 19.671875 37.40625 
L 32.078125 37.40625 
Q 38.96875 37.40625 42.71875 40.96875 
Q 46.484375 44.53125 46.484375 51.125 
Q 46.484375 57.671875 42.71875 61.234375 
Q 38.96875 64.796875 32.078125 64.796875 
z
M 9.8125 72.90625 
L 32.078125 72.90625 
Q 44.34375 72.90625 50.609375 67.359375 
Q 56.890625 61.8125 56.890625 51.125 
Q 56.890625 40.328125 50.609375 34.8125 
Q 44.34375 29.296875 32.078125 29.296875 
L 19.671875 29.296875 
L 19.671875 0 
L 9.8125 0 
z
" id="DejaVuSans-80"/>
      <path d="M 50.984375 -16.609375 
L 50.984375 -23.578125 
L -0.984375 -23.578125 
L -0.984375 -16.609375 
z
" id="DejaVuSans-95"/>
      <path d="M -0.296875 72.90625 
L 61.375 72.90625 
L 61.375 64.59375 
L 35.5 64.59375 
L 35.5 0 
L 25.59375 0 
L 25.59375 64.59375 
L -0.296875 64.59375 
z
" id="DejaVuSans-84"/>
      <path d="M 18.109375 8.203125 
L 18.109375 -20.796875 
L 9.078125 -20.796875 
L 9.078125 54.6875 
L 18.109375 54.6875 
L 18.109375 46.390625 
Q 20.953125 51.265625 25.265625 53.625 
Q 29.59375 56 35.59375 56 
Q 45.5625 56 51.78125 48.09375 
Q 58.015625 40.1875 58.015625 27.296875 
Q 58.015625 14.40625 51.78125 6.484375 
Q 45.5625 -1.421875 35.59375 -1.421875 
Q 29.59375 -1.421875 25.265625 0.953125 
Q 20.953125 3.328125 18.109375 8.203125 
z
M 48.6875 27.296875 
Q 48.6875 37.203125 44.609375 42.84375 
Q 40.53125 48.484375 33.40625 48.484375 
Q 26.265625 48.484375 22.1875 42.84375 
Q 18.109375 37.203125 18.109375 27.296875 
Q 18.109375 17.390625 22.1875 11.75 
Q 26.265625 6.109375 33.40625 6.109375 
Q 40.53125 6.109375 44.609375 11.75 
Q 48.6875 17.390625 48.6875 27.296875 
z
" id="DejaVuSans-112"/>
     </defs>
     <use xlink:href="#DejaVuSans-80"/>
     <use x="56.677734" xlink:href="#DejaVuSans-111"/>
     <use x="117.859375" xlink:href="#DejaVuSans-115"/>
     <use x="169.958984" xlink:href="#DejaVuSans-95"/>
     <use x="219.958984" xlink:href="#DejaVuSans-84"/>
     <use x="265.417969" xlink:href="#DejaVuSans-121"/>
     <use x="324.597656" xlink:href="#DejaVuSans-112"/>
     <use x="388.074219" xlink:href="#DejaVuSans-101"/>
    </g>
   </g>
   <g id="patch_181">
    <path d="M 1149.20625 341.41 
L 1171.20625 341.41 
L 1171.20625 333.71 
L 1149.20625 333.71 
z
" style="fill:#4c72b0;fill-opacity:0.5;stroke:#ffffff;stroke-linejoin:miter;"/>
   </g>
   <g id="text_16">
    <!-- M -->
    <g style="fill:#262626;" transform="translate(1180.00625 341.41)scale(0.11 -0.11)">
     <defs>
      <path d="M 9.8125 72.90625 
L 24.515625 72.90625 
L 43.109375 23.296875 
L 61.8125 72.90625 
L 76.515625 72.90625 
L 76.515625 0 
L 66.890625 0 
L 66.890625 64.015625 
L 48.09375 14.015625 
L 38.1875 14.015625 
L 19.390625 64.015625 
L 19.390625 0 
L 9.8125 0 
z
" id="DejaVuSans-77"/>
     </defs>
     <use xlink:href="#DejaVuSans-77"/>
    </g>
   </g>
   <g id="patch_182">
    <path d="M 1149.20625 357.555937 
L 1171.20625 357.555937 
L 1171.20625 349.855937 
L 1149.20625 349.855937 
z
" style="fill:#dd8452;fill-opacity:0.5;stroke:#ffffff;stroke-linejoin:miter;"/>
   </g>
   <g id="text_17">
    <!-- F -->
    <g style="fill:#262626;" transform="translate(1180.00625 357.555937)scale(0.11 -0.11)">
     <use xlink:href="#DejaVuSans-70"/>
    </g>
   </g>
   <g id="patch_183">
    <path d="M 1149.20625 373.701875 
L 1171.20625 373.701875 
L 1171.20625 366.001875 
L 1149.20625 366.001875 
z
" style="fill:#55a868;fill-opacity:0.5;stroke:#ffffff;stroke-linejoin:miter;"/>
   </g>
   <g id="text_18">
    <!-- D -->
    <g style="fill:#262626;" transform="translate(1180.00625 373.701875)scale(0.11 -0.11)">
     <defs>
      <path d="M 19.671875 64.796875 
L 19.671875 8.109375 
L 31.59375 8.109375 
Q 46.6875 8.109375 53.6875 14.9375 
Q 60.6875 21.78125 60.6875 36.53125 
Q 60.6875 51.171875 53.6875 57.984375 
Q 46.6875 64.796875 31.59375 64.796875 
z
M 9.8125 72.90625 
L 30.078125 72.90625 
Q 51.265625 72.90625 61.171875 64.09375 
Q 71.09375 55.28125 71.09375 36.53125 
Q 71.09375 17.671875 61.125 8.828125 
Q 51.171875 0 30.078125 0 
L 9.8125 0 
z
" id="DejaVuSans-68"/>
     </defs>
     <use xlink:href="#DejaVuSans-68"/>
    </g>
   </g>
   <g id="patch_184">
    <path d="M 1149.20625 389.847812 
L 1171.20625 389.847812 
L 1171.20625 382.147812 
L 1149.20625 382.147812 
z
" style="fill:#c44e52;fill-opacity:0.5;stroke:#ffffff;stroke-linejoin:miter;"/>
   </g>
   <g id="text_19">
    <!-- GK -->
    <g style="fill:#262626;" transform="translate(1180.00625 389.847812)scale(0.11 -0.11)">
     <defs>
      <path d="M 59.515625 10.40625 
L 59.515625 29.984375 
L 43.40625 29.984375 
L 43.40625 38.09375 
L 69.28125 38.09375 
L 69.28125 6.78125 
Q 63.578125 2.734375 56.6875 0.65625 
Q 49.8125 -1.421875 42 -1.421875 
Q 24.90625 -1.421875 15.25 8.5625 
Q 5.609375 18.5625 5.609375 36.375 
Q 5.609375 54.25 15.25 64.234375 
Q 24.90625 74.21875 42 74.21875 
Q 49.125 74.21875 55.546875 72.453125 
Q 61.96875 70.703125 67.390625 67.28125 
L 67.390625 56.78125 
Q 61.921875 61.421875 55.765625 63.765625 
Q 49.609375 66.109375 42.828125 66.109375 
Q 29.4375 66.109375 22.71875 58.640625 
Q 16.015625 51.171875 16.015625 36.375 
Q 16.015625 21.625 22.71875 14.15625 
Q 29.4375 6.6875 42.828125 6.6875 
Q 48.046875 6.6875 52.140625 7.59375 
Q 56.25 8.5 59.515625 10.40625 
z
" id="DejaVuSans-71"/>
      <path d="M 9.8125 72.90625 
L 19.671875 72.90625 
L 19.671875 42.09375 
L 52.390625 72.90625 
L 65.09375 72.90625 
L 28.90625 38.921875 
L 67.671875 0 
L 54.6875 0 
L 19.671875 35.109375 
L 19.671875 0 
L 9.8125 0 
z
" id="DejaVuSans-75"/>
     </defs>
     <use xlink:href="#DejaVuSans-71"/>
     <use x="77.490234" xlink:href="#DejaVuSans-75"/>
    </g>
   </g>
  </g>
 </g>
 <defs>
  <clipPath id="p582e00c6bc">
   <rect height="657.58" width="1066.947109" x="46.31125" y="7.2"/>
  </clipPath>
 </defs>
</svg>
